<?xml version="1.0" encoding="UTF-8"?>
<!DOCTYPE svg PUBLIC "-//W3C//DTD SVG 1.1//EN" "http://www.w3.org/Graphics/SVG/1.1/DTD/svg11.dtd">
<!-- Creator: CorelDRAW X8 -->
<svg xmlns="http://www.w3.org/2000/svg" xml:space="preserve" width="1.4441in" height="0.846665in" version="1.1" style="shape-rendering:geometricPrecision; text-rendering:geometricPrecision; image-rendering:optimizeQuality; fill-rule:evenodd; clip-rule:evenodd"
viewBox="0 0 1252 734"
 xmlns:xlink="http://www.w3.org/1999/xlink">
 <defs>
  <style type="text/css">
   <![CDATA[
    .fil19 {fill:#FEFEFE;fill-rule:nonzero}
    .fil27 {fill:#FFF4E0;fill-rule:nonzero}
    .fil14 {fill:#FBC5A8;fill-rule:nonzero}
    .fil30 {fill:#FCBC72;fill-rule:nonzero}
    .fil31 {fill:#F8A168;fill-rule:nonzero}
    .fil17 {fill:#F7A18E;fill-rule:nonzero}
    .fil12 {fill:#F48A87;fill-rule:nonzero}
    .fil25 {fill:#F37C7C;fill-rule:nonzero}
    .fil10 {fill:#F2748D;fill-rule:nonzero}
    .fil11 {fill:#F06480;fill-rule:nonzero}
    .fil29 {fill:#EA6D6E;fill-rule:nonzero}
    .fil20 {fill:#DCDFDA;fill-rule:nonzero}
    .fil0 {fill:#D6EEEE;fill-rule:nonzero}
    .fil21 {fill:#CFC8B7;fill-rule:nonzero}
    .fil26 {fill:#BB5B65;fill-rule:nonzero}
    .fil28 {fill:#BA526F;fill-rule:nonzero}
    .fil7 {fill:#B6E1E3;fill-rule:nonzero}
    .fil4 {fill:#B9DA90;fill-rule:nonzero}
    .fil18 {fill:#774153;fill-rule:nonzero}
    .fil13 {fill:#79809B;fill-rule:nonzero}
    .fil3 {fill:#67C18E;fill-rule:nonzero}
    .fil15 {fill:#4BC5DB;fill-rule:nonzero}
    .fil22 {fill:#6B76B7;fill-rule:nonzero}
    .fil8 {fill:#47ADBE;fill-rule:nonzero}
    .fil16 {fill:#25ACCF;fill-rule:nonzero}
    .fil1 {fill:#1EB9A1;fill-rule:nonzero}
    .fil23 {fill:#596AB0;fill-rule:nonzero}
    .fil6 {fill:#4E395A;fill-rule:nonzero}
    .fil2 {fill:#239FA2;fill-rule:nonzero}
    .fil9 {fill:#1D9BAB;fill-rule:nonzero}
    .fil24 {fill:#4C5E7D;fill-rule:nonzero}
    .fil5 {fill:#495973;fill-rule:nonzero}
   ]]>
  </style>
 </defs>
 <g id="Layer_x0020_1">
  <metadata id="CorelCorpID_0Corel-Layer"/>
  <g id="_1216078646688">
   <path class="fil0" d="M95 364c-40,-72 -33,-168 19,-231 52,-64 148,-89 222,-55 38,17 69,47 106,63 58,24 126,14 184,-10 59,-23 111,-59 167,-88 56,-28 119,-50 181,-41 61,8 116,45 152,95 36,50 53,111 56,172 3,62 -9,127 -47,176 -35,47 -90,75 -145,94 -139,48 -296,45 -432,-9 -39,-16 -77,-35 -116,-47 -65,-20 -122,5 -185,-5 -66,-11 -129,-54 -162,-114z"/>
   <path class="fil1" d="M147 477c-2,-2 -5,-3 -7,-4 -2,-3 -3,-6 -4,-9 0,-4 0,-7 1,-11 1,-3 2,-6 3,-9 1,-3 3,-7 4,-10 1,-7 1,-15 -5,-20 -3,-4 -8,-4 -12,-5 -4,-1 -8,-3 -11,-7 -1,-2 -2,-4 -3,-6 0,-3 -1,-5 -1,-7 0,-2 0,-5 0,-7 -1,-2 -1,-4 -1,-7 -1,-4 -3,-7 -6,-10 -1,-2 -2,-3 -4,-4 -2,-1 -3,-3 -5,-4 -8,-4 -16,1 -18,3 -3,1 -11,6 -12,15 0,2 0,3 1,5 0,2 0,4 0,5 1,4 3,6 4,9 2,1 3,3 5,4 1,2 3,3 4,4 1,2 2,3 3,5 1,2 2,4 2,6 0,4 -2,7 -5,10 -3,3 -7,6 -8,10 -2,5 0,10 4,15 2,2 4,4 6,5 2,2 5,5 6,7 2,2 3,5 3,8 0,3 -1,6 -3,8 -2,2 -4,3 -6,4 -4,2 -7,6 -9,9 -2,4 -4,8 -4,12 0,4 1,8 3,12 0,2 1,4 2,6 1,2 3,4 4,6 1,2 3,4 5,7 1,1 3,2 4,4 1,1 3,3 4,4 5,6 11,11 15,13 5,1 12,-1 20,-5 2,-1 4,-1 5,-2 2,-1 4,-2 6,-3 3,-3 6,-5 8,-7 1,-2 3,-4 5,-6 1,-2 3,-5 4,-7 3,-5 5,-11 5,-17 1,-5 0,-12 -2,-17 -2,-5 -6,-9 -10,-12z"/>
   <path class="fil2" d="M114 396c-3,6 -7,11 -11,16l-2 -6c0,-2 -1,-4 -2,-6l-2 -6c-1,-2 -2,-4 -3,-6 2,-4 4,-8 6,-11 2,-4 4,-8 5,-12 0,-1 -1,-2 -2,-2 -3,8 -6,15 -10,22l-2 -3c0,-1 -1,-3 -2,-4l-3 -6c-1,-2 -2,-4 -4,-6l-3 -7c-1,0 -1,1 -1,1 -1,0 -1,0 -2,1l7 10 5 11c-4,-1 -7,-1 -11,-2 -4,-1 -7,-2 -11,-3 0,1 0,2 1,3 3,1 7,2 11,3 3,0 8,1 12,2 1,3 3,7 5,11 1,3 3,7 4,11 -4,-1 -8,-2 -12,-4 -3,-1 -7,-2 -10,-4 1,1 2,2 3,3 0,1 1,1 1,2 3,1 6,2 9,3 3,1 7,2 10,3 1,3 2,6 3,9l3 9c0,3 1,6 2,9 0,2 0,3 1,5l1 4c-4,-1 -7,-2 -10,-4 -3,-1 -6,-3 -9,-4 -6,-3 -12,-6 -17,-9 0,1 -1,1 -1,2 2,1 5,3 8,5 3,1 6,3 9,4 7,3 13,6 20,9 1,4 1,8 2,12l0 5 1 6c-3,-2 -6,-4 -9,-5 -3,-2 -6,-4 -9,-6 -3,-1 -5,-3 -8,-5 -2,-2 -5,-3 -7,-5 1,1 3,3 4,4 1,1 2,2 2,2 1,1 1,2 2,3 4,2 8,5 12,7 4,3 8,5 13,8 0,3 0,6 0,9 0,3 0,5 0,8 0,6 0,12 0,18 -4,-3 -7,-5 -9,-8 -3,-2 -6,-4 -9,-7 -5,-5 -10,-9 -15,-14 -1,0 -1,1 -2,2 3,2 5,4 8,7 2,2 5,5 8,7 6,5 12,11 18,16 0,3 0,6 -1,10l-1 4c0,2 0,4 0,5 -2,-1 -4,-3 -6,-5 -2,-2 -3,-3 -5,-5 -3,-3 -7,-6 -10,-9 -3,-4 -7,-7 -10,-10 -3,-3 -6,-6 -9,-9 0,1 0,2 0,3 11,12 25,24 39,38 -1,6 -3,12 -4,17 0,1 1,1 1,1 1,0 1,0 2,0 1,-6 3,-11 4,-17 18,-8 34,-20 47,-36 0,-1 0,-2 0,-3 -3,4 -6,7 -10,11 -4,3 -7,7 -11,10 -4,3 -8,6 -13,8 -2,1 -4,2 -6,4 -2,1 -5,2 -7,3 1,-5 2,-10 2,-14 1,-3 1,-5 1,-8l1 -7c6,-3 11,-7 17,-12 5,-4 10,-9 15,-15 0,0 -1,0 -1,0 0,0 -1,-1 -1,-1 -5,5 -9,10 -14,14 -5,4 -11,8 -16,11 0,-3 0,-7 0,-11l0 -11c4,-3 7,-5 10,-8 4,-3 7,-7 10,-10 0,-1 0,-3 0,-4 -6,7 -13,13 -20,19l-1 -9c0,-3 -1,-7 -1,-10 0,-1 0,-3 -1,-4l-1 -5c0,-3 -1,-6 -1,-9 4,-4 8,-9 12,-14 3,-5 6,-10 9,-15 -1,0 -1,-1 -2,-1 -3,5 -6,10 -9,14 -3,5 -7,9 -11,13 -1,-7 -3,-14 -6,-21 4,-5 8,-10 11,-15 -1,-1 -1,-2 -1,-4z"/>
   <path class="fil3" d="M96 489c-2,0 -4,0 -6,0 -3,-1 -5,-3 -6,-5 -2,-2 -3,-5 -4,-8 0,-2 -1,-5 -1,-8 0,-3 0,-5 -1,-8 -1,-6 -5,-12 -10,-13 -7,-3 -14,4 -21,0 -3,-2 -6,-5 -8,-9 -1,-3 -3,-6 -5,-9 -2,-3 -5,-4 -8,-6 -1,-1 -3,-1 -4,-1 -2,-1 -3,-1 -5,-1 -8,-1 -12,6 -13,8 -1,2 -6,8 -3,15 0,1 1,2 2,4 0,1 1,2 2,3 2,2 4,4 6,5 3,2 6,2 9,4 3,1 6,3 8,5 2,4 1,7 0,10 -1,3 -3,7 -3,10 1,4 4,8 9,9 2,1 4,2 7,2 2,1 4,2 6,3 2,1 4,3 5,5 1,2 2,4 1,7 -1,2 -2,3 -3,5 -2,3 -3,7 -3,10 0,4 1,7 2,10 2,3 4,6 7,8 2,3 5,4 9,6 1,1 4,2 6,3 2,1 3,1 4,2 2,0 3,1 5,1 6,2 12,4 16,4 3,-2 8,-6 12,-12 1,-1 2,-2 3,-4 1,-1 2,-2 2,-4 2,-3 3,-5 4,-7 1,-4 2,-9 2,-14 0,-4 -1,-9 -3,-13 -2,-4 -5,-8 -8,-11 -4,-3 -8,-5 -12,-6z"/>
   <path class="fil1" d="M43 443c0,5 -1,10 -2,15l-4 -4c-1,-1 -2,-2 -4,-3l-3 -4c-2,-1 -3,-2 -4,-3 0,-4 0,-7 1,-11 0,-3 -1,-6 -1,-10 -1,0 -1,0 -2,-1 0,7 1,13 0,20 -3,-2 -7,-5 -10,-7 -3,-3 -6,-5 -9,-7 -1,0 -1,1 -1,1 0,0 0,0 -1,1l9 5 7 6c-3,1 -6,2 -9,3 -3,0 -6,1 -8,1 0,1 0,2 1,2 3,0 6,-1 9,-1 3,-1 6,-2 9,-3 3,2 5,4 8,6 2,3 5,5 7,7 -3,1 -7,1 -10,2 -3,0 -6,0 -9,0 1,1 2,1 3,2 1,0 1,0 2,0 5,0 10,-1 16,-2 7,7 14,15 20,23 -3,0 -6,1 -9,1 -3,0 -5,0 -8,0 -5,0 -11,0 -15,-1 -1,1 -1,1 -1,2 3,0 6,0 8,1 3,0 6,0 9,0 5,0 11,0 17,-1 2,3 4,5 6,8l2 4 3 4c-3,0 -6,-1 -9,-1 -3,0 -5,0 -8,0 -3,-1 -5,-1 -8,-1 -2,-1 -5,-1 -7,-1 3,0 6,1 9,3 4,0 8,1 12,1 4,0 8,1 12,1 1,2 2,4 3,6 1,2 3,4 4,6 2,4 4,9 6,13 -4,-1 -7,-1 -10,-2 -3,0 -6,-1 -8,-2 -6,-1 -12,-3 -17,-5 0,1 0,2 -1,2 3,1 6,2 9,3 3,1 6,2 9,2 6,2 12,3 19,4 1,3 2,5 3,8 0,2 1,5 2,7 -4,-1 -8,-2 -11,-3 -4,-1 -8,-2 -11,-3 -4,-1 -7,-2 -11,-3 -3,-1 -6,-2 -10,-3 1,1 1,1 1,2 13,4 27,8 43,13 1,4 3,9 4,14 0,0 1,0 1,0 0,-1 1,-1 1,-1 -1,-5 -2,-9 -4,-14 10,-12 17,-27 21,-43 -1,-1 -1,-2 -2,-3 -1,4 -2,8 -3,12 -1,4 -3,8 -4,11 -2,4 -4,7 -6,11 -1,2 -2,3 -3,5 -1,1 -3,3 -4,5 -1,-4 -2,-8 -4,-11 -1,-4 -3,-7 -4,-11 3,-5 6,-10 8,-15 2,-5 4,-11 5,-16 0,0 0,-1 -1,-1 0,0 -1,0 -1,0 -1,6 -3,11 -5,16 -2,4 -5,9 -7,14 -2,-3 -3,-6 -4,-8l-5 -8c2,-4 4,-7 5,-10 1,-4 2,-7 3,-11 0,-1 -1,-2 -1,-3 -2,7 -4,15 -8,22 -5,-9 -11,-18 -17,-26 2,-4 3,-9 4,-14 1,-5 1,-10 1,-14 0,0 -1,0 -2,0 0,4 0,9 -1,13 -1,5 -2,9 -4,13 -3,-4 -7,-9 -11,-13 1,-5 2,-10 2,-15 -1,0 -1,-1 -2,-2z"/>
   <path class="fil4" d="M164 520c0,-1 -1,-3 -2,-5 0,-2 0,-4 2,-5 1,-2 3,-3 5,-4 3,-2 8,-2 12,-3 4,-1 7,-4 8,-8 1,-6 -5,-12 -1,-17 2,-2 4,-4 7,-5 3,-1 6,-1 8,-2 2,-1 4,-2 6,-4 1,-1 1,-2 2,-3 1,-1 1,-2 2,-3 2,-6 -1,-12 -2,-14 -1,-1 -4,-7 -11,-7 -2,0 -3,0 -4,0 -2,1 -3,1 -4,2 -3,1 -5,2 -7,4 -2,3 -4,5 -5,8 -2,3 -4,5 -7,6 -6,4 -12,-2 -18,-1 -5,1 -8,6 -10,11 -1,4 -2,9 -3,13 -1,3 -2,5 -3,7 -2,2 -4,3 -6,3 -2,1 -4,0 -6,0 -3,0 -7,1 -10,3 -3,3 -6,6 -8,9 -2,4 -3,7 -4,11 0,4 0,8 0,12 1,3 3,9 6,14 3,5 6,9 9,11 3,1 9,0 14,-1 5,-1 11,-2 14,-3 3,-1 6,-3 8,-5 3,-1 5,-3 7,-6 2,-2 3,-5 3,-8 0,-3 0,-7 -2,-10z"/>
   <path class="fil3" d="M191 475c-4,-1 -8,-2 -13,-3 3,-2 5,-4 7,-6 3,-2 5,-3 7,-5 3,1 6,2 9,3 2,1 5,2 8,3 0,-1 1,-1 1,-2 -5,-1 -11,-3 -16,-5 3,-2 6,-4 8,-6 3,-2 6,-4 9,-6 0,0 0,0 0,-1 0,0 -1,0 -1,0l-7 4 -7 5c0,-5 0,-11 2,-16 -1,0 -1,0 -2,0 -2,6 -2,11 -2,17 -2,2 -5,4 -7,6 -2,1 -4,3 -7,5 0,-6 0,-12 2,-17 -1,1 -2,2 -2,3 -1,0 -1,1 -1,1 -1,5 -1,10 0,15 -7,5 -13,12 -19,18 -2,-5 -2,-9 -3,-14 0,-5 0,-10 1,-15 0,0 -1,0 -2,0 0,2 0,5 -1,8 0,2 0,5 0,7 1,6 2,11 3,16 -2,2 -3,4 -5,6l-3 3 -2 3c-1,-2 -2,-4 -2,-7 -1,-2 -1,-5 -2,-7 0,-2 0,-5 0,-7 0,-3 0,-5 0,-7 0,3 -1,6 -2,9 0,4 1,7 2,11 0,3 1,7 3,10 -5,7 -10,14 -14,21 -1,-3 -2,-5 -3,-8 -1,-2 -2,-5 -3,-8 -1,-5 -1,-10 -1,-16 -1,0 -2,0 -2,0 0,3 0,6 0,9 0,3 1,6 2,8 1,6 3,11 6,17 -1,2 -2,4 -4,6 -1,2 -2,4 -3,6 -1,-1 -2,-3 -2,-5 -1,-1 -2,-3 -3,-4 -1,-3 -2,-7 -3,-10 -2,-7 -4,-13 -4,-20 -1,0 -1,1 -2,2 1,14 6,27 13,39 -2,4 -3,8 -5,12 0,0 1,0 1,0 0,0 1,0 1,0 2,-4 3,-7 5,-11 14,-2 27,-4 38,-7 1,0 1,-1 1,-1 -6,1 -12,2 -18,3 -3,1 -7,1 -10,2 -3,0 -7,0 -10,1 3,-6 6,-12 9,-18 5,0 10,0 15,0 5,0 9,-1 14,-1 0,0 -1,-1 -1,-1 0,0 0,0 0,-1 -4,1 -8,1 -13,1 -4,0 -9,0 -13,1 1,-3 2,-5 4,-7l4 -6c7,0 13,0 19,0 0,0 1,-1 2,-1 -6,0 -13,-1 -20,-1 6,-7 11,-14 17,-20 4,1 9,1 13,2 4,1 8,1 11,2 0,-1 0,-1 0,-2 -4,0 -7,-1 -11,-2 -4,0 -7,-1 -11,-2 3,-3 7,-7 11,-10 4,1 8,2 12,3 0,-1 1,-1 2,-2z"/>
   <polygon class="fil5" points="139,657 74,657 52,546 162,546 "/>
   <path class="fil6" d="M58 577l16 80 65 0 6 -31c-20,0 -40,-7 -57,-18 -12,-8 -22,-19 -30,-31z"/>
   <path class="fil6" d="M159 558l-86 0c-2,0 -4,2 -4,4l0 0c1,2 2,3 4,3l85 0 1 -7z"/>
   <path class="fil1" d="M1105 477c2,-2 5,-3 7,-4 2,-3 4,-6 4,-9 1,-4 0,-7 -1,-11 0,-3 -2,-6 -3,-9 -1,-3 -2,-7 -3,-10 -2,-7 -1,-15 4,-20 3,-4 8,-4 12,-5 4,-1 9,-3 11,-7 1,-2 2,-4 3,-6 0,-3 1,-5 1,-7 0,-2 0,-5 1,-7 0,-2 0,-4 0,-7 1,-4 3,-7 6,-10 1,-2 3,-3 4,-4 2,-1 3,-3 5,-4 8,-4 16,1 19,3 2,1 10,6 11,15 0,2 0,3 0,5 -1,2 -1,4 -1,5 -1,4 -2,6 -4,9 -2,1 -3,3 -4,4 -2,2 -3,3 -5,4 -1,2 -2,3 -3,5 -1,2 -2,4 -2,6 0,4 2,7 5,10 3,3 7,6 9,10 2,5 -1,10 -5,15 -2,2 -4,4 -6,5 -2,2 -4,5 -6,7 -2,2 -3,5 -3,8 0,3 1,6 3,8 2,2 4,3 6,4 4,2 8,6 10,9 2,4 3,8 3,12 0,4 -1,8 -3,12 0,2 -1,4 -2,6 -1,2 -3,4 -4,6 -1,2 -3,4 -5,7 -1,1 -3,2 -4,4 -1,1 -2,3 -4,4 -5,6 -11,11 -15,13 -4,1 -12,-1 -20,-5 -2,-1 -3,-1 -5,-2 -2,-1 -4,-2 -5,-3 -4,-3 -6,-5 -8,-7 -2,-2 -4,-4 -6,-6 -1,-2 -3,-5 -4,-7 -3,-5 -4,-11 -5,-17 0,-5 0,-12 2,-17 3,-5 6,-9 10,-12z"/>
   <path class="fil2" d="M1139 396c3,6 6,11 10,16l2 -6c1,-2 1,-4 2,-6l3 -6c0,-2 1,-4 2,-6 -2,-4 -4,-8 -6,-11 -2,-4 -4,-8 -5,-12 1,-1 1,-2 2,-2 3,8 6,15 11,22l1 -3c1,-1 1,-3 2,-4l3 -6c1,-2 3,-4 4,-6l4 -7c0,0 0,1 1,1 0,0 0,0 1,1l-6 10 -6 11c4,-1 8,-1 11,-2 4,-1 7,-2 11,-3 0,1 0,2 0,3 -4,1 -8,2 -11,3 -4,0 -8,1 -12,2 -2,3 -4,7 -5,11 -2,3 -3,7 -5,11 4,-1 8,-2 12,-4 4,-1 7,-2 10,-4 -1,1 -2,2 -3,3 0,1 0,1 -1,2 -3,1 -6,2 -9,3 -3,1 -6,2 -10,3 -1,3 -2,6 -3,9l-2 9c-1,3 -2,6 -2,9 -1,2 -1,3 -1,5l-1 4c3,-1 6,-2 9,-4 3,-1 6,-3 9,-4 6,-3 12,-6 17,-9 1,1 1,1 2,2 -3,1 -6,3 -9,5 -3,1 -6,3 -9,4 -6,3 -13,6 -20,9 -1,4 -1,8 -1,12l-1 5 -1 6c4,-2 7,-4 9,-5 3,-2 6,-4 9,-6 3,-1 5,-3 8,-5 3,-2 5,-3 8,-5 -2,1 -3,3 -5,4 -1,1 -1,2 -2,2 -1,1 -1,2 -2,3 -4,2 -8,5 -12,7 -4,3 -8,5 -13,8 0,3 0,6 0,9 0,3 0,5 0,8 0,6 0,12 1,18 3,-3 6,-5 9,-8 3,-2 5,-4 8,-7 5,-5 11,-9 15,-14 1,0 1,1 2,2 -2,2 -5,4 -8,7 -2,2 -5,5 -8,7 -6,5 -11,11 -18,16 0,3 1,6 1,10l1 4c0,2 0,4 1,5 1,-1 3,-3 5,-5 2,-2 3,-3 5,-5 4,-3 7,-6 10,-9 4,-4 7,-7 10,-10 3,-3 6,-6 9,-9 0,1 0,2 0,3 -11,12 -24,24 -39,38 1,6 3,12 4,17 0,1 -1,1 -1,1 0,0 -1,0 -1,0 -2,-6 -3,-11 -4,-17 -19,-8 -35,-20 -48,-36 0,-1 0,-2 0,-3 4,4 7,7 10,11 4,3 8,7 11,10 4,3 9,6 13,8 2,1 4,2 6,4 3,1 5,2 7,3 -1,-5 -1,-10 -2,-14 0,-3 -1,-5 -1,-8l0 -7c-7,-3 -12,-7 -18,-12 -5,-4 -10,-9 -15,-15 1,0 1,0 1,0 1,0 1,-1 2,-1 4,5 9,10 13,14 5,4 11,8 16,11 0,-3 0,-7 0,-11l0 -11c-3,-3 -7,-5 -10,-8 -3,-3 -7,-7 -10,-10 0,-1 0,-3 0,-4 6,7 13,13 21,19l0 -9c1,-3 1,-7 1,-10 1,-1 1,-3 1,-4l1 -5c0,-3 1,-6 1,-9 -4,-4 -8,-9 -11,-14 -4,-5 -7,-10 -10,-15 1,0 2,-1 3,-1 2,5 5,10 8,14 4,5 7,9 11,13 2,-7 4,-14 6,-21 -4,-5 -7,-10 -11,-15 1,-1 1,-2 2,-4z"/>
   <path class="fil3" d="M1156 489c2,0 4,0 6,0 3,-1 5,-3 7,-5 1,-2 2,-5 3,-8 1,-2 1,-5 1,-8 0,-3 0,-5 1,-8 1,-6 5,-12 10,-13 8,-3 15,4 22,0 3,-2 5,-5 7,-9 2,-3 3,-6 6,-9 1,-3 4,-4 7,-6 1,-1 3,-1 5,-1 1,-1 3,-1 4,-1 8,-1 12,6 13,8 2,2 6,8 3,15 0,1 -1,2 -2,4 0,1 -1,2 -2,3 -2,2 -4,4 -6,5 -3,2 -6,2 -9,4 -3,1 -6,3 -8,5 -2,4 -1,7 0,10 2,3 3,7 3,10 0,4 -4,8 -9,9 -2,1 -4,2 -6,2 -3,1 -5,2 -7,3 -2,1 -4,3 -5,5 -1,2 -2,4 -1,7 1,2 2,3 3,5 2,3 3,7 3,10 0,4 -1,7 -2,10 -2,3 -4,6 -6,8 -3,3 -6,4 -9,6 -2,1 -4,2 -7,3 -1,1 -3,1 -4,2 -2,0 -3,1 -5,1 -6,2 -12,4 -16,4 -3,-2 -8,-6 -12,-12 -1,-1 -2,-2 -3,-4 -1,-1 -2,-2 -2,-4 -2,-3 -3,-5 -4,-7 -1,-4 -1,-9 -1,-14 0,-4 1,-9 2,-13 2,-4 5,-8 8,-11 4,-3 8,-5 12,-6z"/>
   <path class="fil1" d="M1209 443c0,5 1,10 2,15l4 -4c1,-1 3,-2 4,-3l4 -4c1,-1 2,-2 4,-3 -1,-4 -1,-7 -1,-11 0,-3 0,-6 0,-10 1,0 1,0 2,-1 0,7 0,13 0,20 3,-2 7,-5 10,-7 3,-3 6,-5 10,-7 0,0 0,1 0,1 0,0 1,0 1,1l-8 5 -8 6c3,1 6,2 9,3 3,0 6,1 9,1 -1,1 -1,2 -1,2 -3,0 -6,-1 -10,-1 -3,-1 -6,-2 -9,-3 -3,2 -5,4 -8,6 -2,3 -4,5 -7,7 3,1 7,1 10,2 3,0 6,0 9,0 -1,1 -2,1 -3,2 -1,0 -1,0 -2,0 -5,0 -10,-1 -16,-2 -7,7 -13,15 -20,23 3,0 6,1 9,1 3,0 5,0 8,0 5,0 11,0 16,-1 0,1 0,1 0,2 -3,0 -5,0 -8,1 -3,0 -6,0 -8,0 -6,0 -12,0 -18,-1 -2,3 -4,5 -5,8l-3 4 -2 4c3,0 5,-1 8,-1 3,0 6,0 8,0 3,-1 5,-1 8,-1 3,-1 5,-1 7,-1 -3,0 -6,1 -9,3 -4,0 -7,1 -11,1 -4,0 -8,1 -13,1 -1,2 -2,4 -3,6 -1,2 -2,4 -3,6 -3,4 -5,9 -6,13 3,-1 6,-1 9,-2 3,0 6,-1 9,-2 5,-1 11,-3 16,-5 0,1 0,2 1,2 -3,1 -6,2 -9,3 -2,1 -5,2 -8,2 -6,2 -13,3 -19,4 -2,3 -2,5 -3,8 -1,2 -2,5 -3,7 4,-1 8,-2 12,-3 3,-1 7,-2 10,-3 4,-1 8,-2 11,-3 3,-1 7,-2 10,-3 0,1 -1,1 -1,2 -13,4 -27,8 -43,13 -1,4 -2,9 -4,14 0,0 0,0 -1,0 0,-1 0,-1 -1,-1 2,-5 3,-9 4,-14 -10,-12 -17,-27 -21,-43 1,-1 2,-2 2,-3 1,4 2,8 3,12 1,4 3,8 4,11 2,4 4,7 6,11 1,2 2,3 3,5 2,1 3,3 4,5 1,-4 3,-8 4,-11 1,-4 3,-7 4,-11 -3,-5 -5,-10 -8,-15 -2,-5 -4,-11 -5,-16 0,0 1,-1 1,-1 0,0 1,0 1,0 2,6 3,11 5,16 2,4 5,9 7,14 2,-3 3,-6 4,-8l5 -8c-2,-4 -3,-7 -5,-10 -1,-4 -2,-7 -3,-11 0,-1 1,-2 1,-3 2,7 5,15 8,22 5,-9 11,-18 17,-26 -1,-4 -3,-9 -4,-14 -1,-5 -1,-10 -1,-14 0,0 1,0 2,0 0,4 1,9 1,13 1,5 2,9 4,13 3,-4 7,-9 12,-13 -2,-5 -2,-10 -3,-15 1,0 2,-1 2,-2z"/>
   <path class="fil4" d="M1088 520c1,-1 1,-3 2,-5 0,-2 0,-4 -1,-5 -2,-2 -3,-3 -5,-4 -4,-2 -9,-2 -12,-3 -4,-1 -8,-4 -9,-8 -1,-6 5,-12 1,-17 -1,-2 -4,-4 -7,-5 -2,-1 -5,-1 -8,-2 -2,-1 -4,-2 -6,-4 0,-1 -1,-2 -2,-3 0,-1 -1,-2 -1,-3 -3,-6 0,-12 2,-14 1,-1 4,-7 10,-7 2,0 3,0 4,0 2,1 3,1 4,2 3,1 5,2 7,4 2,3 4,5 6,8 1,3 3,5 6,6 7,4 12,-2 19,-1 4,1 8,6 9,11 1,4 2,9 3,13 1,3 2,5 4,7 1,2 3,3 5,3 2,1 4,0 6,0 4,0 7,1 10,3 4,3 6,6 8,9 2,4 4,7 4,11 1,4 1,8 0,12 -1,3 -3,9 -6,14 -3,5 -6,9 -9,11 -3,1 -8,0 -14,-1 -5,-1 -11,-2 -14,-3 -3,-1 -6,-3 -8,-5 -3,-1 -5,-3 -7,-6 -1,-2 -2,-5 -3,-8 0,-3 0,-7 2,-10z"/>
   <path class="fil3" d="M1062 475c4,-1 8,-2 12,-3 -3,-2 -5,-4 -7,-6 -2,-2 -5,-3 -7,-5 -3,1 -6,2 -8,3 -3,1 -6,2 -9,3 0,-1 0,-1 -1,-2 5,-1 11,-3 16,-5 -3,-2 -5,-4 -8,-6 -3,-2 -6,-4 -9,-6 0,0 0,0 1,-1 0,0 0,0 0,0l7 4 7 5c0,-5 0,-11 -2,-16 1,0 1,0 2,0 2,6 3,11 2,17 3,2 5,4 7,6 2,1 5,3 7,5 0,-6 0,-12 -1,-17 0,1 1,2 2,3 0,0 0,1 0,1 1,5 1,10 0,15 7,5 14,12 20,18 1,-5 2,-9 2,-14 0,-5 0,-10 -1,-15 1,0 1,0 2,0 0,2 1,5 1,8 0,2 0,5 0,7 -1,6 -1,11 -3,16 2,2 4,4 5,6l3 3 2 3c1,-2 2,-4 2,-7 1,-2 1,-5 2,-7 0,-2 0,-5 0,-7 0,-3 0,-5 0,-7 1,3 1,6 2,9 0,4 -1,7 -1,11 -1,3 -2,7 -3,10 5,7 9,14 13,21 2,-3 3,-5 4,-8 0,-2 1,-5 2,-8 1,-5 2,-10 2,-16 0,0 1,0 1,0 1,3 0,6 0,9 0,3 -1,6 -1,8 -2,6 -4,11 -7,17 2,2 3,4 4,6 1,2 2,4 3,6 1,-1 2,-3 3,-5 0,-1 1,-3 2,-4 1,-3 2,-7 4,-10 2,-7 3,-13 3,-20 1,0 2,1 2,2 -1,14 -6,27 -13,39 2,4 3,8 5,12 0,0 -1,0 -1,0 0,0 0,0 -1,0 -1,-4 -3,-7 -5,-11 -14,-2 -27,-4 -38,-7 0,0 -1,-1 -1,-1 6,1 12,2 18,3 4,1 7,1 10,2 3,0 7,0 10,1 -3,-6 -6,-12 -9,-18 -5,0 -10,0 -15,0 -4,0 -9,-1 -13,-1 0,0 0,-1 0,-1 0,0 0,0 0,-1 4,1 9,1 13,1 4,0 9,0 14,1 -2,-3 -3,-5 -5,-7l-4 -6c-6,0 -13,0 -18,0 -1,0 -2,-1 -3,-1 7,0 13,-1 20,-1 -5,-7 -11,-14 -17,-20 -4,1 -8,1 -12,2 -4,1 -8,1 -12,2 0,-1 0,-1 0,-2 4,0 7,-1 11,-2 4,0 8,-1 11,-2 -3,-3 -7,-7 -11,-10 -4,1 -8,2 -12,3 0,-1 -1,-1 -1,-2z"/>
   <polygon class="fil5" points="1113,657 1178,657 1200,546 1090,546 "/>
   <path class="fil6" d="M1194 577l-16 80 -65 0 -6 -31c20,0 41,-7 58,-18 11,-8 21,-19 29,-31z"/>
   <path class="fil6" d="M1093 558l86 0c2,0 4,2 4,4l0 0c-1,2 -2,3 -4,3l-85 0 -1 -7z"/>
   <path class="fil7" d="M1244 657l-1236 0c-4,0 -8,3 -8,7 0,4 3,8 8,8l199 0c5,0 8,4 8,8l0 0c0,4 -3,8 -8,8l-76 0c-4,0 -8,3 -8,7 0,4 3,8 8,8l203 0c5,0 8,4 8,8l0 0c0,4 -3,8 -8,8l-71 0c-4,0 -7,3 -8,7 0,4 4,8 8,8l726 0c4,0 7,-3 8,-7 0,-4 -3,-8 -8,-8l-71 0c-4,0 -8,-4 -8,-8l0 0c0,-4 4,-8 8,-8l203 0c4,0 8,-3 8,-7 1,-5 -3,-8 -8,-8l-76 0c-4,0 -8,-4 -8,-8l0 0c0,-4 4,-8 8,-8l199 0c4,0 8,-3 8,-7 1,-5 -3,-8 -8,-8z"/>
   <path class="fil8" d="M249 351c-28,-43 -17,-108 23,-139 27,-20 62,-26 95,-24 101,5 195,69 296,65 47,-2 92,-18 137,-30 45,-12 93,-21 138,-7 45,14 84,56 82,104l-43 168 -698 0 -30 -137z"/>
   <path class="fil9" d="M975 307c-9,-12 -18,-25 -31,-34 -26,-16 -62,-12 -92,-6 -19,-10 -43,-1 -57,16 -14,17 -19,39 -23,60 -3,10 -5,20 -7,30 -2,9 -4,18 -9,25 -5,8 -13,14 -22,14 -12,0 -21,-12 -28,-22 -10,-15 -20,-30 -30,-45 -9,-14 -18,-28 -30,-39 -13,-11 -28,-19 -44,-19 -27,0 -51,20 -77,20 -33,-1 -58,-32 -90,-37 -26,-3 -51,11 -70,29 -19,18 -34,40 -55,56 -12,9 -26,16 -37,26 -5,5 -10,11 -13,18l19 89 698 0 33 -130c-11,-17 -23,-34 -35,-51z"/>
   <path class="fil9" d="M944 581l-636 0 -28 -111c-3,-9 4,-18 13,-18l666 0c9,0 16,9 14,18l-29 111z"/>
   <path class="fil8" d="M926 581l-600 0 -27 -111c-2,-9 4,-18 13,-18l628 0c9,0 15,9 13,18l-27 111z"/>
   <path class="fil8" d="M308 581l-60 -234c-8,-31 -42,-49 -72,-38l0 0c-31,12 -45,47 -30,76l78 162c11,21 32,34 55,34l29 0z"/>
   <path class="fil8" d="M944 581l60 -234c8,-31 42,-49 72,-38l0 0c31,12 45,47 31,76l-79 162c-10,21 -31,34 -54,34l-30 0z"/>
   <path class="fil10" d="M440 398l24 -45c5,0 9,-1 13,-2 10,-4 16,-14 15,-24 -1,-14 0,-27 0,-27l10 18 30 -23 -28 -43 -37 -16 -38 -13c-25,3 -48,24 -55,49 -4,16 -2,33 -8,48 -6,14 -18,23 -30,32 -10,7 -20,14 -28,22 27,-6 76,1 132,24z"/>
   <polygon class="fil11" points="492,300 492,274 514,309 502,318 "/>
   <path class="fil11" d="M380 270l8 46c1,4 5,6 8,5l0 0 30 51c4,8 12,13 20,15l0 0 18 -34 -84 -83z"/>
   <path class="fil11" d="M423 394c-4,-5 -10,-10 -17,-15 -7,-4 -15,-8 -23,-11 -9,-3 -17,-6 -26,-7 -8,-1 -16,-1 -22,0 13,3 29,7 45,13 16,6 31,13 43,20z"/>
   <path class="fil11" d="M420 393c-3,-9 -9,-18 -17,-26 -9,-8 -19,-13 -28,-15 8,4 17,11 25,18 8,7 15,16 20,23z"/>
   <path class="fil11" d="M424 376c-6,-8 -13,-17 -21,-27 -8,-9 -15,-19 -22,-25 4,8 11,19 19,28 7,10 16,18 24,24z"/>
   <path class="fil12" d="M504 316l32 45c5,8 13,12 22,14l54 7 5 -25 -55 -12 -32 -48 -26 19z"/>
   <polygon class="fil6" points="530,297 532,300 512,327 504,316 "/>
   <path class="fil5" d="M738 492l1 -1c0,-1 0,-2 1,-3 0,-1 1,-2 1,-3l0 0 1 0c19,-6 40,-12 62,-18 9,-3 18,-6 28,-9 8,-12 20,-22 35,-28l9 -4 -47 -33 -109 57c-19,10 -29,32 -23,53l36 142 39 -2c-4,-50 -15,-100 -33,-151l-1 0z"/>
   <path class="fil13" d="M804 467c-22,6 -43,12 -62,18l-1 0 0 0c0,1 -1,2 -1,3 -1,1 -1,2 -1,3l-1 1 1 0c18,51 29,101 33,151l2 -1c-4,-49 -15,-100 -34,-150 1,-1 1,-2 2,-3 0,-1 0,-2 1,-3 18,-5 40,-12 61,-18 20,-6 41,-12 60,-17l1 -2c-19,5 -41,12 -61,18z"/>
   <path class="fil14" d="M733 645l-37 23 -12 -2c-3,-1 -5,1 -5,4l0 0c0,5 5,9 10,9l7 -1 6 1c8,2 16,2 24,-1l19 -6 17 3c3,0 6,-1 8,-3l0 0c4,-3 5,-9 3,-13l-10 -16 -30 2z"/>
   <polygon class="fil6" points="763,643 733,645 768,650 "/>
   <path class="fil5" d="M827 467c1,-2 2,-4 3,-6 -8,2 -17,5 -26,7 -21,6 -43,13 -61,18 -1,1 -1,2 -1,3 -1,1 -1,2 -2,3 19,50 30,101 34,150l-1 1 9 -1 -13 -81c-4,-23 -11,-45 -21,-66l107 -26 -33 8 5 -10z"/>
   <path class="fil6" d="M832 458c11,-3 22,-6 33,-9l11 -23 -9 4c-15,6 -27,16 -35,28z"/>
   <path class="fil6" d="M827 467l-5 10 33 -8 9 -18c-11,3 -22,6 -34,10 -1,2 -2,4 -3,6z"/>
   <polygon class="fil13" points="772,643 773,643 772,643 "/>
   <path class="fil5" d="M832 458c-1,1 -1,2 -2,3 12,-4 23,-7 34,-10l1 -2c-11,3 -22,6 -33,9z"/>
   <path class="fil6" d="M712 485c5,2 11,4 17,5 7,2 13,3 18,3 -4,-4 -10,-7 -16,-8 -7,-2 -14,-2 -19,0z"/>
   <path class="fil6" d="M724 474c2,3 7,7 11,10 4,3 8,7 12,9 -1,-4 -5,-9 -9,-13 -5,-3 -10,-6 -14,-6z"/>
   <path class="fil6" d="M780 638c-7,-2 -16,-4 -25,-6 -9,-3 -17,-7 -24,-9 6,4 14,9 23,12 9,3 19,4 26,3z"/>
   <path class="fil6" d="M774 625c-4,0 -9,0 -14,0 -5,0 -10,0 -13,0 3,2 8,2 13,2 5,0 10,-1 14,-2z"/>
   <path class="fil6" d="M766 572c-9,-6 -19,-13 -28,-22 -10,-8 -18,-18 -25,-26 4,10 11,21 21,30 10,9 22,15 32,18z"/>
   <path class="fil6" d="M826 453c-2,-3 -6,-6 -9,-9 -4,-4 -9,-6 -14,-8 -4,-2 -10,-4 -14,-4 -5,-1 -10,-1 -14,0 8,1 18,3 27,7 9,4 18,9 24,14z"/>
   <path class="fil6" d="M825 446c-2,-4 -6,-9 -11,-13 -4,-4 -9,-7 -13,-10 3,4 7,8 12,12 4,4 9,8 12,11z"/>
   <path class="fil15" d="M937 292l12 12 35 -38 -42 -41c-7,-8 -17,-12 -28,-13 -36,-1 -104,2 -138,46l-21 54 38 25 12 -41 2 6c10,26 14,54 13,81l0 2c0,5 3,10 8,12l5 3c11,5 21,12 29,20l2 2c4,5 11,7 17,7l0 0c5,0 10,-1 14,-4l46 -32 1 -35c0,-14 -1,-27 -2,-41l-3 -25z"/>
   <path class="fil16" d="M799 317l6 -21c-5,-14 -17,-27 -17,-27 8,19 11,35 11,48z"/>
   <path class="fil16" d="M939 310l-2 -18 -25 -33c5,19 14,36 27,51z"/>
   <path class="fil16" d="M884 220c-3,4 -6,9 -11,13 -5,4 -11,7 -17,8 -7,2 -13,1 -19,-1 -6,-1 -12,-4 -16,-7 3,4 8,8 14,11 7,3 14,4 22,2 7,-1 14,-5 18,-10 5,-5 8,-11 9,-16z"/>
   <path class="fil16" d="M918 329c-4,0 -7,1 -11,1 -4,0 -8,0 -12,-1 -8,-1 -17,-3 -25,-6 -17,-6 -33,-14 -46,-20 10,10 26,20 43,26 9,3 19,5 27,5 5,0 9,0 13,-1 4,-1 8,-3 11,-4z"/>
   <path class="fil16" d="M918 307c-7,2 -16,4 -24,5 -9,1 -18,1 -25,1 7,2 16,3 25,2 9,-1 18,-4 24,-8z"/>
   <path class="fil16" d="M913 389c-7,3 -17,7 -27,8 -11,2 -21,1 -29,-1 4,2 8,4 13,5 5,1 11,1 16,0 6,-1 11,-2 15,-5 5,-2 9,-4 12,-7z"/>
   <path class="fil16" d="M830 368c4,6 12,13 21,17 9,5 19,7 27,6 -7,-2 -17,-5 -25,-9 -9,-4 -17,-10 -23,-14z"/>
   <path class="fil16" d="M970 267c-4,2 -9,6 -13,11 -5,5 -8,10 -10,15 3,-4 7,-9 11,-13 5,-5 9,-9 12,-13z"/>
   <path class="fil16" d="M955 265c-2,3 -5,7 -7,11 -2,4 -3,8 -3,12 1,-4 3,-8 5,-12 2,-4 4,-7 5,-11z"/>
   <path class="fil16" d="M788 324c-2,-4 -5,-8 -10,-11 -4,-3 -9,-5 -13,-6 2,3 6,7 11,10 4,3 8,5 12,7z"/>
   <path class="fil16" d="M786 306c-2,-2 -6,-4 -10,-4 -4,-1 -9,-1 -12,1 3,1 7,2 11,2 4,1 8,1 11,1z"/>
   <path class="fil14" d="M865 632l0 10c0,2 -1,3 -2,4l-22 21 -11 0c-2,0 -4,2 -4,5l0 0c0,5 4,9 9,9l2 0c2,0 5,-1 7,-2l1 -1 0 0c0,2 2,4 4,4l26 0c3,0 5,-1 6,-4l0 0 9 -9 0 0c6,-1 9,-7 7,-12l-3 -11 0 -14 -29 0z"/>
   <path class="fil6" d="M876 646c7,-1 13,-3 18,-6l0 -8 -29 0 0 10c0,1 0,2 0,2 3,2 7,2 11,2z"/>
   <path class="fil5" d="M941 393c-35,12 -64,31 -80,43 -9,7 -14,17 -14,28 -1,49 8,172 8,172l2 1c15,5 33,3 47,-6l0 -156c70,-10 46,-66 37,-82z"/>
   <path class="fil13" d="M951 419c0,4 -1,7 -2,11 -4,10 -12,18 -22,23 -9,4 -20,6 -32,5l0 0 3 176 2 -1 -4 -173c12,1 23,-1 32,-6 10,-5 19,-13 22,-23 1,-2 2,-4 2,-6 0,0 0,-2 -1,-6l0 0z"/>
   <path class="fil6" d="M872 447c5,4 11,8 17,13 5,4 10,9 15,14 -1,-3 -2,-7 -3,-10 -2,-4 -5,-7 -8,-9 -3,-3 -7,-5 -10,-6 -4,-2 -8,-2 -11,-2z"/>
   <path class="fil6" d="M888 445c3,3 7,8 10,13 3,5 5,11 6,16 0,-5 -1,-12 -4,-17 -3,-6 -8,-10 -12,-12z"/>
   <path class="fil6" d="M873 460c4,2 10,4 16,6 5,3 10,6 15,8 -4,-4 -9,-7 -15,-10 -5,-2 -11,-4 -16,-4z"/>
   <path class="fil6" d="M882 521c-5,-6 -10,-14 -16,-22 -5,-8 -10,-16 -13,-22 1,7 5,16 10,24 6,9 13,16 19,20z"/>
   <path class="fil6" d="M898 627c-6,1 -14,1 -21,1 -7,-1 -15,-3 -20,-5 4,3 12,7 20,7 8,1 15,0 21,-3z"/>
   <path class="fil6" d="M897 613c-3,3 -7,5 -12,8 -4,2 -9,3 -13,3 4,1 9,0 14,-2 5,-2 9,-6 11,-9z"/>
   <path class="fil6" d="M943 422c-4,-3 -11,-7 -18,-8 -8,-1 -15,0 -20,3 5,-1 12,-1 19,0 7,1 14,3 19,5z"/>
   <path class="fil6" d="M943 412c-5,-1 -12,-2 -19,-1 -7,1 -14,3 -18,6 5,-1 12,-3 19,-4 6,-1 13,-1 18,-1z"/>
   <path class="fil14" d="M952 301l19 22 -62 82 -21 4c-4,0 -7,2 -10,5l-2 1c-4,4 -7,10 -7,16l0 0 7 -5 18 2c10,2 20,-3 26,-12l0 0 75 -74c11,-11 12,-28 2,-39l-22 -27 -23 25z"/>
   <polygon class="fil6" points="975,276 952,301 961,311 977,279 "/>
   <path class="fil14" d="M863 215l-4 -24c-2,5 -4,10 -7,14 -5,6 -11,10 -19,12l1 4c-3,1 -6,2 -9,3 4,6 10,11 17,12 9,2 18,-1 25,-7 5,-4 8,-10 11,-16 -5,0 -10,1 -15,2z"/>
   <path class="fil6" d="M852 205c3,-4 5,-9 7,-14l0 0 -2 -8 -27 17 3 17 0 0c8,-2 14,-6 19,-12z"/>
   <path class="fil17" d="M799 173c0,8 -7,14 -15,14 -8,0 -14,-6 -14,-14 0,-8 6,-14 14,-14 8,0 15,6 15,14z"/>
   <path class="fil12" d="M793 173c0,4 -4,8 -9,8 -4,0 -8,-4 -8,-8 0,-5 4,-8 8,-8 5,0 9,3 9,8z"/>
   <path class="fil14" d="M824 211l0 0c-22,0 -41,-17 -42,-40l-1 -33c-1,-22 17,-41 39,-42l0 0c23,-1 42,17 43,39l1 33c1,23 -17,42 -40,43z"/>
   <path class="fil18" d="M864 172c-8,-6 -10,-9 -9,-22 -5,-4 -8,-9 -9,-14 -1,-6 1,-11 2,-17 -4,-2 -8,-2 -12,0 -4,2 -7,5 -11,7 -3,2 -8,3 -12,1 -3,-1 -6,-5 -10,-5 -4,0 -7,2 -10,5 -4,3 -9,5 -14,6 -6,0 -11,-3 -13,-9 -1,-5 1,-10 4,-14 4,-5 7,-9 8,-14 1,-5 -1,-11 0,-16 2,-5 7,-9 13,-10 5,-1 11,1 16,3 3,2 6,5 10,5 4,1 7,-1 10,-2 4,-2 7,-4 10,-5 7,-3 15,-2 20,3 6,4 9,11 9,19 6,-3 15,0 19,6 2,5 3,10 3,15 -1,19 -6,38 -16,55 -2,1 -6,2 -8,3z"/>
   <path class="fil14" d="M888 165c0,8 -6,14 -14,14 -8,0 -14,-6 -14,-14 0,-8 6,-15 14,-15 8,0 14,7 14,15z"/>
   <path class="fil17" d="M882 165c0,4 -4,8 -8,8 -5,0 -8,-4 -8,-8 0,-5 3,-8 8,-8 4,0 8,3 8,8z"/>
   <path class="fil18" d="M830 136c-5,-1 -10,1 -13,4l24 4c-2,-4 -6,-7 -11,-8z"/>
   <path class="fil6" d="M831 155c0,2 -1,4 -3,4 -2,0 -4,-2 -4,-4 0,-2 2,-4 4,-4 2,0 3,2 3,4z"/>
   <path class="fil18" d="M791 135c4,-1 7,1 10,4l-18 4c2,-4 4,-7 8,-8z"/>
   <path class="fil6" d="M790 154c0,2 1,3 3,3 1,0 3,-1 3,-3 0,-2 -2,-4 -3,-4 -2,0 -3,2 -3,4z"/>
   <path class="fil17" d="M816 171c-4,-2 -10,-3 -14,0 1,2 4,3 6,3 3,0 6,-1 8,-3z"/>
   <path class="fil19" d="M838 178c-10,4 -21,6 -32,6 2,5 6,10 11,11 5,2 10,1 15,-2 4,-3 6,-10 6,-15z"/>
   <polygon class="fil17" points="758,382 788,333 758,314 753,326 "/>
   <polygon class="fil6" points="758,314 788,333 779,347 756,319 "/>
   <path class="fil14" d="M731 283l-6 9c-2,3 -2,8 1,12l8 11 -3 -32z"/>
   <path class="fil14" d="M734 315l-13 54c-4,12 6,24 19,24l0 0c12,0 21,-10 20,-22l-7 -45 -17 0 -2 -11z"/>
   <polygon class="fil20" points="773,326 736,326 728,261 781,261 "/>
   <polygon class="fil21" points="729,271 736,326 773,326 773,326 "/>
   <path class="fil19" d="M749 244c0,-4 -2,-8 -5,-9 -3,-1 -6,0 -8,0 -3,0 -7,-1 -8,-3 -2,-4 2,-9 0,-13 -1,-2 -3,-4 -5,-4 -2,0 -5,0 -7,-1 -6,0 -12,-5 -15,-10 -2,-6 -3,-12 -1,-18 2,-6 6,-12 10,-16 4,-4 9,-7 14,-8 5,-1 10,0 15,3 4,3 7,8 5,13 -1,4 -3,7 -4,10 -2,3 -2,8 1,10 2,1 5,1 7,2 3,2 3,6 1,9 -2,3 -5,5 -7,8 -2,2 -3,6 -1,9 1,1 4,2 5,3 5,3 7,7 8,12 0,3 -1,8 -4,10 -3,3 -1,-5 -1,-7z"/>
   <path class="fil19" d="M763 237c-2,-2 -4,-3 -4,-6 0,-1 1,-3 2,-4 2,-3 1,-7 0,-10 -1,-4 -2,-7 -1,-10 1,-4 4,-6 8,-6 3,0 7,2 9,5 1,3 2,7 1,10 -1,3 -2,6 -4,8 -1,2 -2,3 -3,5 -1,2 -2,3 -2,5 -1,3 1,5 1,7 0,2 0,4 -2,6 0,0 -4,3 -5,2 0,0 2,-5 2,-6 0,-2 -1,-4 -2,-6z"/>
   <path class="fil6" d="M697 319c-18,19 -45,31 -72,32 -27,0 -54,-10 -73,-29 7,-4 14,-13 18,-20 4,-8 6,-16 8,-25 3,-8 5,-16 10,-23 5,-8 11,-14 19,-17 8,-2 18,-1 24,6 8,-5 19,-4 27,0 8,3 15,10 17,19 4,12 -1,27 4,39 3,7 12,13 18,18z"/>
   <path class="fil22" d="M571 407l4 -31c2,-12 10,-22 22,-27l18 -8 26 0 14 7c8,4 13,11 16,18l9 32 -49 19 -60 -10z"/>
   <path class="fil23" d="M605 398c1,-6 0,-14 -3,-21 -2,-7 -6,-14 -10,-18 2,5 5,12 8,19 2,7 4,14 5,20z"/>
   <path class="fil23" d="M637 369c-5,1 -12,0 -18,-3 -6,-4 -10,-9 -12,-14 1,3 2,6 3,8 2,3 5,6 8,8 3,2 7,3 10,3 3,0 6,-1 9,-2z"/>
   <path class="fil23" d="M646 350c-1,3 -3,7 -7,10 -3,3 -7,5 -11,6 4,0 9,-1 13,-4 3,-4 5,-9 5,-12z"/>
   <path class="fil23" d="M648 402c0,-6 1,-14 2,-22 1,-8 2,-16 3,-22 -3,5 -5,13 -6,21 -1,9 -1,17 1,23z"/>
   <path class="fil23" d="M641 390c-5,-2 -12,-4 -17,-7 -6,-3 -12,-7 -16,-10 3,4 8,9 14,12 7,3 13,5 19,5z"/>
   <path class="fil6" d="M620 351c5,3 13,2 18,-2 1,-1 2,-2 3,-4 0,-1 0,-3 0,-4 -9,1 -19,0 -29,-1 0,2 0,4 1,5 2,3 4,5 7,6z"/>
   <path class="fil17" d="M638 349c-5,4 -13,5 -18,2 -3,-1 -5,-3 -7,-6 0,5 2,9 4,12 4,4 11,6 16,4 3,-2 5,-5 7,-9 1,-2 1,-4 1,-7 -1,2 -2,3 -3,4z"/>
   <path class="fil17" d="M682 318c0,6 -5,11 -11,11 -6,0 -11,-5 -11,-11 0,-6 5,-11 11,-11 6,0 11,5 11,11z"/>
   <path class="fil12" d="M678 318c0,3 -3,6 -7,6 -4,0 -7,-3 -7,-6 0,-4 3,-7 7,-7 4,0 7,3 7,7z"/>
   <path class="fil14" d="M632 270c-10,13 -25,22 -42,26 -1,3 -3,6 -4,9 0,1 0,1 0,1 0,23 18,42 41,42 23,0 42,-19 42,-42 0,-3 0,-6 -1,-10 -9,-12 -22,-23 -36,-26z"/>
   <path class="fil14" d="M592 314c0,6 -5,11 -11,11 -6,0 -11,-5 -11,-11 0,-6 5,-11 11,-11 6,0 11,5 11,11z"/>
   <path class="fil17" d="M587 314c0,4 -3,7 -6,7 -4,0 -7,-3 -7,-7 0,-4 3,-7 7,-7 3,0 6,3 6,7z"/>
   <path class="fil6" d="M612 290c-5,1 -9,4 -11,7 8,-1 15,-2 22,-1 -2,-4 -7,-6 -11,-6z"/>
   <path class="fil6" d="M617 304c0,2 -2,4 -4,4 -2,0 -4,-2 -4,-4 0,-2 2,-4 4,-4 2,0 4,2 4,4z"/>
   <path class="fil6" d="M652 291c4,1 8,4 10,8 -7,-2 -15,-3 -22,-3 3,-3 7,-5 12,-5z"/>
   <path class="fil6" d="M646 305c0,2 1,4 3,4 3,0 4,-2 5,-4 0,-2 -2,-4 -4,-4 -2,0 -4,2 -4,4z"/>
   <path class="fil17" d="M638 316c-4,-1 -8,-1 -12,0 1,2 4,4 6,4 2,0 5,-2 6,-4z"/>
   <path class="fil19" d="M650 324c-11,4 -24,4 -35,1 1,4 3,8 6,11 3,4 8,5 12,5 4,-1 8,-3 11,-6 2,-3 5,-7 6,-11z"/>
   <path class="fil6" d="M510 609l-3 -8 -27 -6 -5 9c5,4 12,7 18,7 6,1 12,0 17,-2z"/>
   <path class="fil17" d="M539 650l-9 -2c-4,-1 -7,-4 -8,-8l-12 -31c-5,2 -11,3 -17,2 -6,0 -13,-3 -18,-7l-3 3c-3,6 -1,13 5,16 6,4 12,9 15,16l5 12c3,6 8,9 14,9l20 0c5,0 9,-3 10,-7 0,-2 -1,-3 -2,-3z"/>
   <path class="fil24" d="M545 436l-61 -25c-52,-22 -98,-28 -123,-23 -2,2 -4,4 -5,6 -10,12 -15,17 -12,32 1,9 160,56 160,56 -7,10 -10,23 -12,35 -1,13 0,25 -2,38 -2,16 -8,32 -16,46 14,10 37,5 37,5l5 -21 46 -107c7,-16 -1,-35 -17,-42z"/>
   <path class="fil6" d="M509 599c-4,-1 -9,-1 -13,-2 -5,-1 -10,-2 -14,-3 3,3 8,6 13,7 5,1 11,0 14,-2z"/>
   <path class="fil6" d="M503 595c-2,0 -4,-1 -5,-2 -2,-1 -4,-2 -6,-2 1,1 3,3 5,4 2,1 4,1 6,0z"/>
   <path class="fil6" d="M446 612c6,0 11,-2 17,-4l-1 -3 -27 -5 -6 9c5,2 11,3 17,3z"/>
   <path class="fil17" d="M494 654l-9 -2c-4,-1 -7,-4 -9,-7l-13 -37c-6,2 -11,4 -17,4 -6,0 -12,-1 -17,-3l-2 3c-4,5 -2,13 4,16l0 0c7,3 12,9 15,15l6 13c2,5 8,9 13,9l21 0c5,0 8,-4 9,-8 1,-1 0,-2 -1,-3z"/>
   <path class="fil13" d="M506 426l-66 -28c-56,-23 -105,-30 -132,-24 -2,2 -4,4 -6,6 -10,13 -14,31 -12,47 2,10 4,20 12,28 0,0 1,1 2,1 10,10 24,15 38,15l120 3c-8,11 -11,25 -13,38 -1,14 -1,27 -3,41 -2,17 -8,34 -17,49 16,11 40,5 40,5l6 -22 49 -114c7,-18 -1,-38 -18,-45z"/>
   <path class="fil24" d="M504 439c-4,1 -8,2 -13,4 -4,2 -9,5 -13,8 -3,4 -7,8 -10,12 -2,4 -4,8 -6,11 5,-6 11,-13 19,-20 7,-6 16,-11 23,-15z"/>
   <path class="fil24" d="M487 436c-3,1 -7,3 -10,6 -3,3 -6,6 -8,10 -2,3 -4,7 -5,11 -1,4 -1,8 -1,11 2,-6 4,-14 9,-21 4,-7 10,-13 15,-17z"/>
   <path class="fil24" d="M346 435c9,-7 22,-16 35,-24 13,-8 27,-14 38,-19 -12,1 -27,6 -41,14 -14,8 -25,19 -32,29z"/>
   <path class="fil24" d="M382 443c4,-6 9,-14 15,-22 5,-8 12,-15 17,-21 -7,4 -14,11 -20,19 -6,8 -10,17 -12,24z"/>
   <path class="fil24" d="M467 599c-5,0 -10,0 -15,0 -5,0 -10,-1 -15,-2 3,3 9,6 15,7 5,0 11,-2 15,-5z"/>
   <path class="fil24" d="M459 597c-2,-1 -4,-2 -7,-3 -3,0 -5,-1 -7,-2 1,2 3,4 6,5 3,1 6,0 8,0z"/>
   <path class="fil17" d="M435 283l40 75 101 11c5,1 10,3 15,6l16 12 -13 11 -21 -3 -8 -8 -93 2c-12,1 -24,-6 -31,-17l-40 -65 34 -24z"/>
   <polygon class="fil6" points="435,283 401,307 407,318 437,287 "/>
   <path class="fil10" d="M395 311l43 -29 -15 -26c-7,-11 -20,-15 -31,-9l0 0c-10,5 -14,17 -10,28l13 36z"/>
   <path class="fil11" d="M433 278c-11,4 -28,12 -37,19 11,-3 27,-12 37,-19z"/>
   <path class="fil11" d="M430 276c-9,1 -24,4 -32,7 9,0 23,-3 32,-7z"/>
   <path class="fil12" d="M467 236c-2,-2 -3,-5 -5,-7 1,9 4,18 8,27 3,-3 6,-6 10,-9 -5,-2 -10,-6 -13,-11z"/>
   <path class="fil6" d="M462 222c0,2 0,5 0,7 2,2 3,5 5,7 3,5 8,9 13,11 3,-3 6,-6 10,-8 -10,-3 -21,-9 -28,-17z"/>
   <path class="fil6" d="M460 208c4,14 9,28 13,42 2,6 4,14 2,21 -2,7 -9,13 -16,15 -8,1 -16,-1 -23,-6 -7,-4 -11,-10 -15,-18 -10,-19 -10,-42 0,-61 8,-16 15,-22 19,-39 1,-7 2,-14 5,-21 2,-5 6,-10 11,-14 13,-10 30,-15 46,-13 16,2 30,11 40,25 10,0 19,10 22,20 3,10 2,21 -1,31 -2,9 -6,19 -7,29 -2,13 0,27 2,40 1,13 1,27 -5,39 -5,12 -18,21 -31,19 -9,-1 -17,-7 -20,-16 -3,-11 0,-22 2,-33 3,-11 3,-23 -4,-31 -11,-12 -26,-23 -40,-29z"/>
   <path class="fil12" d="M539 221c0,7 -5,13 -13,13 -7,0 -13,-6 -13,-13 0,-7 6,-13 13,-13 8,0 13,6 13,13z"/>
   <path class="fil25" d="M534 221c0,5 -3,8 -8,8 -4,0 -7,-3 -7,-8 0,-4 3,-8 7,-8 5,0 8,4 8,8z"/>
   <path class="fil17" d="M531 170c-18,9 -39,9 -58,2 -3,3 -7,6 -11,8l-3 8c-8,20 1,43 21,52l0 0c20,8 44,-1 52,-21l9 -22c0,-1 1,-2 1,-3 -2,-9 -6,-17 -11,-24z"/>
   <path class="fil6" d="M498 181c-5,-1 -10,1 -13,4 8,2 16,3 24,6 -1,-5 -5,-8 -11,-10z"/>
   <path class="fil6" d="M500 197c0,2 -2,4 -4,4 -2,0 -3,-2 -3,-4 0,-2 1,-3 3,-3 2,0 4,1 4,3z"/>
   <path class="fil6" d="M534 195c3,2 5,6 4,10 -5,-3 -10,-6 -16,-8 4,-3 8,-3 12,-2z"/>
   <path class="fil6" d="M527 208c-2,0 -3,2 -3,4 0,2 1,3 2,3 2,-1 3,-2 3,-4 0,-2 -1,-4 -2,-3z"/>
   <path class="fil25" d="M514 221c-4,-3 -8,-6 -12,-6 0,1 0,2 1,3 0,1 1,3 1,4 2,1 3,1 5,1 1,-1 3,-1 5,-2z"/>
   <path class="fil19" d="M508 229c-9,-2 -16,-6 -22,-12 0,3 0,6 1,9 1,3 3,6 6,7 2,2 5,2 8,2 3,-1 5,-3 7,-6z"/>
   <path class="fil17" d="M463 184c0,7 -6,13 -13,13 -7,0 -13,-6 -13,-13 0,-8 6,-13 13,-13 7,0 13,5 13,13z"/>
   <path class="fil12" d="M458 184c0,4 -4,7 -8,7 -5,0 -8,-3 -8,-7 0,-5 3,-8 8,-8 4,0 8,3 8,8z"/>
   <polygon class="fil26" points="282,596 296,657 308,657 308,596 "/>
   <polygon class="fil6" points="308,581 279,581 282,596 308,596 "/>
   <polygon class="fil6" points="974,581 944,581 944,596 970,596 "/>
   <polygon class="fil26" points="944,596 944,657 956,657 970,596 "/>
   <path class="fil27" d="M632 403c14,-13 33,-22 53,-23l-7 -10c-18,2 -40,17 -46,29l0 4 0 0z"/>
   <path class="fil27" d="M632 403l0 -4c0,0 -1,0 -1,0 -5,-7 -21,-18 -55,-21l-5 9c21,-2 43,4 61,16z"/>
   <path class="fil28" d="M685 380c-20,1 -39,10 -53,23l0 9 -1 47c17,-12 35,-22 54,-29 1,-17 3,-34 5,-50 -2,0 -4,0 -5,0z"/>
   <path class="fil29" d="M571 387c-2,0 -4,0 -6,0 6,18 10,36 13,54 17,8 35,14 53,18l1 -47 0 -9c-18,-12 -40,-18 -61,-16z"/>
   <path class="fil14" d="M564 427c-2,-4 -3,-8 -2,-13 1,-4 4,-9 8,-11l1 4c1,-2 4,-2 6,-2 2,0 4,1 5,2 1,2 2,5 2,7 0,3 0,5 -1,8 0,2 -1,4 -3,6 -2,2 -5,3 -7,3 -3,0 -7,-2 -9,-4z"/>
   <path class="fil30" d="M624 468c-8,-4 -13,-12 -14,-21 22,-13 44,-26 66,-41 11,-6 25,-3 32,8 0,0 0,1 0,1 7,12 1,27 -12,31 -23,9 -47,15 -72,22z"/>
   <path class="fil31" d="M695 438l-72 29c0,1 1,1 1,1 25,-7 49,-13 72,-22 12,-4 18,-18 13,-29 0,9 -5,17 -14,21z"/>
   <path class="fil31" d="M670 448l0 -1c-1,-2 -3,-4 -5,-5l0 -2c0,-3 -2,-7 -5,-8l-2 0c-1,0 -3,0 -3,2l-3 4 -14 5 -18 -1 -1 0c-3,2 -6,4 -9,5 1,9 6,17 14,21 15,-4 30,-8 45,-13 1,-2 1,-5 1,-7z"/>
   <path class="fil14" d="M634 450l20 -9 1 -4c1,-1 3,-2 4,-1l0 0c3,2 3,6 2,8l0 0c2,0 4,2 3,4l-1 6c0,4 -2,7 -4,11l-1 2c-1,2 -3,2 -4,2l-5 -1 -20 -1 5 -17z"/>
   <path class="fil6" d="M635 449l-1 1 -5 17 5 0c1,-4 3,-9 1,-18z"/>
   <path class="fil30" d="M627 470c6,-5 9,-14 8,-23 -25,-8 -49,-15 -74,-24 -12,-4 -25,3 -29,15 0,0 0,1 0,1 -3,13 6,26 19,28 25,2 50,3 76,3z"/>
   <path class="fil31" d="M551 460c-10,-1 -19,-10 -19,-21l0 0c-3,13 6,26 19,28 25,2 50,3 76,3 1,-1 2,-2 3,-4l-79 -6z"/>
  </g>
 </g>
</svg>
