<?xml version="1.0" encoding="UTF-8"?>
<!DOCTYPE svg PUBLIC "-//W3C//DTD SVG 1.1//EN" "http://www.w3.org/Graphics/SVG/1.1/DTD/svg11.dtd">
<!-- Creator: CorelDRAW X8 -->
<svg xmlns="http://www.w3.org/2000/svg" xml:space="preserve" width="0.833339in" height="0.845441in" version="1.1" style="shape-rendering:geometricPrecision; text-rendering:geometricPrecision; image-rendering:optimizeQuality; fill-rule:evenodd; clip-rule:evenodd"
viewBox="0 0 552 560"
 xmlns:xlink="http://www.w3.org/1999/xlink">
 <defs>
  <style type="text/css">
   <![CDATA[
    .fil21 {fill:#FEFEFE;fill-rule:nonzero}
    .fil1 {fill:#FAB99A;fill-rule:nonzero}
    .fil0 {fill:#F9AE8D;fill-rule:nonzero}
    .fil27 {fill:#F59BAC;fill-rule:nonzero}
    .fil32 {fill:#F49BC1;fill-rule:nonzero}
    .fil10 {fill:#F58F80;fill-rule:nonzero}
    .fil18 {fill:#F37E85;fill-rule:nonzero}
    .fil16 {fill:#F16A78;fill-rule:nonzero}
    .fil15 {fill:#EF5260;fill-rule:nonzero}
    .fil53 {fill:#EC5F48;fill-rule:nonzero}
    .fil51 {fill:#F3F7E6;fill-rule:nonzero}
    .fil29 {fill:#F1EBED;fill-rule:nonzero}
    .fil19 {fill:#F0E6D5;fill-rule:nonzero}
    .fil8 {fill:#E9F6FD;fill-rule:nonzero}
    .fil5 {fill:#E59C84;fill-rule:nonzero}
    .fil12 {fill:#E7D3B2;fill-rule:nonzero}
    .fil17 {fill:#DF6471;fill-rule:nonzero}
    .fil30 {fill:#DA6939;fill-rule:nonzero}
    .fil52 {fill:#DADED0;fill-rule:nonzero}
    .fil25 {fill:#DA9F79;fill-rule:nonzero}
    .fil36 {fill:#CD9276;fill-rule:nonzero}
    .fil6 {fill:#CBA885;fill-rule:nonzero}
    .fil49 {fill:#AD704C;fill-rule:nonzero}
    .fil9 {fill:#B78E6D;fill-rule:nonzero}
    .fil23 {fill:#B17967;fill-rule:nonzero}
    .fil26 {fill:#872F30;fill-rule:nonzero}
    .fil45 {fill:#9A5F39;fill-rule:nonzero}
    .fil28 {fill:#9A633A;fill-rule:nonzero}
    .fil42 {fill:#975D47;fill-rule:nonzero}
    .fil22 {fill:#7D4931;fill-rule:nonzero}
    .fil54 {fill:#794430;fill-rule:nonzero}
    .fil38 {fill:#99DBF8;fill-rule:nonzero}
    .fil20 {fill:#A2908C;fill-rule:nonzero}
    .fil44 {fill:#6E4732;fill-rule:nonzero}
    .fil41 {fill:#754F41;fill-rule:nonzero}
    .fil40 {fill:#65443A;fill-rule:nonzero}
    .fil50 {fill:#84545D;fill-rule:nonzero}
    .fil34 {fill:#5A2D37;fill-rule:nonzero}
    .fil11 {fill:#493731;fill-rule:nonzero}
    .fil37 {fill:#6FCAEF;fill-rule:nonzero}
    .fil43 {fill:#5A4744;fill-rule:nonzero}
    .fil24 {fill:#453630;fill-rule:nonzero}
    .fil39 {fill:#3A2F2D;fill-rule:nonzero}
    .fil35 {fill:#442D35;fill-rule:nonzero}
    .fil33 {fill:#716375;fill-rule:nonzero}
    .fil14 {fill:#5E869F;fill-rule:nonzero}
    .fil3 {fill:#3F4347;fill-rule:nonzero}
    .fil2 {fill:#282828;fill-rule:nonzero}
    .fil7 {fill:#418FBF;fill-rule:nonzero}
    .fil48 {fill:#505277;fill-rule:nonzero}
    .fil46 {fill:#25A065;fill-rule:nonzero}
    .fil31 {fill:#2A8CA1;fill-rule:nonzero}
    .fil47 {fill:#219460;fill-rule:nonzero}
    .fil4 {fill:#2781B2;fill-rule:nonzero}
    .fil13 {fill:#303F5E;fill-rule:nonzero}
   ]]>
  </style>
 </defs>
 <g id="Layer_x0020_1">
  <metadata id="CorelCorpID_0Corel-Layer"/>
  <g id="_1216201353328">
   <path class="fil0" d="M471 211c-11,5 -22,9 -33,10 -3,0 -6,-1 -9,-1 -10,-1 -19,-5 -27,-10 -10,-7 -18,-16 -24,-26 -4,-8 -10,-15 -12,-23 -1,-4 -1,-9 0,-13 0,-4 3,-10 7,-11 6,-2 12,3 16,7 8,9 13,20 20,30 6,9 14,17 25,21 9,2 18,2 27,-1 4,-1 9,-2 13,-4 5,-2 9,-5 14,-6 2,0 3,0 5,0 1,1 2,2 2,3 2,3 2,7 -1,10 -1,2 -3,3 -5,4 -6,3 -12,7 -18,10z"/>
   <path class="fil1" d="M341 476c1,3 3,6 5,8 3,1 7,2 10,1 1,-1 2,-1 2,-2 1,0 1,-1 2,-2 1,-3 1,-5 1,-8 -1,-3 -1,-6 -2,-8 -2,-3 -6,-5 -9,-4 -3,1 -6,3 -8,5 -2,2 -2,7 -1,10z"/>
   <path class="fil1" d="M285 476c1,3 4,6 7,8 3,1 7,2 11,1 1,-1 2,-1 2,-2 1,0 2,-1 2,-2 1,-3 1,-5 1,-8 0,-3 0,-6 -2,-8 -2,-3 -6,-5 -10,-4 -4,1 -7,3 -10,5 -2,2 -2,7 -1,10z"/>
   <path class="fil0" d="M171 227c11,4 22,7 34,6 3,0 6,0 8,-1 10,-2 19,-7 27,-13 9,-7 16,-17 21,-28 4,-7 8,-15 10,-24 1,-4 1,-8 -1,-12 -1,-4 -4,-10 -8,-11 -6,-1 -12,5 -15,9 -8,9 -12,21 -17,31 -6,9 -14,19 -24,23 -8,4 -18,4 -27,2 -4,0 -9,-2 -13,-3 -5,-1 -10,-3 -15,-4 -1,0 -3,0 -4,0 -1,1 -2,2 -2,3 -2,3 -1,7 1,10 2,2 4,3 6,3 6,3 12,7 19,9z"/>
   <path class="fil2" d="M404 505c-1,-2 -3,-3 -5,-5 -10,-6 -20,-12 -27,-21 -2,-1 -3,-4 -4,-6 0,-2 -1,-3 -3,-4 -2,0 -4,0 -6,1 -1,0 -2,1 -3,1 -1,1 -2,3 -2,4 0,0 0,0 0,0 0,1 0,1 -1,1 -1,1 -3,2 -5,2 -3,-1 -6,-5 -8,-8 0,0 -1,2 -1,3 0,1 0,2 0,3 -1,3 -1,7 -1,10 0,3 3,4 4,6 3,2 7,4 11,7 7,4 14,8 21,12 3,1 7,3 10,4 3,1 6,1 10,1 2,0 4,0 6,-1 3,-2 5,-7 4,-10z"/>
   <path class="fil2" d="M279 498c0,-4 -1,-30 7,-27 1,0 2,1 2,1 1,1 3,1 4,1 4,0 7,0 11,0 0,0 1,0 2,-1 1,0 1,-1 2,-1 1,-1 2,-1 3,-1 1,1 1,2 1,3 0,1 0,2 0,3 1,7 2,13 3,20 0,3 0,6 -1,9 -2,3 -6,5 -9,5 -5,1 -11,1 -15,0 -3,-1 -6,-2 -8,-4 -2,-2 -2,-5 -2,-8z"/>
   <path class="fil3" d="M278 372c0,24 2,43 2,74 0,4 0,8 0,13 0,3 0,6 0,9 0,1 0,3 1,4 1,1 2,1 3,1 7,2 14,2 21,2 2,0 4,0 5,-1 5,-3 4,-10 4,-14 -1,-6 0,-12 0,-17 0,-11 0,-22 1,-33 2,-23 4,-45 7,-67 2,-22 4,-44 5,-66 0,-1 0,-1 0,-2 -6,-3 -12,-1 -19,-1 -8,0 -25,-18 -28,-7 -4,12 -3,26 -3,38 1,22 1,44 1,67z"/>
   <path class="fil3" d="M373 372c0,24 -1,43 -1,74 0,7 0,15 0,22 0,1 0,3 -1,4 -1,6 -8,7 -14,6 -3,0 -6,0 -9,0 -2,0 -4,0 -5,-1 -2,-1 -4,-2 -5,-4 -1,-4 0,-11 0,-15 0,-6 0,-11 0,-17 0,-11 -1,-22 -2,-34 -2,-22 -4,-44 -6,-66 -2,-11 -3,-22 -4,-33 0,-6 -1,-11 -1,-17 0,-1 -2,-15 -1,-16 7,-3 13,-1 20,-1 8,0 24,-18 28,-7 4,12 3,26 2,38 -1,22 0,44 -1,67z"/>
   <path class="fil4" d="M290 115c-5,-3 -11,-2 -16,0 -16,9 -26,25 -33,41 -9,18 -23,40 -41,51 -1,1 -2,1 -2,2 -1,1 -1,3 -1,5 1,5 2,11 2,17 0,1 1,3 2,4 1,1 3,2 4,2 13,0 25,-6 35,-14 14,-12 23,-29 33,-44 11,-18 41,-44 17,-64z"/>
   <path class="fil4" d="M381 195c-7,-9 -8,-20 -13,-29 -5,-11 -8,-22 -8,-33 -1,-4 0,-9 2,-12 11,-13 36,31 40,38 1,0 1,1 2,2 5,9 11,17 19,24 8,7 19,12 29,10 5,4 4,12 0,17 -3,5 -9,9 -15,11 -4,1 -7,2 -11,2 -10,0 -16,-7 -24,-11 -8,-6 -15,-11 -21,-19z"/>
   <path class="fil5" d="M356 63c-3,7 -1,14 3,15 4,2 10,-2 13,-8 3,-7 1,-13 -3,-15 -5,-2 -10,2 -13,8z"/>
   <path class="fil6" d="M369 26c-3,-13 -16,-20 -28,-23 -21,-4 -54,-2 -61,24 -2,7 -1,14 -1,22 0,2 2,21 3,22l43 4c0,0 0,-1 0,-1 7,-1 13,-1 19,-2 5,0 10,0 15,-1 3,0 5,0 7,-1 1,0 2,-2 2,-4 2,-13 5,-27 1,-40z"/>
   <path class="fil7" d="M315 301c10,0 21,-1 31,-3 8,-1 17,-1 24,-5 16,-10 17,-36 18,-53 0,-16 -1,-31 -2,-46 -1,-15 -1,-31 -5,-46 -3,-12 -7,-26 -18,-33 -6,-5 -18,-5 -26,-6 -10,-1 -21,-1 -31,0 -9,0 -18,1 -25,7 -7,6 -9,16 -11,25 -4,21 -5,43 -5,64 0,14 0,27 1,40 0,20 4,44 26,52 7,3 15,4 23,4z"/>
   <path class="fil8" d="M309 112c4,5 9,8 15,8 5,1 11,0 15,-2 3,-2 6,-5 9,-8 2,1 5,1 8,2 -1,7 -8,18 -9,20 -2,4 -6,8 -9,12 -2,1 -14,13 -15,12 -9,-8 -16,-17 -22,-28 -3,-6 -5,-12 -6,-18 4,-1 7,-1 11,-1l1 0c1,1 1,2 2,3z"/>
   <path class="fil1" d="M348 110c1,8 -6,14 -12,17 -4,1 -8,1 -12,1 -10,-1 -20,-10 -21,-19 1,0 2,0 3,0 10,-1 21,-1 31,0 3,1 7,1 11,1z"/>
   <polygon class="fil5" points="309,113 342,113 342,102 309,102 "/>
   <path class="fil5" d="M309 113c0,4 8,8 17,8 9,0 16,-4 16,-8 0,-4 -7,-7 -16,-7 -9,0 -17,3 -17,7z"/>
   <path class="fil5" d="M293 62c2,7 1,14 -4,15 -4,2 -10,-2 -12,-8 -3,-7 -1,-14 3,-15 5,-2 10,2 13,8z"/>
   <path class="fil1" d="M284 64c0,28 18,50 40,50 22,1 40,-21 40,-49 1,-27 -14,-56 -39,-56 -25,1 -40,27 -41,55z"/>
   <path class="fil0" d="M329 109c-22,0 -40,-23 -39,-50 0,-16 5,-31 14,-41 -12,10 -19,28 -20,46 0,28 18,50 40,50 11,1 21,-5 28,-14 -7,6 -15,9 -23,9z"/>
   <path class="fil9" d="M337 52c1,-1 3,-1 5,-1 2,0 4,0 6,1 1,0 2,0 3,1 0,0 1,0 1,0l3 -4c-1,0 -2,-1 -3,-1 -3,-1 -7,-2 -10,-2 -3,0 -5,0 -6,1l1 5z"/>
   <path class="fil10" d="M358 75c0,3 -4,5 -8,4 -4,0 -8,-2 -8,-4 0,-3 4,-5 8,-5 4,0 8,3 8,5z"/>
   <path class="fil11" d="M341 60c0,3 1,5 3,5 2,0 4,-2 4,-5 0,-3 -2,-5 -3,-5 -2,0 -4,2 -4,5z"/>
   <path class="fil9" d="M315 46c-1,-1 -2,-1 -3,-1 -1,0 -2,0 -4,0 -3,0 -6,0 -9,1 -1,0 -2,0 -3,0 -2,1 -3,1 -4,2l3 4c1,0 1,0 2,-1 3,0 7,-1 11,-1 1,0 2,0 3,0 1,0 2,0 2,1l2 -5z"/>
   <path class="fil10" d="M291 73c0,2 3,5 8,5 4,0 7,-2 7,-5 0,-2 -3,-4 -7,-4 -4,-1 -8,1 -8,4z"/>
   <path class="fil11" d="M308 58c0,3 -1,5 -3,5 -2,0 -3,-2 -3,-5 0,-3 1,-5 3,-5 2,0 3,2 3,5z"/>
   <path class="fil5" d="M327 77c0,0 1,1 0,2 -1,1 -3,1 -4,0 -1,0 -4,-1 -4,-3 0,-1 1,-1 2,-1 1,0 2,0 4,0 0,1 1,1 2,1l0 1z"/>
   <path class="fil5" d="M311 89l-2 1 2 0c0,0 0,0 0,-1l-2 1 2 0 -2 0 2 1c0,-1 0,-1 0,-1l-2 0 2 1 -2 -1 1 2c1,-1 1,-1 1,-1l-2 -1 1 2 -1 -2 0 2c1,0 1,0 1,0l-1 -2 0 2 0 -2 0 2c0,0 0,0 0,0l0 -2 0 2 0 -2 0 2c0,0 0,0 0,0l0 -2 0 2 0 -2 0 1 0 1 0 -2 0 1 0 0 0 0 0 0 0 0 0 0c0,1 0,1 0,1 2,1 7,4 16,4 0,0 0,0 1,0 5,0 9,-1 11,-2 1,0 2,-1 3,-1 0,0 0,-1 1,-1l0 0 0 0 -1 -1 1 1 0 0 -1 -1 1 1 -1 -1 1 1 0 0 -1 -1 1 1 -1 -1 1 1 0 0 -1 -1 1 1 -1 -1 1 1 0 0 -1 -1 1 1 -1 -1 0 1c0,0 0,0 1,0l-1 -1 0 1 -1 -3c0,0 0,0 0,0 0,0 0,0 0,0l0 0c0,0 -1,1 -1,1 -2,1 -6,3 -12,3 -1,0 -1,0 -1,0 -5,-1 -9,-2 -11,-3 -1,0 -2,0 -3,-1 0,0 0,0 0,0l-1 0 0 0 0 -1 0 0c0,0 0,0 -1,0 0,0 0,0 0,0 0,0 -1,1 -1,1 0,0 0,1 0,1 0,0 0,0 0,1l3 -2z"/>
   <path class="fil6" d="M311 79c-4,0 -14,1 -14,6 0,1 1,2 2,3 1,0 3,0 4,0 3,1 7,1 10,1 4,0 9,0 12,-3 1,-1 2,-3 1,-4 -2,-4 -11,-3 -14,-3 0,0 0,0 -1,0z"/>
   <path class="fil6" d="M341 80c3,1 6,1 9,3 0,1 0,1 1,1 0,2 -1,3 -3,3 -2,1 -4,1 -7,2 -4,0 -7,0 -11,-1 -4,0 -11,-3 -6,-7 5,-3 11,-1 17,-1z"/>
   <path class="fil6" d="M347 99c0,0 0,-1 -1,-2 0,-1 -2,-1 -3,-1 -2,0 -3,1 -4,1 -6,3 -13,4 -20,3 -5,-1 -9,-5 -14,-5 0,0 -1,0 -1,1 -5,3 2,13 4,16 3,6 8,17 16,18 3,0 6,-1 9,-3 8,-7 14,-17 14,-28z"/>
   <path class="fil12" d="M318 0c11,1 23,4 32,10 2,1 3,3 3,5 0,2 -3,3 -5,4 -21,5 -49,5 -69,-6 0,0 6,-4 7,-4 8,-6 18,-9 28,-9l1 0c1,0 2,0 3,0z"/>
   <path class="fil5" d="M98 424c6,5 5,15 3,23 -3,18 -4,37 -4,55 0,1 0,1 0,2 0,11 3,20 13,27 7,4 14,6 22,9 1,0 2,1 4,2 1,0 2,2 1,3 0,0 0,0 0,0 -2,1 -4,1 -6,1 -4,0 -8,0 -12,0 -3,0 -6,0 -8,0 -4,0 -7,-1 -10,0 -3,0 -7,0 -11,0 -4,0 -8,0 -12,-2 -1,0 -2,-2 -3,-3 0,-1 0,-2 0,-3 -1,-3 0,-6 0,-8 1,-7 3,-13 3,-19 0,-8 -1,-15 -2,-22 -1,-11 -3,-22 -5,-32 -2,-8 -4,-15 -4,-23 0,-1 0,-3 1,-5 1,-2 4,-5 6,-7 2,-1 5,-1 7,-1 2,0 3,-1 5,-1 3,0 9,1 12,4z"/>
   <path class="fil0" d="M165 231c7,-1 7,13 5,16 -4,7 -16,11 -22,14 -9,3 -18,7 -26,10 -10,4 -18,-4 -24,-12 -7,-9 -25,-31 -6,-40 3,-2 8,0 10,3 6,12 2,29 21,28 6,-1 12,-3 17,-6 7,-4 14,-7 21,-11 1,-1 3,-2 4,-2z"/>
   <path class="fil13" d="M126 537c3,1 5,1 8,2 1,1 2,1 3,2 2,2 2,5 -1,6 -1,0 -2,0 -4,0 -11,0 -22,0 -34,0 -4,0 -16,0 -24,0 -2,-1 -4,-5 -4,-8 0,-5 2,-12 6,-14 0,2 1,5 2,6 2,2 5,3 7,4 8,3 17,4 25,3 3,0 7,0 9,-2 1,0 1,-1 1,-1 0,0 5,1 6,2z"/>
   <path class="fil13" d="M11 553c1,1 2,2 4,2 8,3 23,2 26,-9 1,-3 1,-7 0,-11 -1,-1 -1,-3 -3,-4 0,0 -1,0 -2,-1 -8,-1 -15,1 -22,5 -2,2 -4,4 -5,7 -3,4 -2,8 2,11z"/>
   <path class="fil12" d="M110 109c0,-1 0,-2 -1,-3 -2,-6 -4,-11 -7,-17 -2,-5 -7,-8 -12,-10 -3,-2 -6,-3 -10,-4 -16,-4 -34,-1 -48,8 -18,12 -27,34 -23,55 3,21 19,37 40,40 18,3 40,0 54,-14 13,-15 12,-37 7,-55z"/>
   <path class="fil1" d="M38 540c0,-1 0,-1 0,-2 1,-5 -1,-9 -1,-14 0,-4 1,-9 1,-14 1,-7 2,-14 4,-20 2,-14 6,-28 6,-42 0,-6 0,-12 1,-18 0,-5 -1,-11 -4,-15 -3,-4 -8,-6 -13,-5 -4,2 -8,6 -10,10 -2,3 -4,7 -4,12 -1,3 -1,6 -1,9 1,13 2,25 4,38 0,6 1,13 1,19 0,7 0,13 0,19 -1,5 -2,11 -6,16 -1,1 -2,3 -3,4 -6,11 14,10 19,8 3,-1 5,-2 6,-5z"/>
   <polygon class="fil14" points="108,445 11,445 6,349 113,349 "/>
   <path class="fil15" d="M120 255c0,8 -1,19 -6,20 -1,0 -2,0 -2,-1 -8,-3 -12,-11 -15,-18 -5,-10 -9,-19 -11,-30 -1,-9 -1,-18 4,-26 0,-1 0,-1 1,-2 2,-1 5,0 6,1 1,1 2,3 3,4 2,5 4,9 6,13 2,7 4,13 6,19 1,3 2,6 3,9 1,2 4,3 5,5 0,0 0,1 0,1 0,1 0,3 0,5z"/>
   <polygon class="fil5" points="49,189 69,190 70,170 51,169 "/>
   <path class="fil16" d="M86 355c-24,3 -49,2 -73,1 -2,0 -4,-1 -5,-1 -2,-1 -3,-4 -4,-6 -1,-5 1,-10 1,-16 0,-8 1,-17 2,-26 2,-16 5,-33 9,-49 2,-10 4,-21 4,-32 0,-13 -7,-28 7,-36 5,-3 11,-4 17,-5 5,0 10,-1 16,-1 8,-2 16,-1 24,3 21,9 22,44 22,64 0,1 0,3 0,4 -1,2 -3,4 -4,6 -6,10 2,23 5,33 3,16 7,32 8,48 0,7 -4,10 -11,11 -6,1 -12,1 -18,2z"/>
   <path class="fil5" d="M70 218c0,0 -23,-22 -29,-32 1,-1 2,-1 3,-1 5,0 10,-1 16,-1 5,-1 10,-1 15,0 0,10 -5,34 -5,34z"/>
   <path class="fil17" d="M53 262c-2,0 -3,0 -5,0 -2,-1 -3,-1 -5,-2 -6,-4 -3,-12 4,-13 1,0 3,-1 5,-1 0,0 1,0 1,0 5,0 11,1 16,2 2,1 4,1 6,1 3,0 7,-1 10,-1 1,-1 3,-1 5,-1 3,0 6,1 7,3 1,5 -7,8 -10,9 -2,0 -4,0 -6,0 -1,0 -1,0 -1,0 0,0 -1,0 -1,0 -1,0 -2,0 -3,0 -7,0 -15,3 -23,3z"/>
   <path class="fil1" d="M38 332c2,4 5,8 5,13 0,3 -1,6 -5,6 -3,-1 -6,-3 -9,-6 -11,-13 -19,-31 -22,-48 -2,-12 -4,-27 -2,-40 2,-11 2,-23 5,-34 1,-8 3,-18 12,-20 4,-1 8,1 9,5 1,2 0,4 0,6 -1,5 -2,11 -4,16 -3,18 -8,35 -6,54 1,13 6,26 11,38 2,3 4,6 6,10z"/>
   <path class="fil15" d="M16 201c0,-1 1,-3 2,-4 3,-4 9,-9 15,-4 2,2 2,4 2,6 3,17 -5,35 -9,51 -3,8 -4,18 -4,27 1,2 3,25 5,25 -4,0 -9,0 -13,1 -2,1 -6,4 -8,3 -1,0 -3,-3 -3,-4 -2,-5 -3,-11 -3,-16 0,-8 1,-15 2,-23 2,-20 3,-44 14,-62z"/>
   <path class="fil18" d="M74 157c0,0 0,0 -1,0 -3,0 -7,1 -10,1 -3,0 -6,-1 -7,-3 2,4 4,8 9,10 5,2 11,0 15,-5 0,0 1,-3 2,-3 -3,0 -5,0 -8,0z"/>
   <path class="fil5" d="M105 139c-2,6 -7,9 -11,8 -4,-2 -6,-8 -4,-14 3,-6 8,-9 12,-8 4,1 5,8 3,14z"/>
   <path class="fil5" d="M15 138c3,6 8,10 12,9 4,-2 5,-8 3,-14 -2,-6 -7,-9 -11,-8 -4,1 -6,7 -4,13z"/>
   <path class="fil1" d="M100 125c-1,30 -20,54 -42,53 -22,-2 -38,-27 -37,-57 2,-30 21,-54 42,-53 22,1 39,27 37,57z"/>
   <path class="fil0" d="M64 171c-22,0 -39,-25 -39,-55 0,-12 3,-23 8,-32 -7,10 -12,23 -12,38 0,31 17,55 39,56 13,0 25,-9 32,-23 -7,10 -17,17 -28,16z"/>
   <path class="fil12" d="M105 101c0,-10 -2,-19 -10,-27 -10,-9 -25,-13 -38,-8 -2,0 -4,1 -6,2l0 1c-9,-1 -18,0 -24,6 -5,5 -8,12 -8,19 0,4 -1,8 0,11 0,4 1,7 1,11 0,-8 3,-18 10,-22 3,-1 6,-1 8,-1 10,0 20,6 29,11 11,6 21,13 32,19 0,1 1,1 1,1 7,0 6,-17 6,-20 0,-1 -1,-2 -1,-3z"/>
   <path class="fil19" d="M73 76c15,4 27,16 32,31 0,-3 1,-6 1,-6 2,-9 -4,-20 -11,-27 -10,-9 -25,-13 -38,-8 -2,0 -4,1 -6,2l0 1c-9,-1 -18,0 -24,6 -5,5 -8,12 -8,19 0,2 0,4 0,6 9,-19 32,-30 54,-24z"/>
   <path class="fil20" d="M77 119c1,0 2,-1 3,-1 3,0 7,1 9,3l2 -3c-3,-2 -7,-3 -11,-3 -1,0 -3,0 -4,1l1 3z"/>
   <path class="fil10" d="M94 141c0,3 -3,5 -8,5 -4,0 -7,-3 -7,-5 0,-3 3,-5 7,-5 5,0 8,3 8,5z"/>
   <path class="fil11" d="M77 128c0,3 2,5 4,5 1,0 3,-2 3,-5 0,-3 -2,-5 -3,-5 -2,0 -4,2 -4,5z"/>
   <path class="fil20" d="M46 115c-2,0 -3,-1 -5,-1 -3,0 -7,1 -10,3l2 3c2,-1 5,-2 8,-2 2,0 3,0 4,0l1 -3z"/>
   <path class="fil10" d="M27 140c0,3 4,5 8,5 4,0 8,-2 8,-5 0,-2 -4,-4 -8,-4 -4,0 -8,2 -8,4z"/>
   <path class="fil11" d="M44 127c0,3 -1,6 -3,6 -2,0 -3,-3 -3,-6 0,-2 1,-5 3,-5 2,0 3,3 3,5z"/>
   <path class="fil5" d="M58 146c-1,0 -1,1 0,2 1,1 3,0 4,0 1,0 4,-2 4,-4 0,-1 -1,-1 -2,-1 -2,0 -3,1 -4,1 -1,1 -1,1 -2,1l0 1z"/>
   <path class="fil21" d="M63 163c-7,0 -15,-3 -16,-7l0 -1 0 0c0,0 5,1 15,1 11,0 15,-1 15,-1l0 0c-1,2 -2,4 -4,5 -2,1 -6,2 -10,3z"/>
   <path class="fil1" d="M51 346c-2,-2 -3,-3 -5,-4 -2,-1 -4,-1 -5,-2 -2,0 -3,-2 -5,-2 -5,0 -6,7 -6,11 0,3 1,7 2,10 1,3 2,7 5,9 3,3 8,3 12,3 1,0 1,0 1,0 1,0 1,0 1,-1 1,1 3,1 5,2 0,0 1,0 1,0 0,0 0,-1 0,-1 1,1 3,2 5,1 0,0 1,0 1,0 0,0 0,-1 -1,-1 -2,-2 -3,-4 -4,-6 -2,-2 -5,-5 -6,-7 1,1 2,2 3,3 1,1 2,2 3,2 0,1 1,1 1,0 1,0 1,-1 1,-1 0,-1 0,-2 -1,-2 -1,-3 -2,-6 -3,-8 -1,-3 -3,-5 -5,-6z"/>
   <path class="fil11" d="M55 131l-1 0c0,3 -2,6 -4,8 -2,2 -5,4 -8,4 -3,0 -6,-2 -8,-4 -2,-2 -4,-5 -4,-8 0,-3 2,-6 4,-8 2,-2 5,-4 8,-4 3,0 6,2 8,4 2,2 4,5 4,8l3 0c0,-8 -7,-15 -15,-15 -8,0 -15,7 -15,15 0,8 7,15 15,15 8,0 15,-7 15,-15l-2 0z"/>
   <path class="fil11" d="M94 131l-2 0c0,3 -2,6 -4,8 -2,2 -5,4 -8,4 -3,0 -6,-2 -8,-4 -2,-2 -3,-5 -3,-8 0,-3 1,-6 3,-8 2,-2 5,-4 8,-4 3,0 6,2 8,4 2,2 4,5 4,8l3 0c0,-8 -7,-15 -15,-15 -8,0 -15,7 -15,15 0,8 7,15 15,15 8,0 15,-7 15,-15l-1 0z"/>
   <path class="fil11" d="M56 132c2,-1 4,-2 5,-2 2,0 4,1 5,2l2 -3c-2,-2 -4,-2 -7,-2 -2,0 -5,0 -7,2l2 3z"/>
   <polygon class="fil11" points="30,129 22,122 20,124 27,132 "/>
   <polygon class="fil11" points="95,132 102,127 100,124 92,130 "/>
   <path class="fil22" d="M341 403c3,-5 3,-12 3,-19 -1,-8 -2,-15 -3,-23 0,-2 -1,-5 -2,-6 -1,-1 -2,-2 -3,-3 -12,-6 -24,-10 -37,-11 -10,-1 -22,0 -30,8 -7,7 -10,20 -11,32 0,3 0,6 -1,8 0,2 -1,4 -2,6 -1,2 -3,3 -1,4 2,1 4,2 6,2 2,1 5,2 8,3 10,2 20,4 30,5 5,0 10,1 15,1 3,0 5,0 8,0 2,0 5,0 7,0 1,0 2,-1 3,-1 2,0 4,-1 6,-2 1,-1 3,-2 4,-4z"/>
   <polygon class="fil5" points="292,401 308,402 308,389 293,388 "/>
   <path class="fil1" d="M261 352c-1,22 16,40 39,42 22,1 41,-16 42,-37 2,-22 -16,-40 -38,-41 -22,-2 -41,15 -43,36z"/>
   <path class="fil23" d="M289 340c-1,0 -3,0 -5,0 -2,0 -5,0 -8,2l1 1c2,-1 5,-2 7,-2 2,0 3,1 4,1l1 -2z"/>
   <path class="fil10" d="M272 361c0,2 3,4 6,5 4,0 7,-2 7,-4 0,-2 -2,-4 -6,-4 -4,-1 -7,1 -7,3z"/>
   <path class="fil24" d="M287 352c0,2 -1,3 -3,3 -1,0 -3,-2 -3,-4 1,-2 2,-4 4,-4 1,1 2,2 2,5z"/>
   <path class="fil23" d="M319 344c1,0 2,0 3,0 3,0 6,1 8,2l1 -1c-2,-2 -6,-3 -9,-3 -1,0 -2,0 -3,0l0 2z"/>
   <path class="fil10" d="M333 365c0,2 -3,4 -7,4 -3,-1 -6,-3 -6,-5 0,-2 3,-4 7,-4 4,1 7,3 6,5z"/>
   <path class="fil24" d="M319 354c0,2 1,4 3,4 1,0 3,-2 3,-4 0,-2 -1,-4 -3,-4 -1,0 -3,1 -3,4z"/>
   <path class="fil25" d="M301 361c-1,1 -1,2 -1,2 1,1 3,1 4,1 1,0 4,-1 4,-3 0,-1 -1,-1 -2,-1 -1,0 -2,0 -4,0 0,1 -1,1 -1,1l0 0z"/>
   <path class="fil26" d="M299 387c8,1 16,-4 18,-12l0 -1c0,0 1,0 1,0 0,0 -6,2 -17,1 -11,0 -16,-3 -16,-3l0 1c1,3 2,6 4,8 2,3 6,5 10,6z"/>
   <path class="fil21" d="M291 377c3,1 7,1 10,1 3,1 6,0 8,0 2,0 5,-1 6,-3 -3,0 -8,1 -14,0 -7,0 -11,-1 -13,-2 0,2 1,3 3,4z"/>
   <path class="fil27" d="M309 385l0 0c-1,-1 -3,-1 -4,-2 -3,0 -7,0 -10,0 -1,0 -2,1 -3,1 2,1 4,2 7,3l0 0c4,0 7,-1 10,-2z"/>
   <path class="fil1" d="M262 356c2,3 1,6 -1,7 -2,1 -4,-1 -6,-4 -1,-4 -1,-7 1,-8 2,-1 5,1 6,5z"/>
   <path class="fil0" d="M303 391c-23,-1 -40,-20 -39,-41 1,-9 5,-18 10,-24 -7,7 -12,16 -13,27 -1,21 16,40 39,41 13,0 25,-5 33,-14 -8,7 -19,11 -30,11z"/>
   <path class="fil28" d="M276 336c4,-4 9,-8 13,-13 4,-6 7,-16 4,-23 -3,-9 -12,-6 -18,-2 -9,5 -16,14 -19,24 -2,7 -2,14 -3,21 -1,15 2,33 -7,46 -1,1 -3,2 -4,2 0,0 0,0 0,0 3,3 6,5 9,7 3,2 7,3 10,4 0,0 -1,-2 -1,-3 -1,-2 0,-4 0,-7 0,-5 1,-11 1,-16 0,-1 0,-2 0,-2 0,-6 -1,-11 1,-16 0,-1 0,-3 1,-4 3,-7 8,-13 13,-18z"/>
   <path class="fil28" d="M350 344c-1,1 -1,3 -1,4 0,8 -1,16 -1,23 0,5 0,9 1,14 1,3 1,7 4,10 1,1 2,4 3,4 -4,1 -6,1 -10,2 0,0 -11,1 -11,0 3,-7 4,-13 5,-20 0,-6 1,-13 2,-19 1,-5 1,-9 0,-13 -2,-5 -5,-8 -8,-11 -10,-7 -20,-13 -31,-17 -4,-1 -10,-2 -13,-5 -3,-4 -4,-11 -2,-16 2,-6 8,-8 13,-8 14,0 32,4 41,18 7,10 8,22 8,34z"/>
   <path class="fil1" d="M271 506c-1,2 -3,4 -4,7 -2,2 -6,6 -4,9 1,2 4,3 6,2 2,0 3,-1 4,-3 4,-3 7,-7 10,-12 5,-5 8,-11 9,-19 1,-3 1,-7 1,-10 0,-3 0,-7 -1,-10 -2,-3 -7,-7 -11,-7 -5,1 -5,10 -4,14 0,6 0,13 -2,19 -1,3 -2,6 -4,10z"/>
   <path class="fil1" d="M317 514c-1,4 -1,8 -1,12 0,2 -1,5 -3,6 -1,0 -2,0 -2,0 -2,0 -3,0 -4,-1 -1,-1 -1,-3 -1,-4 0,-15 -1,-30 -3,-45 -1,-4 -2,-10 -2,-13 3,-9 18,-6 19,2 1,6 0,13 -1,19 -1,6 -1,12 -2,19 0,1 0,3 0,5z"/>
   <path class="fil29" d="M304 545c0,0 0,0 0,-1 -3,-2 -3,-6 -2,-9 1,-1 2,-3 4,-3 4,0 7,0 11,1 9,0 16,4 16,9 0,0 -1,1 -1,2 -1,1 -2,1 -3,1 -2,0 -4,0 -6,0 -2,0 -18,0 -18,0 -1,0 -1,0 -1,0z"/>
   <path class="fil30" d="M304 543c0,0 0,0 0,-1 -3,-2 -3,-6 -2,-8 1,-2 2,-4 4,-4 4,0 7,0 11,1 9,0 16,4 16,9 0,1 -1,1 -1,2 -1,1 -2,1 -3,1 -2,0 -4,0 -6,0 -2,0 -18,0 -18,0 -1,0 -1,0 -1,0z"/>
   <path class="fil29" d="M316 527l-10 0c0,1 -1,4 1,4 1,1 3,1 5,1 2,0 3,0 4,-1 0,-1 0,-1 0,-1 0,-1 0,-2 0,-3z"/>
   <path class="fil21" d="M319 537c0,-2 2,-3 3,-4l0 -1c-2,1 -4,3 -4,5l1 0z"/>
   <path class="fil21" d="M323 538c1,-2 2,-4 4,-4l-1 -1c-2,1 -3,3 -4,5l1 0z"/>
   <path class="fil29" d="M253 531c0,0 0,0 0,-1 -2,-3 1,-6 3,-8 2,-1 4,-2 5,-1 3,2 6,4 9,6 8,5 12,12 9,16 0,1 -1,1 -2,2 -1,0 -2,-1 -3,-1 -2,-1 -3,-2 -5,-3 -1,-1 -15,-9 -15,-10 -1,0 -1,0 -1,0z"/>
   <path class="fil30" d="M254 529c0,0 0,0 0,0 -2,-3 1,-7 3,-9 2,0 4,-1 5,0 3,1 6,3 9,6 8,5 12,12 9,16 0,0 -1,1 -2,1 -1,0 -2,0 -3,-1 -2,0 -3,-1 -5,-2 -1,-1 -15,-10 -15,-10 -1,0 -1,-1 -1,-1z"/>
   <path class="fil29" d="M273 522l-9 -5c-1,1 -3,2 -2,4 1,2 3,3 4,4 2,0 3,1 5,0 0,0 0,-1 0,-1 1,-1 1,-1 2,-2z"/>
   <path class="fil21" d="M269 532c2,-1 4,-2 5,-2 0,0 1,0 1,0l0 -1c0,0 -1,0 -1,0 -2,0 -4,1 -5,2l0 1z"/>
   <path class="fil21" d="M273 535c1,-1 3,-2 4,-2 1,0 1,0 1,0l0 -1c0,0 0,0 -1,0 -1,0 -3,1 -5,2l1 1z"/>
   <path class="fil31" d="M265 489c23,1 45,1 68,1 -3,-10 -7,-19 -9,-29 -1,-2 -21,0 -23,0 -8,0 -16,-1 -24,-1 -2,0 -3,0 -4,0 -1,1 -1,2 -1,3 -3,8 -4,17 -7,26z"/>
   <path class="fil1" d="M341 360c-2,4 -2,7 0,8 2,1 5,0 7,-4 2,-3 2,-6 0,-8 -2,-1 -5,1 -7,4z"/>
   <path class="fil1" d="M324 403c7,-1 15,-3 22,-7 3,-2 6,-4 8,-7 2,-3 2,-9 5,-11 1,-1 3,-1 4,-1 1,0 2,1 2,1 1,1 0,5 0,7 -5,18 -23,25 -41,27 -5,0 -6,-9 0,-9z"/>
   <polygon class="fil32" points="334,414 311,416 310,401 333,400 "/>
   <path class="fil1" d="M373 375c-4,3 -10,8 -15,4 -1,0 -1,-1 -2,-3 0,-1 -1,-1 -1,-3 -1,-2 -2,-5 -3,-8 0,-1 0,-1 0,-2 0,0 0,0 1,0 0,-1 2,0 2,1 1,0 1,2 2,2 2,2 6,-1 8,-2 1,-1 2,-3 4,-3 1,-1 3,-1 4,-1 1,1 1,1 1,1 2,2 3,5 3,7 0,3 -2,5 -4,7z"/>
   <path class="fil32" d="M316 401c7,2 9,10 9,16 -1,18 0,35 1,52 -18,-2 -37,-2 -56,-1 1,-16 2,-31 3,-47 0,-6 0,-15 6,-19 4,-3 11,-2 16,-2 6,0 14,-1 20,0 0,0 1,1 1,1z"/>
   <path class="fil1" d="M276 417c-8,11 -14,26 -5,38 3,4 -4,10 -7,6 -11,-16 -6,-34 4,-49 3,-5 11,0 8,5z"/>
   <path class="fil1" d="M275 474c-2,2 -6,1 -8,0 -2,-1 -3,-2 -4,-3 -2,-3 -1,-8 0,-10 1,-1 2,-2 2,-3 2,-2 3,-3 6,-3 3,-1 6,1 8,4 3,2 3,6 1,9 -1,2 -3,4 -5,6z"/>
   <path class="fil32" d="M274 426l8 -15c2,-3 1,-6 -2,-8l-2 -1c-3,-2 -7,-1 -8,2l-9 15 13 7z"/>
   <path class="fil0" d="M382 367c0,-1 0,-3 0,-4 0,-4 0,-7 0,-11 0,-3 -1,-5 -1,-8 -1,-2 0,-4 -1,-6 -2,-3 -5,-4 -9,-5 -2,-1 -5,-2 -7,0 -2,1 -2,2 -3,3 -2,5 -4,9 -6,14 -1,3 -2,6 -3,9 0,4 2,6 3,10 1,4 5,7 10,7 1,1 2,1 4,0 1,0 2,-1 2,-3 0,-1 -1,-3 -1,-4 1,-3 3,-5 5,-6 0,0 1,4 1,4 1,2 1,3 0,4 2,0 4,-1 5,-2 0,-1 0,-1 1,-2z"/>
   <path class="fil1" d="M447 518c-1,4 -3,6 -6,8 -3,1 -6,2 -9,1 -1,0 -2,-1 -3,-1 0,-1 -1,-2 -1,-3 -1,-2 -1,-5 -1,-8 0,-3 0,-6 2,-8 1,-3 5,-4 9,-4 3,1 6,3 8,5 2,3 2,8 1,10z"/>
   <path class="fil33" d="M448 529c0,1 0,3 -1,5 -1,2 -2,3 -5,4 -5,1 -10,2 -16,3 -7,2 -14,4 -21,5 -6,1 -14,2 -21,0l0 0c0,0 -1,0 -1,0 -3,-1 -6,-3 -8,-6 -1,-3 -1,-7 1,-9 2,-2 4,-3 6,-3 11,-3 23,-5 33,-11 2,-1 4,-3 5,-5 1,-1 3,-3 4,-2 2,0 4,1 6,2 1,1 2,2 3,3 0,1 1,2 0,4 0,0 0,0 0,0 0,0 0,1 0,1 1,1 3,3 4,4 4,-1 8,-3 11,-5 -1,0 0,2 0,3 -1,2 0,4 0,7z"/>
   <path class="fil34" d="M448 525c0,2 0,4 -1,6 -1,2 -2,3 -5,3 -5,1 -10,3 -16,4 -7,1 -14,3 -21,4 -6,1 -14,2 -21,0l0 0c0,0 -1,0 -1,0 -3,-1 -6,-3 -8,-6 -1,-3 -1,-6 1,-9 2,-1 4,-2 6,-3 11,-3 23,-4 33,-11 2,-1 4,-3 5,-4 1,-2 3,-3 4,-3 2,0 4,2 6,3 1,1 2,1 3,2 0,2 1,3 0,4 0,0 0,0 0,1 0,0 0,0 0,0 1,2 3,3 4,4 4,0 8,-2 11,-5 -1,0 0,3 0,3 -1,2 0,5 0,7z"/>
   <path class="fil35" d="M399 523c-2,-2 2,-4 4,-5 2,-1 5,-2 8,-3 3,-1 5,-2 7,-4 2,-2 3,-3 4,-4 3,-2 7,0 10,1 1,1 2,3 2,4 0,1 -1,3 -1,4 -2,1 -4,2 -6,2 -5,2 -10,4 -15,5 -4,1 -7,2 -10,2 -2,0 -3,-1 -3,-2z"/>
   <polygon class="fil33" points="399,520 406,528 407,527 400,519 "/>
   <polygon class="fil33" points="408,517 415,525 416,524 409,516 "/>
   <polygon class="fil33" points="416,513 423,522 424,521 417,512 "/>
   <path class="fil1" d="M503 518c-1,4 -4,6 -7,8 -3,1 -7,2 -11,1 -1,0 -2,-1 -2,-1 -1,-1 -2,-2 -2,-3 -1,-2 -1,-5 -1,-8 0,-3 0,-6 2,-8 2,-3 6,-4 10,-4 4,1 7,3 10,5 2,3 2,8 1,10z"/>
   <path class="fil36" d="M511 356c0,-13 1,-26 0,-40 0,-1 -2,-14 -1,-15 -4,2 -7,2 -11,2 -6,0 -11,0 -17,0 -23,0 -46,0 -70,0 -1,19 0,37 1,56 2,18 1,37 2,55 0,24 1,44 1,74 0,7 -2,22 7,25 3,1 27,1 27,-4 -1,-56 8,-111 12,-166 1,14 3,28 4,42 3,23 5,45 7,67 1,11 1,22 1,33 1,6 1,11 1,17 -1,3 -1,6 0,9l0 0 0 0c5,2 10,4 16,4 4,0 9,-2 14,-3 1,0 1,-1 2,-1 2,-2 1,-8 1,-10 0,-4 0,-9 0,-13 0,-30 2,-50 2,-74 0,-19 0,-38 1,-58z"/>
   <path class="fil37" d="M407 284c3,-11 6,-21 8,-31 2,-18 2,-37 1,-55 -2,-15 -3,-30 -5,-45 0,-1 -9,11 -10,11 -8,15 -7,35 -9,51 -3,21 -7,42 -14,62 -6,20 -22,58 -22,58l28 12c0,0 4,-11 6,-15 6,-16 11,-32 17,-48z"/>
   <path class="fil38" d="M404 214c0,-7 -1,-15 -1,-23 -1,-13 -3,-28 7,-37 9,-7 21,-9 31,-11 17,-3 34,-2 51,-1 11,0 24,2 30,12 3,6 2,14 2,21 -2,22 -4,44 -6,67 0,5 0,11 -1,16 -1,4 -2,8 -3,12 -2,11 -4,22 -5,33 -13,2 -26,3 -39,3 -10,0 -20,0 -30,0 -5,0 -11,0 -16,0 -4,0 -12,-3 -12,-3 0,-1 -3,-17 -4,-24 0,-6 -1,-11 -1,-17 -1,-16 -2,-32 -3,-48z"/>
   <path class="fil5" d="M443 146c3,9 16,19 16,19 0,0 16,-14 22,-24 -13,0 -26,0 -39,2 0,1 0,2 1,3z"/>
   <polygon class="fil39" points="511,314 412,314 412,303 510,301 "/>
   <polygon class="fil37" points="458,300 460,300 460,165 458,165 "/>
   <path class="fil33" d="M509 547c0,-2 0,-5 0,-7 0,-5 0,-12 -3,-16 -4,-7 -14,-9 -21,-8 -1,0 -2,0 -3,1 -4,1 -5,4 -5,8 -1,7 -2,14 -2,20 -1,3 -1,7 0,9 2,3 6,5 9,6 5,0 11,1 15,-1 3,-1 6,-2 8,-4 2,-2 2,-4 2,-8z"/>
   <path class="fil34" d="M509 541c0,-4 1,-31 -7,-28 -1,0 -2,1 -2,1 -1,1 -3,1 -4,1 -4,1 -7,1 -11,0 0,0 -1,0 -2,0 -1,-1 -1,-1 -2,-2 -1,-1 -2,-1 -3,-1 -1,1 -1,2 -1,3 0,1 0,2 0,3 -1,7 -2,14 -2,21 -1,2 -1,6 0,8 2,3 6,5 9,6 5,1 11,1 15,-1 3,-1 6,-2 8,-4 2,-1 2,-4 2,-7z"/>
   <path class="fil35" d="M500 514c1,4 0,12 -3,16 0,0 0,0 0,0 -1,0 -1,0 -1,0 -4,0 -12,2 -14,-3 -1,-4 -1,-11 1,-15 1,-1 3,-2 5,-2 4,-1 11,-1 12,4z"/>
   <polygon class="fil33" points="479,518 503,518 503,517 479,517 "/>
   <polygon class="fil33" points="502,524 480,524 480,526 502,526 "/>
   <polygon class="fil33" points="501,532 481,531 481,533 501,533 "/>
   <polygon class="fil38" points="445,147 487,147 487,135 445,135 "/>
   <polygon class="fil5" points="445,143 478,143 478,132 445,132 "/>
   <path class="fil5" d="M445 143c0,4 7,8 16,8 9,0 17,-4 17,-8 0,-4 -8,-7 -17,-7 -9,0 -16,3 -16,7z"/>
   <path class="fil40" d="M504 101c0,0 8,-39 7,-45 -1,-6 -6,-15 -14,-19 -8,-4 -34,-9 -34,-9l-2 76 43 -3z"/>
   <path class="fil5" d="M494 93c-3,7 -2,13 3,15 4,2 10,-2 13,-8 2,-7 1,-14 -3,-15 -5,-2 -11,2 -13,8z"/>
   <path class="fil40" d="M420 100c0,0 -6,-39 -6,-45 1,-6 7,-15 15,-19 8,-4 34,-8 34,-8l0 77 -43 -5z"/>
   <path class="fil5" d="M430 92c3,7 1,14 -3,15 -4,2 -10,-2 -13,-9 -2,-6 -1,-13 4,-15 4,-1 10,3 12,9z"/>
   <polygon class="fil37" points="486,134 500,142 473,169 463,157 "/>
   <polygon class="fil37" points="444,136 432,145 443,168 454,157 "/>
   <path class="fil1" d="M422 94c0,27 17,50 39,50 22,1 41,-22 41,-49 0,-28 -15,-56 -39,-56 -25,0 -40,27 -41,55z"/>
   <path class="fil0" d="M467 139c-22,0 -40,-23 -40,-51 1,-15 6,-30 14,-40 -12,10 -19,28 -19,46 0,27 17,50 39,50 11,0 21,-5 29,-14 -7,6 -15,9 -23,9z"/>
   <path class="fil40" d="M425 64c2,2 5,3 9,3 4,-1 8,-5 12,-8 5,-2 9,-4 14,-5 10,-1 21,-1 24,-13 1,-1 1,-3 1,-4 -1,-7 -6,-11 -12,-13 -6,-3 -12,-4 -19,-5 -6,0 -14,0 -20,1 -2,0 -3,1 -4,3 -1,1 -1,3 -1,4 1,1 1,3 0,4 0,0 0,1 -1,1 -4,3 -9,7 -10,12 -1,4 -1,7 1,11 2,3 3,7 6,9z"/>
   <path class="fil41" d="M441 43c0,0 0,1 0,1 -2,5 7,11 1,16 -1,1 -3,2 -5,2 0,0 0,0 -1,0 -1,0 -2,-1 -2,-3 -1,-1 -2,-4 -2,-6 0,-3 0,-5 1,-8 0,-2 1,-3 1,-5 0,-1 0,-1 0,-2 -1,-3 0,-6 2,-8 2,-3 4,-5 7,-7 1,-1 3,-1 4,-2 1,0 1,0 2,1 0,0 0,2 -1,2 -1,1 -2,2 -3,3 -1,1 -3,2 -3,4 0,3 3,5 3,7 -1,2 -3,4 -4,5z"/>
   <path class="fil40" d="M447 79c-1,-1 -3,-1 -4,-1 -4,0 -8,1 -11,3l2 3c2,-2 6,-3 9,-3 1,0 2,1 3,1l1 -3z"/>
   <path class="fil10" d="M429 106c0,3 3,5 7,5 5,0 8,-2 8,-5 0,-2 -3,-4 -8,-4 -4,0 -7,2 -7,4z"/>
   <path class="fil11" d="M446 91c0,3 -2,5 -4,6 -1,0 -3,-3 -3,-6 0,-3 2,-5 3,-5 2,0 4,2 4,5z"/>
   <path class="fil40" d="M478 82c1,-1 2,-1 4,-1 3,0 6,1 8,3l2 -3c-3,-2 -7,-3 -10,-3 -2,0 -4,0 -5,0l1 4z"/>
   <path class="fil10" d="M495 106c0,2 -3,4 -7,4 -5,0 -8,-2 -8,-4 0,-3 3,-5 8,-5 4,0 7,2 7,5z"/>
   <path class="fil11" d="M479 91c0,3 1,5 3,5 2,0 3,-2 3,-5 0,-3 -1,-5 -3,-5 -2,0 -3,2 -3,5z"/>
   <path class="fil5" d="M460 109c-1,0 -1,1 -1,2 1,1 3,1 4,0 1,0 5,-1 5,-3 0,-1 -2,-1 -2,-1 -2,0 -3,0 -5,0 0,1 -1,1 -1,1l0 1z"/>
   <path class="fil21" d="M463 128c-7,0 -14,-3 -16,-8l0 0 0 -1c0,0 5,2 15,2 11,1 15,-1 15,-1l0 1c-1,2 -2,3 -4,4 -2,2 -6,3 -10,3z"/>
   <path class="fil40" d="M498 104l0 1c0,0 3,-3 3,-3 3,-4 3,-9 3,-13 1,-6 2,-11 2,-17 -1,-3 -1,-9 -4,-10 -2,-1 -3,-1 -5,0 0,0 0,0 0,0 -1,0 -1,1 -1,1 1,4 2,8 2,12 1,10 0,20 0,29z"/>
   <path class="fil40" d="M429 56c1,0 3,0 4,1 1,1 0,3 0,4 0,1 -1,3 -2,4 0,1 -1,2 -2,3 -1,3 -2,7 -2,10 -1,5 -1,7 -1,12 0,4 0,13 0,13 0,0 -2,-1 -3,-2 -1,-1 -1,-2 -1,-3 -1,-12 -2,-23 -2,-35 0,-1 2,-4 3,-5 2,-1 4,-2 6,-2z"/>
   <polygon class="fil37" points="454,157 459,165 451,159 "/>
   <polygon class="fil37" points="463,157 459,165 467,161 "/>
   <path class="fil42" d="M491 314c0,1 0,2 0,2 0,6 1,12 4,17 3,5 9,9 15,10l1 -2c-6,0 -11,-4 -15,-9 -2,-5 -4,-10 -4,-16 0,0 0,-1 0,-2l-1 0z"/>
   <polygon class="fil42" points="463,343 461,314 459,314 461,343 "/>
   <path class="fil42" d="M423 315c0,1 0,2 0,3 0,6 -2,12 -5,16 -1,2 -3,4 -5,5l0 1c3,0 5,-3 7,-5 3,-5 5,-11 5,-17 0,-1 0,-2 -1,-3l-1 0z"/>
   <polygon class="fil36" points="478,315 483,315 483,302 478,302 "/>
   <polygon class="fil36" points="437,315 441,315 441,302 437,302 "/>
   <path class="fil37" d="M468 179c0,1 -1,2 -2,2 -1,0 -2,-1 -2,-2 0,-1 1,-2 2,-2 1,0 2,1 2,2z"/>
   <path class="fil37" d="M468 204c0,1 -1,1 -2,1 -1,0 -2,0 -2,-1 0,-1 1,-2 2,-2 1,0 2,1 2,2z"/>
   <path class="fil37" d="M468 228c0,1 -1,2 -2,2 -1,0 -2,-1 -2,-2 0,-1 1,-2 2,-2 1,0 2,1 2,2z"/>
   <path class="fil37" d="M468 289c0,1 -1,2 -2,2 -1,0 -2,-1 -2,-2 0,-1 1,-2 2,-2 1,0 2,1 2,2z"/>
   <path class="fil37" d="M468 253c0,1 -1,2 -2,2 -1,0 -2,-1 -2,-2 0,-1 1,-2 2,-2 1,0 2,1 2,2z"/>
   <path class="fil0" d="M530 326c-2,3 -4,5 -5,8 -1,1 -1,2 -1,2 -1,4 0,8 0,11 0,4 0,8 -2,12 -1,2 -3,4 -4,6 -3,3 -5,6 -9,8 -1,0 -3,1 -5,1 -5,1 -10,1 -14,0 -1,0 -2,0 -3,0 -1,-1 -1,-3 -1,-5 1,-2 3,-3 4,-4 5,-4 10,-9 10,-16 0,2 -1,5 -3,7 -1,2 -4,4 -7,3 1,-2 2,-5 3,-7 2,-5 3,-10 6,-14 3,-4 7,-7 9,-12 2,-2 3,-5 5,-7l17 7z"/>
   <path class="fil37" d="M518 230c-1,-6 -3,-11 -5,-17 -7,-18 -14,-40 -6,-60 3,-9 13,-6 18,0 8,9 12,20 15,32 7,20 12,41 12,63l0 9c0,17 -3,33 -8,49 -1,2 -15,38 -14,38 0,0 -31,-12 -31,-12 11,-31 26,-69 19,-102z"/>
   <path class="fil1" d="M359 362c0,0 1,0 1,0 0,-1 0,-2 0,-3 -3,0 -6,-1 -8,0 0,1 -1,1 -1,1 0,1 0,1 0,1 0,3 1,5 3,6 0,-1 0,-2 0,-3 0,-1 2,-1 3,-1 0,0 1,0 2,-1z"/>
   <path class="fil5" d="M219 384c-1,5 -2,11 -4,15 -2,3 -4,6 -5,9 -4,12 -6,25 -8,38 -2,19 -4,37 -5,56 0,11 3,19 13,25 6,5 14,7 21,10 2,0 3,1 4,2 1,0 3,2 2,3 0,0 0,0 -1,0 -1,1 -3,1 -5,1 -4,0 -8,0 -12,0 -3,0 -6,0 -9,0 -2,0 -5,0 -8,-1 -4,-2 -9,-4 -14,-6 -4,-2 -8,-4 -12,-6 -5,-4 -4,-15 -4,-21 -1,-9 -1,-19 -1,-28 1,-19 3,-37 7,-55 2,-8 4,-16 5,-24 0,-8 0,-15 0,-23 0,-17 3,-34 8,-50 1,-4 2,-9 5,-12 3,-4 8,-7 13,-8 6,-2 12,-3 18,0 12,6 4,20 2,30 -4,15 -7,30 -10,45z"/>
   <path class="fil43" d="M230 535c2,1 5,2 7,3 1,0 2,1 3,2 2,1 2,4 0,5 -2,1 -3,1 -4,1 -12,0 -23,0 -34,0 -5,0 -17,0 -25,0 0,-1 -3,-4 -3,-5 -2,-3 -4,-5 -5,-8 0,-2 0,-3 0,-5 0,0 2,-5 1,-5 5,2 8,4 13,7 4,2 8,4 12,5 6,2 12,2 19,2 3,0 6,0 9,-2 0,-1 0,-2 0,-2 0,0 5,2 7,2z"/>
   <path class="fil1" d="M155 368c2,5 3,10 2,14 0,3 -1,5 -1,8 -8,27 -8,57 -1,84 4,14 10,29 6,43 -2,6 -5,11 -4,16 1,6 6,11 11,13 5,2 11,3 17,3 3,0 6,0 9,1 5,0 11,0 17,0 2,0 5,0 8,0 2,0 5,1 6,-2 0,0 1,-1 1,-1 0,-3 -5,-5 -7,-5 -13,-4 -26,-10 -36,-18 -3,-3 -5,-5 -6,-8 -1,-2 -1,-5 -1,-8 2,-25 4,-51 6,-76 0,-6 0,-11 2,-17 1,-5 4,-11 5,-17 1,-7 2,-20 3,-27 1,-11 3,-18 4,-35 1,-14 5,-15 0,-29 -3,-11 -14,-19 -25,-19 -34,1 -20,61 -16,80z"/>
   <path class="fil44" d="M222 77c5,2 9,6 12,10 5,8 6,18 7,27 1,28 2,57 -3,86 -1,8 -3,16 -7,24 -2,6 -6,13 -11,18 -7,7 -16,12 -25,15 -10,4 -20,6 -30,7 -3,0 -6,0 -8,-1 -3,-1 -5,-4 -6,-6 -6,-12 -8,-26 -10,-38 -5,-29 -1,-57 0,-86 0,-9 1,-18 3,-26 3,-12 10,-22 20,-28 15,-9 33,-11 49,-6 3,1 6,2 9,4z"/>
   <path class="fil45" d="M146 95c2,-4 4,-8 7,-12 5,-6 12,-11 19,-14 3,-1 5,-2 8,-1 2,0 5,1 6,4 2,6 -9,11 -13,14 -6,5 -12,11 -15,18 -6,16 -4,33 -4,50 1,34 4,68 2,103 -1,6 -1,12 -6,16 -2,3 -5,4 -8,5 -8,3 -16,3 -23,2 6,-6 10,-14 11,-23 8,-43 -1,-87 8,-130 2,-10 4,-22 8,-32z"/>
   <polygon class="fil5" points="181,187 201,185 199,165 180,167 "/>
   <path class="fil46" d="M160 257c-1,-5 -3,-11 -4,-17 -2,-9 -4,-18 -5,-27 -1,-10 -2,-20 8,-26 5,-3 11,-4 17,-5 6,0 11,-1 16,-2 10,-1 21,1 29,6 7,4 10,11 12,18 2,8 3,15 5,22 1,6 3,13 0,19 -2,4 -8,6 -9,11 -2,6 -4,11 -3,18 0,3 1,6 2,9 2,10 6,20 7,29 1,10 1,21 0,31 -25,7 -52,10 -79,10 -3,0 -7,0 -9,-3 -2,-2 -2,-4 -2,-6 -1,-11 -1,-23 0,-34 1,-5 2,-10 4,-15 3,-5 6,-10 8,-15 2,-2 3,-4 3,-6 1,-3 1,-6 1,-8 0,-3 0,-6 -1,-9z"/>
   <path class="fil5" d="M202 199c-1,1 -2,1 -3,1 -8,1 -15,-2 -21,-7 -2,-2 -5,-6 -6,-10 1,0 3,-1 4,-1 6,0 11,-1 16,-2 6,0 11,0 17,1 0,3 0,7 -1,9 0,4 -3,8 -6,9z"/>
   <path class="fil5" d="M238 140c-3,6 -8,9 -12,7 -4,-1 -5,-7 -3,-13 2,-6 8,-10 12,-8 4,2 5,8 3,14z"/>
   <path class="fil5" d="M148 135c2,6 6,10 11,9 4,-1 6,-7 4,-13 -2,-6 -7,-10 -11,-9 -4,1 -6,7 -4,13z"/>
   <path class="fil1" d="M233 122c-2,30 -21,54 -43,52 -21,-1 -38,-26 -36,-56 1,-30 20,-54 42,-53 22,1 38,27 37,57z"/>
   <path class="fil0" d="M195 168c-22,-1 -39,-26 -37,-56 0,-12 4,-23 9,-32 -8,9 -13,23 -13,38 -2,30 15,55 36,56 14,1 26,-7 34,-20 -8,9 -18,15 -29,14z"/>
   <path class="fil45" d="M239 100c2,-10 -3,-20 -9,-27 -10,-10 -25,-14 -38,-11 -2,1 -4,2 -6,3l-1 0c-8,-1 -17,0 -24,6 -5,4 -8,12 -8,19 -1,3 -1,7 -1,10 0,2 1,11 1,11 0,0 18,-9 27,-23 1,1 7,3 9,4 18,9 19,8 31,18 8,6 13,14 13,15l6 -25z"/>
   <path class="fil47" d="M185 259c-1,0 -3,0 -4,0 -2,-1 -4,-1 -6,-2 -6,-4 -2,-12 4,-13 2,-1 4,-1 5,-1 1,0 1,0 2,0 5,0 10,1 15,2 2,0 4,1 6,1 4,0 7,-1 10,-1 1,-1 3,-1 6,-1 3,0 6,1 6,3 1,5 -7,8 -10,9 -2,0 -4,0 -6,0 0,0 0,0 -1,0 0,0 0,0 0,0 -1,0 -2,0 -3,0 -8,0 -16,3 -24,3z"/>
   <path class="fil48" d="M142 311c-4,11 -8,22 -11,33 -7,23 -11,57 -12,81 8,1 43,4 52,3 34,-1 51,-2 77,-7 1,-32 0,-64 -5,-95 -3,-20 -8,-39 -17,-57 0,0 -17,0 -37,1 -21,1 -28,1 -28,1 -7,13 -14,26 -19,40z"/>
   <path class="fil49" d="M207 74c16,4 27,17 31,32 1,-4 1,-6 1,-6 3,-10 -3,-20 -9,-27 -10,-10 -25,-14 -38,-11 -2,1 -4,2 -6,3l0 0c-9,-1 -18,0 -25,6 -5,4 -8,12 -8,19 -1,2 -1,4 -1,6 10,-20 33,-29 55,-22z"/>
   <path class="fil18" d="M188 155c0,0 0,0 1,0 3,-1 7,0 10,0 3,0 6,-1 7,-4 -2,4 -4,9 -8,11 -6,2 -12,0 -16,-4 0,0 -1,-4 -2,-4 3,1 5,1 8,1z"/>
   <path class="fil23" d="M209 116c1,0 2,0 3,0 3,-1 7,1 9,2l2 -3c-3,-2 -7,-3 -11,-3 -1,0 -2,0 -4,1l1 3z"/>
   <path class="fil10" d="M226 139c0,2 -4,4 -8,4 -4,0 -8,-2 -7,-5 0,-2 3,-4 7,-4 5,0 8,2 8,5z"/>
   <path class="fil11" d="M209 125c0,3 2,6 4,6 1,0 3,-3 3,-5 0,-3 -1,-6 -3,-6 -2,0 -4,2 -4,5z"/>
   <path class="fil23" d="M178 111c-1,0 -3,0 -5,0 -3,0 -7,1 -9,2l1 3c2,-1 6,-2 8,-2 2,0 3,0 4,1l1 -4z"/>
   <path class="fil10" d="M159 136c0,3 4,5 8,5 4,0 8,-2 8,-4 0,-3 -4,-5 -8,-5 -4,0 -8,2 -8,4z"/>
   <path class="fil11" d="M176 124c0,3 -1,5 -3,5 -2,0 -3,-3 -3,-5 0,-3 2,-6 3,-5 2,0 4,2 3,5z"/>
   <path class="fil5" d="M195 140c1,1 1,2 0,2 0,1 -2,1 -4,1 -1,-1 -4,-2 -4,-4 0,-1 1,-1 2,-1 1,0 3,0 4,1 1,0 1,0 2,1l0 0z"/>
   <path class="fil26" d="M194 164c-9,1 -17,-5 -19,-15 0,0 0,0 0,0 0,-1 0,-1 0,-1 0,0 6,3 18,3 13,1 19,-2 19,-2l-1 1c-1,4 -2,7 -4,9 -4,3 -8,5 -13,5z"/>
   <path class="fil21" d="M204 154c-3,1 -7,1 -11,1 -3,0 -6,-1 -10,-1 -2,-1 -5,-2 -5,-5 3,1 8,2 15,2 8,1 12,0 15,-1 0,2 -2,3 -4,4z"/>
   <path class="fil27" d="M183 161l0 0c2,-1 3,-1 5,-1 4,-1 8,0 11,1 2,0 3,0 4,1 -3,1 -6,2 -9,2l0 0c-4,0 -8,-1 -11,-3z"/>
   <path class="fil50" d="M216 540c3,1 5,1 8,2 1,1 2,1 3,2 2,2 2,5 -1,6 -1,0 -3,0 -4,0 -11,1 -23,1 -34,1 -5,0 -17,0 -24,-1 -1,0 -3,-3 -4,-4 -2,-3 -3,-5 -4,-9 0,-1 0,-2 0,-4 0,-1 1,-6 1,-6 4,3 8,5 12,7 4,2 8,5 13,6 6,2 12,2 18,2 3,-1 7,-1 9,-2 1,-1 0,-2 0,-2 0,0 6,2 7,2z"/>
   <path class="fil1" d="M204 294c3,1 6,3 9,4 1,1 6,3 7,5 1,5 -9,2 -11,2 -5,0 -10,-2 -15,-4 -11,-4 -20,-11 -27,-20 -4,-6 -8,-12 -11,-18 -2,-6 -3,-12 -5,-18 -2,-9 -4,-19 -4,-28 0,-7 -1,-18 7,-22 3,-2 8,-1 10,3 1,2 1,4 1,5 0,6 1,11 1,17 0,14 1,28 6,41 2,7 8,13 13,19 6,5 12,10 19,14z"/>
   <path class="fil0" d="M209 309c5,0 6,0 8,-2 2,-1 4,-4 2,-6 -1,-2 -3,-2 -5,-3 -10,-2 -21,-5 -31,-7 -3,-1 -6,-2 -10,-2 0,0 15,17 36,20z"/>
   <path class="fil0" d="M226 294c2,-1 4,-1 6,-2 3,-1 8,-3 12,-1 3,2 1,5 -1,8 -1,2 -3,4 -5,5 -4,3 -10,5 -15,6 -4,0 -10,0 -13,-1 -5,-2 -2,-8 2,-10 4,-2 9,-3 14,-5z"/>
   <path class="fil51" d="M284 240c-4,10 -11,19 -18,28 -3,3 -7,7 -10,10 -9,9 -19,14 -31,17 -16,4 -42,-4 -44,-23 -2,-16 9,-29 22,-37 9,-5 18,-9 25,-17 3,-3 6,-7 9,-10 5,-6 12,-11 19,-14 8,-2 17,-4 24,0 8,4 10,13 10,21 0,9 -2,17 -6,25z"/>
   <path class="fil52" d="M225 295c11,-3 22,-8 31,-17 3,-3 6,-7 10,-10 7,-9 13,-18 18,-28 4,-8 6,-16 6,-25 0,-2 0,-5 -1,-7 2,4 3,9 3,14 1,8 -2,17 -5,24 -5,10 -12,19 -18,27 -3,3 -7,7 -10,10 -8,8 -19,14 -30,16 -12,3 -29,0 -38,-10 10,6 24,8 34,6z"/>
   <path class="fil0" d="M263 275c-2,1 -4,5 -6,7 -1,1 -4,3 -1,4 4,1 9,0 12,-1 4,-1 8,-3 11,-6 5,-6 4,-14 3,-22 -1,0 -1,-1 -1,-1 -3,5 -4,7 -7,10 -2,3 -4,7 -8,8 -1,0 -2,1 -3,1l0 0z"/>
   <path class="fil1" d="M252 207c0,0 0,0 0,-1 4,-2 7,-4 11,-4 2,0 3,1 4,1 1,1 3,2 4,3 4,5 5,12 3,18 -1,3 -3,5 -5,7 -2,1 -4,2 -5,4 -3,2 -6,3 -10,3 -3,-1 -7,-2 -9,-5 -3,-3 -5,-9 -3,-14 1,-2 2,-5 4,-7 2,-2 4,-4 6,-5z"/>
   <path class="fil5" d="M274 224c1,-5 0,-11 -3,-15 -2,-4 -7,-6 -11,-6 5,-2 12,-1 15,4 2,3 3,8 2,12 -1,3 -2,6 -4,8 0,-1 0,-2 1,-3z"/>
   <path class="fil0" d="M241 274c3,2 6,2 9,2 2,0 4,-2 3,-3 -2,-2 -5,-3 -5,-5 0,-1 0,-2 1,-2l0 0c1,0 1,0 2,0 2,1 3,3 5,4 2,1 5,2 7,4 0,1 0,2 0,3 0,2 -1,3 -2,5 0,1 0,2 0,3 -1,1 -3,2 -3,2 -4,1 -7,2 -11,2 -4,0 -7,-2 -10,-3 -1,0 -2,-1 -2,-1 -1,-1 -1,-2 0,-3 -1,1 -2,-1 -2,-2 -1,0 -1,-1 -1,-1 1,-1 1,-1 2,-1 -1,0 -2,-1 -2,-1 0,-1 -1,-1 0,-2 0,-1 1,-1 1,-1 1,0 1,0 2,0 0,0 0,0 0,-1 -1,-3 5,0 6,1z"/>
   <path class="fil53" d="M247 219c0,1 0,2 1,3 0,1 1,2 1,2 1,1 2,2 3,3 1,0 2,1 3,1 -1,1 -3,0 -4,0 -1,-1 -2,-1 -3,-2 -1,-1 -1,-2 -2,-4 0,-1 0,-2 1,-3z"/>
   <path class="fil54" d="M265 224c-1,0 -1,0 -2,0 -1,-1 -1,-1 -2,-2 0,0 0,-1 0,-2 0,0 0,-1 0,-1 1,0 1,1 1,1 0,0 1,1 1,1 0,1 0,1 1,1 0,1 0,1 1,2z"/>
   <path class="fil54" d="M258 214c-1,0 -2,0 -2,0 -1,0 -1,-1 -2,-1 0,-1 0,-1 0,-2 -1,-1 0,-1 0,-2 0,1 1,1 1,2 0,0 0,0 1,1 0,0 0,1 1,1 0,0 0,1 1,1z"/>
   <path class="fil46" d="M148 200c1,-1 1,-2 2,-4 2,-5 7,-11 13,-8 2,2 3,4 4,6 5,11 4,23 4,35 0,0 0,0 0,0 0,0 -1,0 -1,0 -8,1 -16,2 -24,3 -1,-11 -1,-22 2,-32z"/>
  </g>
 </g>
</svg>
