<?xml version="1.0" encoding="UTF-8"?>
<!DOCTYPE svg PUBLIC "-//W3C//DTD SVG 1.1//EN" "http://www.w3.org/Graphics/SVG/1.1/DTD/svg11.dtd">
<!-- Creator: CorelDRAW X8 -->
<svg xmlns="http://www.w3.org/2000/svg" xml:space="preserve" width="1.09063in" height="0.846665in" version="1.1" style="shape-rendering:geometricPrecision; text-rendering:geometricPrecision; image-rendering:optimizeQuality; fill-rule:evenodd; clip-rule:evenodd"
viewBox="0 0 307 238"
 xmlns:xlink="http://www.w3.org/1999/xlink">
 <defs>
  <style type="text/css">
   <![CDATA[
    .fil6 {fill:#FBB97C;fill-rule:nonzero}
    .fil1 {fill:#F58E6D;fill-rule:nonzero}
    .fil7 {fill:#EF4B5B;fill-rule:nonzero}
    .fil8 {fill:#ED7355;fill-rule:nonzero}
    .fil5 {fill:#F1A86E;fill-rule:nonzero}
    .fil9 {fill:#DC6755;fill-rule:nonzero}
    .fil18 {fill:#CF4456;fill-rule:nonzero}
    .fil2 {fill:#CFD9DB;fill-rule:nonzero}
    .fil12 {fill:#8F464B;fill-rule:nonzero}
    .fil0 {fill:#AEC0C6;fill-rule:nonzero}
    .fil13 {fill:#6D3D42;fill-rule:nonzero}
    .fil14 {fill:#8EBFDB;fill-rule:nonzero}
    .fil16 {fill:#669AB4;fill-rule:nonzero}
    .fil11 {fill:#375B68;fill-rule:nonzero}
    .fil10 {fill:#315359;fill-rule:nonzero}
    .fil17 {fill:#2A393E;fill-rule:nonzero}
    .fil4 {fill:#2C464F;fill-rule:nonzero}
    .fil15 {fill:#2B669D;fill-rule:nonzero}
    .fil3 {fill:#2C5171;fill-rule:nonzero}
   ]]>
  </style>
 </defs>
 <g id="Layer_x0020_1">
  <metadata id="CorelCorpID_0Corel-Layer"/>
  <g id="_1216206347024">
   <path class="fil0" d="M40 238l-39 0c0,0 -1,0 -1,-1l0 -1c0,0 1,-1 1,-1l39 0c1,0 2,1 2,1l0 1c0,1 -1,1 -2,1z"/>
   <path class="fil0" d="M300 238l-39 0c-1,0 -1,0 -1,-1l0 -1c0,0 0,-1 1,-1l39 0c1,0 1,1 1,1l0 1c0,1 0,1 -1,1z"/>
   <path class="fil0" d="M95 238l-39 0c-1,0 -1,0 -1,-1l0 -1c0,0 0,-1 1,-1l39 0c1,0 1,1 1,1l0 1c0,1 0,1 -1,1z"/>
   <path class="fil0" d="M169 238l-63 0c-1,0 -2,0 -2,-1l0 -1c0,0 1,-1 2,-1l63 0c1,0 1,1 1,1l0 1c0,1 0,1 -1,1z"/>
   <path class="fil0" d="M240 238l-61 0c-1,0 -1,0 -1,-1l0 -1c0,0 0,-1 1,-1l61 0c1,0 1,1 1,1l0 1c0,1 0,1 -1,1z"/>
   <path class="fil1" d="M19 187c0,0 11,28 11,37 0,0 3,2 7,0 0,0 1,-27 -4,-35 -4,-9 -14,-2 -14,-2z"/>
   <path class="fil2" d="M16 237l23 0c1,-4 -1,-7 -1,-7 0,0 1,-4 1,-5 0,-1 -5,-3 -6,-2 -1,1 -1,3 -1,3 -1,-3 -2,-4 -4,-2 -1,1 1,0 0,3 0,0 0,0 0,0 0,1 0,1 -1,1 0,0 0,1 0,1 -1,0 -1,0 -1,0 0,0 -1,0 -1,1 -1,0 -2,0 -2,0 -3,0 -5,0 -6,2 -1,2 -1,3 -1,3l0 2z"/>
   <path class="fil0" d="M28 227c0,1 0,1 -1,1 2,-1 4,1 4,1l0 -1c-1,-2 -3,-1 -3,-1z"/>
   <path class="fil0" d="M29 230l0 0c0,-1 -1,-2 -2,-2 0,0 0,1 0,1 1,0 2,1 2,1z"/>
   <path class="fil0" d="M26 231l1 0c0,-1 -1,-2 -1,-2 0,0 -1,0 -1,1 1,0 1,1 1,1z"/>
   <path class="fil2" d="M65 231c0,0 1,-1 1,-2 0,0 1,-2 0,-5 0,-3 1,-5 5,-6 4,-1 6,1 5,9 0,0 0,0 0,0 1,3 1,7 0,10l-12 0c0,0 -2,-4 1,-6z"/>
   <path class="fil1" d="M54 190c0,0 0,7 5,15 4,8 10,19 10,19 0,0 3,4 6,-2 0,0 -2,-20 -6,-28 -4,-7 -15,-4 -15,-4z"/>
   <path class="fil2" d="M74 225c0,0 1,-2 0,-3 -1,-1 -2,1 -4,0 -2,0 -2,-1 -2,0 -1,2 0,7 6,3z"/>
   <path class="fil0" d="M67 225c0,0 5,2 7,0l0 2c0,0 -5,0 -6,-1l-1 -1z"/>
   <path class="fil0" d="M68 227c0,0 4,0 6,1l0 1c0,0 -6,-1 -7,0l1 -2z"/>
   <path class="fil0" d="M74 231c0,0 -1,-2 -3,-2 -3,0 -5,1 -5,1 0,0 4,-2 8,1z"/>
   <path class="fil3" d="M73 188c0,0 -1,1 -2,2 0,0 0,0 0,0 -2,3 -8,7 -18,3 0,0 0,0 0,-1 0,0 -1,0 -1,-1 0,-1 -1,-3 -1,-5 -3,-15 -4,-25 -5,-31 -4,9 -13,27 -13,28 0,1 1,7 1,7 -7,2 -17,-1 -17,-1 0,0 -3,-9 -3,-15 -1,-5 12,-33 18,-46 0,0 0,0 0,-1 1,-3 2,-5 2,-5l10 3 25 11c0,0 0,1 0,6 0,0 0,0 0,0 1,3 1,7 1,14l0 1c0,1 0,3 0,4l0 1c0,3 0,8 0,13 0,0 0,0 0,0 0,2 0,4 0,5 0,2 1,5 2,6 0,1 0,1 0,1 0,0 1,1 1,1z"/>
   <path class="fil4" d="M71 190c0,0 0,0 0,0 -1,-2 -3,-5 -3,-7 -1,-3 -1,-15 0,-28 1,-13 -2,-25 -2,-26l0 0c0,0 3,13 2,26 -1,13 0,25 0,28 1,2 2,5 3,7z"/>
   <path class="fil4" d="M68 140c-8,-2 -10,-9 -10,-9l0 0c0,0 2,6 10,9l0 0z"/>
   <path class="fil4" d="M39 126c0,0 0,0 -1,0 -2,0 -4,1 -6,2 0,0 0,0 0,-1 2,-1 4,-1 6,-1 0,0 1,0 1,0l0 0z"/>
   <path class="fil4" d="M45 155c-5,-11 2,-26 2,-26l1 0c0,0 -8,15 -2,26l-1 0z"/>
   <path class="fil4" d="M44 144c0,0 0,0 0,0l0 -1c0,0 1,1 2,0 1,0 1,-1 1,-3 1,-5 4,-11 5,-11l0 0c0,1 -4,6 -4,11 0,2 -1,3 -2,4 -1,0 -1,0 -2,0z"/>
   <path class="fil5" d="M17 21c0,0 1,-2 5,-2 3,0 4,1 4,1 2,5 3,24 4,25 0,0 22,17 22,17 -12,0 -12,19 -12,19 -1,-5 -17,-16 -21,-24 -4,-7 -5,-25 -2,-36z"/>
   <path class="fil6" d="M86 89c-1,19 -8,38 -11,46 0,1 -1,2 -1,2 0,0 -37,-5 -42,-15 0,0 0,0 0,-1 1,-4 7,-23 8,-39 0,-17 6,-23 10,-22 0,0 7,6 12,6 5,0 17,-5 17,-5 0,0 10,4 7,28z"/>
   <path class="fil7" d="M62 55c-1,0 -2,1 -2,2 0,1 1,2 2,2 2,0 3,-1 3,-2 0,-1 -1,-2 -3,-2z"/>
   <path class="fil5" d="M109 22c0,0 -1,-2 -4,-2 -3,0 -4,1 -4,1 -2,5 -4,25 -5,25 0,1 -21,17 -21,17 -1,13 12,19 12,19 0,-4 16,-16 20,-24 4,-7 6,-24 2,-36z"/>
   <path class="fil5" d="M58 66c0,0 -2,1 -3,2 0,1 1,4 4,5 3,0 9,-4 9,-5 0,-1 -5,-2 -10,-2z"/>
   <path class="fil8" d="M57 62c0,0 2,4 0,6 0,0 3,5 9,0 0,0 -1,-3 0,-5l-9 -1z"/>
   <path class="fil7" d="M76 49c0,-1 -1,-2 -2,-2 0,-1 0,-1 0,-2 0,-1 -1,-2 -2,-2 0,-1 0,-1 0,-2 0,-1 -1,-2 -2,-2 0,0 -1,0 -1,1 0,-2 -1,-3 -3,-3 0,0 -1,1 -2,1 0,-1 -1,-1 -2,-1 -1,0 -1,0 -2,1 0,-1 -1,-1 -1,-1 -2,0 -3,1 -3,2 0,0 0,0 -1,0 -1,0 -2,1 -2,2 0,1 0,1 0,1 0,0 0,0 0,0 -1,0 -2,1 -2,2 0,1 0,1 0,2 -1,0 -2,1 -2,2 0,1 1,2 2,2 -1,1 -1,1 -1,2 0,1 1,2 2,2 0,3 2,3 2,3 1,1 10,2 14,2 0,0 1,1 1,1 2,0 3,-1 3,-3 0,0 0,0 0,0 1,0 2,-1 2,-2 0,0 0,0 0,-1 0,0 1,-1 1,-2 0,0 0,-1 -1,-1 1,-1 2,-1 2,-2z"/>
   <path class="fil1" d="M70 53c0,0 2,-2 3,1 0,3 -3,4 -4,3 0,-1 1,-4 1,-4z"/>
   <path class="fil1" d="M53 53c0,0 -2,-2 -3,1 0,3 3,4 4,3 0,-1 -1,-4 -1,-4z"/>
   <path class="fil1" d="M62 65c5,0 8,-3 8,-14 0,-5 -3,-9 -9,-9 -6,0 -8,4 -8,9 0,11 3,14 9,14z"/>
   <path class="fil9" d="M55 55c0,0 0,1 1,1 0,0 1,0 1,-1 0,0 0,-1 -1,-1 -1,0 -1,0 -1,1z"/>
   <path class="fil9" d="M66 55c0,1 0,1 1,1 1,0 1,-1 1,-1 0,-1 -1,-1 -1,-1 -1,0 -1,0 -1,1z"/>
   <path class="fil7" d="M57 49c0,0 0,0 0,0 1,-1 2,0 2,0 0,0 1,0 1,-1 0,0 0,0 -1,0 0,0 -1,0 -2,1 0,0 0,0 0,0 0,0 0,0 0,0z"/>
   <path class="fil7" d="M67 49c0,0 0,0 0,0 0,0 0,0 0,0 -1,-1 -2,-1 -2,-1 0,0 0,0 0,0 0,1 0,1 0,1 0,0 1,-1 2,0 0,0 0,0 0,0z"/>
   <path class="fil10" d="M58 52c0,1 0,1 0,1 1,0 1,0 1,-1 0,-1 0,-1 -1,-1 0,0 0,0 0,1z"/>
   <path class="fil10" d="M65 52c0,1 0,1 0,1 1,0 1,0 1,-1 0,-1 0,-1 -1,-1 0,0 0,0 0,1z"/>
   <path class="fil7" d="M68 45c0,0 -4,0 -12,-1 0,0 -3,3 -3,11 0,0 -5,-14 9,-14 14,0 8,13 8,13 0,0 0,-7 -2,-9z"/>
   <path class="fil9" d="M61 56l1 -1 -1 -1c1,-1 1,-5 1,-5l-1 0c0,0 0,4 -1,5l0 0 1 2z"/>
   <path class="fil10" d="M65 57c0,0 -5,1 -8,0 0,0 0,4 4,4 4,0 4,-4 4,-4z"/>
   <path class="fil6" d="M22 18c0,0 -4,0 -4,1 0,2 0,3 4,3 3,0 3,-1 3,-3 0,-1 -2,-1 -3,-1z"/>
   <path class="fil6" d="M106 19c0,0 -4,0 -4,1 0,1 0,3 3,3 3,0 3,-1 3,-3 0,-1 -1,-1 -2,-1z"/>
   <path class="fil1" d="M16 10c1,1 2,3 2,3 0,2 0,4 1,5 1,0 0,2 0,2 0,0 3,2 6,0 0,0 -1,-2 0,-2 0,-1 2,-2 2,-4 1,-2 2,-4 2,-4 0,0 0,-1 -1,0 -1,0 -1,2 -2,2 0,0 0,0 0,0 0,0 0,0 0,0 0,0 -1,0 -1,0 0,0 0,0 0,0 -1,-1 -1,-4 -1,-5 0,-2 0,-4 -1,-3 -1,0 0,1 -1,4l0 1c0,0 -1,-3 -1,-5 0,-2 -1,-1 -2,-1 0,1 0,3 1,4 0,1 0,1 0,2l-1 0c-1,-3 -1,-4 -2,-4 -1,0 0,2 0,3 0,1 1,1 1,2 -2,-2 -2,-3 -2,-3 -1,1 -1,2 0,3z"/>
   <path class="fil8" d="M23 14c1,-1 3,-2 3,-2 0,0 -1,0 -1,0 -2,1 -2,2 -2,2z"/>
   <path class="fil1" d="M111 11c-1,0 -2,3 -2,3 0,2 0,3 -1,4 -1,1 -1,3 -1,3 0,0 -2,1 -5,-1 0,0 0,-1 0,-2 0,-1 -2,-1 -2,-3 -1,-2 -3,-4 -3,-4 0,0 1,-1 2,-1 1,1 1,2 2,3 0,0 0,0 0,0 0,0 0,0 0,0 0,0 1,0 1,-1 0,0 0,0 0,0 1,-1 1,-3 1,-4 0,-2 0,-4 1,-4 1,0 0,1 1,5l0 0c0,0 1,-2 1,-4 0,-2 1,-1 1,-1 1,1 0,2 0,3 0,1 0,2 0,2l0 1c2,-3 2,-4 2,-4 1,0 1,2 1,3 -1,0 -1,1 -1,2 2,-2 1,-3 2,-3 1,0 0,2 0,3z"/>
   <path class="fil8" d="M104 15c-1,-2 -3,-2 -3,-2 0,0 1,0 1,-1 2,1 2,3 2,3z"/>
   <path class="fil5" d="M75 135c0,1 -1,2 -1,2 0,0 -37,-5 -42,-15 0,0 0,0 0,-1 3,4 32,14 43,14z"/>
   <path class="fil4" d="M214 237l18 0c1,-8 -1,-15 -1,-15l-8 -1c-1,4 -2,6 -3,7 0,0 0,0 0,0 -1,1 -2,1 -4,1 -1,1 -2,2 -2,3 -1,2 0,5 0,5z"/>
   <path class="fil11" d="M214 232c4,1 14,2 14,-1 -1,-2 -5,-3 -8,-3 0,0 0,0 0,0 -1,1 -2,1 -4,1 -1,1 -2,2 -2,3z"/>
   <path class="fil4" d="M275 237l19 0c0,0 0,-2 0,-4 0,-1 -1,-3 -3,-4 -2,0 -3,0 -4,-1 -1,-1 -2,-3 -2,-7l-9 1c0,0 -2,7 -1,15z"/>
   <path class="fil11" d="M294 233c0,-1 -1,-3 -3,-4 -2,0 -3,0 -4,-1 -2,0 -5,2 -6,4 -2,2 9,2 13,1z"/>
   <path class="fil12" d="M286 222c0,0 -2,4 -11,1 0,0 -7,-51 -8,-52 -1,-1 -11,-35 -11,-35l-4 0c0,0 -11,34 -12,35 -1,1 -8,52 -8,52 -9,3 -10,-1 -10,-1l4 -55 9 -57 19 2 18 -2 3 15 0 0 6 42 5 55z"/>
   <path class="fil13" d="M275 125c-7,-1 -9,-7 -9,-7l1 0c0,0 2,5 8,7l0 0z"/>
   <path class="fil13" d="M255 131c0,1 -1,1 -2,1 0,1 0,3 0,4l0 0c0,-6 -1,-12 -1,-12l1 0c0,0 0,3 0,8 1,0 1,-1 2,-1 1,-2 0,-7 0,-7l1 0c0,0 1,5 -1,7z"/>
   <path class="fil1" d="M305 10c-1,0 -3,1 -3,1 -2,2 -3,3 -4,3 -1,0 -1,2 -1,2 0,0 -5,2 -6,-1 0,0 2,-4 2,-4 1,-2 0,-3 0,-5 1,-2 1,-4 1,-4 0,0 1,-1 1,0 1,1 0,3 0,3 0,0 1,0 1,0 0,0 0,0 0,0 0,1 0,1 1,1 0,0 0,0 0,0 1,-1 3,-3 3,-4 1,-1 3,-3 3,-2 1,1 -1,1 -2,5l0 0c0,0 2,-1 4,-3 1,-1 1,0 1,0 0,1 -1,2 -2,3 -1,0 -1,1 -1,1l0 1c3,-1 3,-3 4,-2 1,0 -1,2 -2,2 0,1 -1,1 -2,2 3,-1 3,-2 4,-1 0,0 -1,1 -2,2z"/>
   <path class="fil8" d="M296 9c1,-2 0,-3 0,-4 0,1 0,1 1,1 1,2 -1,3 -1,3z"/>
   <path class="fil1" d="M166 36c1,0 4,0 4,0 2,1 3,2 4,1 1,0 2,2 2,2 0,0 5,0 5,-3 0,0 -3,-3 -4,-3 0,-1 0,-3 -1,-4 -2,-2 -3,-4 -3,-4 0,0 -1,-1 -1,1 0,1 2,2 1,2 0,0 0,1 0,1 0,0 0,0 0,0 0,0 0,0 0,0 0,0 0,0 0,0 -2,1 -4,-1 -5,-1 -1,-1 -3,-2 -4,-1 0,1 1,0 4,3l0 0c0,1 -2,0 -4,-1 -2,-1 -2,0 -1,1 0,0 1,1 2,1 1,1 2,1 2,1l0 1c-3,0 -4,-1 -4,-1 -1,1 1,2 2,2 1,0 2,0 2,1 -2,0 -3,-1 -3,0 0,1 2,1 2,1z"/>
   <path class="fil8" d="M174 32c-1,-1 -1,-3 -1,-3 0,0 0,0 0,0 -1,2 1,3 1,3z"/>
   <path class="fil2" d="M298 17c0,0 -1,2 -1,5 -1,1 -1,2 -2,3 0,3 -1,5 -2,7 0,1 -1,3 -1,4 -1,3 -2,6 -3,8 0,0 -1,0 -1,1 0,0 -1,1 -2,2 -1,1 -2,3 -4,5 -1,1 -2,1 -3,2 -2,2 -4,3 -5,5 -1,1 -2,1 -4,2 -5,4 -9,8 -9,8l-8 -17c2,-1 6,-4 11,-6 1,-1 2,-2 3,-2 1,-1 3,-2 4,-3 1,-1 3,-1 4,-2 1,-1 2,-1 3,-2 1,0 1,-1 1,-1 0,0 1,0 1,-1 1,-2 2,-4 3,-6 1,-1 1,-2 2,-3 1,-2 2,-4 3,-5 0,-2 1,-3 1,-4 2,-2 3,-5 4,-5 0,0 4,1 5,5z"/>
   <path class="fil14" d="M274 59c-1,1 -2,1 -4,2 0,-7 -4,-12 -6,-15 1,-1 2,-2 3,-2 2,3 5,8 7,15z"/>
   <path class="fil14" d="M282 52c-1,1 -2,1 -3,2 -2,-7 -5,-11 -8,-13 1,-1 3,-1 4,-2 2,3 5,7 7,13z"/>
   <path class="fil14" d="M289 44c0,0 -1,0 -1,1 0,0 -1,1 -2,2 -3,-5 -6,-8 -8,-10 1,0 1,-1 1,-1 0,0 1,0 1,-1 3,1 6,4 9,9z"/>
   <path class="fil14" d="M293 32c0,1 -1,3 -1,4 -3,-3 -7,-6 -9,-7 1,-1 1,-2 2,-3 2,1 5,3 8,6z"/>
   <path class="fil14" d="M297 22c-1,1 -1,2 -2,3 -2,-2 -5,-4 -7,-4 0,-2 1,-3 1,-4 2,1 5,3 8,5z"/>
   <path class="fil2" d="M231 57l-2 18c0,0 -5,-2 -11,-3 -1,-1 -2,-1 -4,-2 -2,0 -4,-1 -6,-2 -2,0 -3,-1 -4,-1 -3,-1 -5,-2 -7,-3 -1,-1 -2,-1 -2,-2 0,0 -1,0 -1,0 -1,-1 -3,-3 -5,-5 -1,-1 -2,-2 -3,-3 -1,-2 -3,-4 -4,-6 -1,-1 -2,-2 -2,-3 -3,-3 -5,-6 -5,-6 1,-4 4,-5 4,-5 1,1 3,3 6,5 1,1 2,2 3,2 2,2 3,3 5,4 1,1 2,2 3,3 1,1 2,2 3,2 1,1 1,2 1,2 0,0 1,0 2,0 1,0 3,0 5,1 1,0 2,0 3,0 2,0 4,1 5,1 1,0 3,0 4,1 5,0 9,1 12,2z"/>
   <path class="fil14" d="M218 72c-1,-1 -2,-1 -4,-2 0,-7 0,-12 1,-16 1,0 3,0 4,1 -1,3 -2,9 -1,17z"/>
   <path class="fil14" d="M210 53c-1,3 -2,9 -2,15 -2,0 -3,-1 -4,-1 0,-6 2,-11 3,-14 1,0 2,0 3,0z"/>
   <path class="fil14" d="M202 52c-1,3 -3,8 -5,12 -1,-1 -2,-1 -2,-2 0,0 -1,0 -1,0 1,-4 3,-8 5,-12 1,1 1,2 1,2 0,0 1,0 2,0z"/>
   <path class="fil14" d="M196 48c-2,2 -5,5 -7,9 -1,-1 -2,-2 -3,-3 3,-4 5,-7 7,-9 1,1 2,2 3,3z"/>
   <path class="fil14" d="M188 41c-2,2 -4,4 -6,7 -1,-1 -2,-2 -2,-3 2,-2 4,-4 5,-6 1,1 2,2 3,2z"/>
   <path class="fil2" d="M278 114c0,0 -10,10 -23,13 -12,2 -23,2 -23,2 0,0 0,-2 -1,-7 -1,-1 -1,-2 -1,-3 -1,-3 -1,-5 -2,-8 0,-1 0,-2 0,-3 -1,-3 -1,-5 -2,-7 0,-1 0,-2 -1,-4 0,-3 -1,-5 -1,-8 -1,-1 -1,-3 -1,-4 -1,-3 -1,-6 -1,-8 -1,-2 -1,-3 -1,-4 0,0 0,-1 0,-1 0,-2 0,-5 0,-7 0,-1 0,-2 0,-3 0,-4 0,-7 0,-7 3,-2 22,5 22,5 0,0 14,-13 17,-12 1,1 2,2 3,3 1,1 2,2 2,4 1,2 2,4 3,7 0,1 1,2 1,3 1,3 2,5 2,7 0,2 1,3 1,4 1,2 1,5 1,7 1,1 1,2 1,4 1,2 1,4 1,6 1,1 1,2 1,4 0,2 1,5 1,7 0,2 0,3 1,4 0,4 0,6 0,6z"/>
   <path class="fil14" d="M265 55c-4,4 -12,10 -21,12 -1,1 -3,1 -5,1 -6,0 -13,-1 -18,-3 0,-1 0,-2 0,-3 7,1 17,3 23,2 8,-2 15,-9 19,-13 1,1 2,2 2,4z"/>
   <path class="fil14" d="M269 65c-4,5 -15,12 -36,12 -4,0 -7,0 -11,0 -1,-2 -1,-3 -1,-4 31,4 44,-8 47,-11 0,1 1,2 1,3z"/>
   <path class="fil14" d="M272 76c-9,5 -26,13 -47,13 0,0 -1,0 -1,0 -1,-1 -1,-3 -1,-4 21,1 40,-8 48,-13 0,2 1,3 1,4z"/>
   <path class="fil14" d="M274 87c-7,4 -26,13 -48,14 0,-1 0,-2 -1,-4 23,-1 42,-11 48,-14 1,1 1,2 1,4z"/>
   <path class="fil14" d="M276 97c-9,5 -27,14 -48,14 0,-1 0,-2 0,-3 20,-1 40,-11 47,-15 1,1 1,2 1,4z"/>
   <path class="fil14" d="M278 108c-9,5 -29,14 -46,14 0,0 -1,0 -1,0 -1,-1 -1,-2 -1,-3 18,1 39,-10 47,-15 0,2 0,3 1,4z"/>
   <path class="fil8" d="M246 52c0,0 -1,5 1,7 0,0 -1,3 -4,4 -3,0 -4,-3 -4,-3 0,0 0,-4 -2,-6l9 -2z"/>
   <path class="fil15" d="M248 42c0,0 2,-3 -2,-8 0,0 -3,-5 -10,-6 -7,-1 -13,7 -13,11 0,5 3,0 3,0 0,0 0,3 1,5 0,0 0,4 3,4 3,0 18,-6 18,-6z"/>
   <path class="fil1" d="M231 47c0,0 -3,-1 -2,2 1,3 4,3 4,2 0,-1 -2,-4 -2,-4z"/>
   <path class="fil1" d="M247 42c0,0 1,-2 2,0 2,3 -1,5 -2,4 0,-1 0,-4 0,-4z"/>
   <path class="fil1" d="M242 56c-5,1 -8,-1 -12,-10 -1,-5 0,-9 6,-11 5,-2 8,0 10,5 4,11 1,14 -4,16z"/>
   <path class="fil9" d="M246 44c0,1 0,1 -1,2 -1,0 -1,0 -1,-1 -1,0 0,-1 0,-1 1,0 1,0 2,0z"/>
   <path class="fil9" d="M236 48c0,0 -1,1 -1,1 -1,0 -1,0 -2,-1 0,0 1,-1 1,-1 1,0 2,0 2,1z"/>
   <path class="fil6" d="M242 40c0,0 0,0 0,0 -1,0 -3,0 -3,0 0,0 0,0 0,0 0,0 0,0 0,-1 0,0 2,0 3,1 0,0 0,0 0,0 0,0 0,0 0,0z"/>
   <path class="fil6" d="M233 43c0,0 -1,0 -1,0 0,0 0,0 0,0 1,-1 2,-2 2,-2 0,0 1,0 1,0 0,0 0,1 -1,1 0,0 -1,0 -1,1 0,0 0,0 0,0z"/>
   <path class="fil10" d="M242 43c0,0 0,1 0,1 0,0 -1,0 -1,-1 0,0 0,-1 0,-1 1,0 1,0 1,1z"/>
   <path class="fil10" d="M236 45c0,1 0,1 -1,1 0,0 0,0 -1,-1 0,0 0,-1 1,-1 0,0 1,0 1,1z"/>
   <path class="fil10" d="M238 51c0,0 4,-1 6,-2 0,0 0,3 -2,4 -3,0 -4,-2 -4,-2z"/>
   <path class="fil9" d="M241 49c-1,0 -1,0 -1,0l0 -1c0,0 1,0 1,0 0,0 0,0 0,-1 -1,-1 -3,-5 -3,-5l1 0c0,0 1,4 2,5 1,0 1,1 1,1 0,0 -1,1 -1,1z"/>
   <path class="fil6" d="M234 33c-11,4 -4,14 -4,14l2 1c-1,-2 -1,-4 -1,-4 0,-1 0,-3 0,-4 1,-1 4,-4 11,-4 0,0 1,1 2,3 0,0 2,2 3,5l0 -3c0,0 -2,-12 -13,-8z"/>
   <path class="fil14" d="M233 223l-5 1c0,0 -7,-40 -9,-44 -1,-4 -8,-18 -10,-29 0,0 -1,0 -1,0l0 0c-1,0 -1,0 -1,0 0,0 -1,0 -1,0 0,11 -2,24 -3,27 -1,5 0,46 0,46l-5 0c-10,-33 -5,-46 -5,-46 0,0 -8,-30 -5,-40 1,-4 2,-7 3,-10 0,0 0,0 0,0 3,-5 5,-8 5,-8l10 1 0 0 0 0 0 3 1 0 1 0 0 0 4 0 0 0 4 0c0,0 2,3 5,9 0,0 1,0 1,0 1,2 2,4 3,7 5,10 4,38 4,38 0,0 7,11 4,45z"/>
   <path class="fil16" d="M199 121c0,0 -3,6 -8,7 0,0 0,0 0,0 5,-2 8,-7 8,-7l0 0z"/>
   <path class="fil16" d="M222 133c-6,-1 -9,-7 -10,-9 0,-1 0,-1 0,-1l0 0c0,0 0,0 0,1 1,2 4,7 9,9 0,0 1,0 1,0z"/>
   <path class="fil16" d="M208 151c-1,0 -1,0 -1,0 -1,-2 -3,-5 -4,-11 -2,-8 2,-17 2,-17l1 0c0,0 -4,9 -2,17 0,0 0,1 0,1 0,0 0,0 0,1 1,5 3,8 4,9z"/>
   <path class="fil16" d="M204 142c0,0 0,0 0,0l0 -1c0,0 0,0 1,0 0,-1 1,-2 0,-5 -1,-4 2,-12 2,-12l1 0c0,0 -3,8 -2,12 0,3 -1,4 -1,5 0,0 -1,1 -1,1z"/>
   <path class="fil7" d="M204 82c0,0 1,-3 -1,-8 -2,-5 -2,-18 10,-18 0,0 6,-1 9,4 4,4 7,19 3,31 -3,11 -26,8 -21,-9z"/>
   <path class="fil1" d="M216 124c0,0 -10,3 -20,-4 0,0 -2,-38 1,-40 2,-1 5,-1 8,1 4,2 7,4 7,4 0,0 7,-1 12,0 3,0 6,1 6,3 0,6 -14,36 -14,36z"/>
   <path class="fil8" d="M224 85c-2,0 -3,1 -5,2 -2,1 -5,1 -6,2 -1,0 -1,1 -1,1 0,0 -1,-2 -1,-2 -1,0 -5,-5 -6,-7 4,2 7,4 7,4 0,0 7,-1 12,0 0,0 0,0 0,0z"/>
   <path class="fil2" d="M195 228c1,-2 0,-4 0,-5 1,-1 2,1 2,1 0,-3 4,-3 5,-2 0,1 0,1 0,1 0,0 1,-1 1,-1 2,2 0,5 1,7 3,3 1,8 1,8l-11 0c-2,-7 1,-7 1,-9z"/>
   <path class="fil0" d="M203 227c0,0 -3,-1 -7,0l1 -1c0,0 2,-1 5,0l1 1z"/>
   <path class="fil0" d="M203 229c0,0 -4,-1 -8,1l1 -2c0,0 4,-1 7,0l0 1z"/>
   <path class="fil2" d="M235 228c0,-2 1,-4 0,-5 -1,-1 -2,1 -2,1 0,-3 -4,-3 -4,-2 0,1 0,1 0,1 -1,0 -1,-1 -1,-1 -3,2 0,5 -2,7 -2,3 -1,8 -1,8l12 0c1,-7 -2,-7 -2,-9z"/>
   <path class="fil0" d="M228 227c0,0 3,-1 6,0l0 -1c0,0 -3,-1 -6,0l0 1z"/>
   <path class="fil0" d="M228 229c0,0 3,-1 7,1l-1 -2c0,0 -3,-1 -6,0l0 1z"/>
   <path class="fil8" d="M211 73c0,0 1,10 -2,11 0,0 2,4 8,2 0,0 -1,-6 3,-12 2,-4 -9,-1 -9,-1z"/>
   <path class="fil1" d="M221 69c0,0 2,-2 3,0 0,3 -2,5 -3,4 0,-1 0,-4 0,-4z"/>
   <path class="fil1" d="M206 71c0,0 -3,-3 -3,0 0,3 3,4 3,3 1,-1 0,-3 0,-3z"/>
   <path class="fil1" d="M215 81c5,-1 7,-4 6,-14 0,-5 -3,-8 -8,-7 -6,0 -8,3 -8,8 1,11 4,13 10,13z"/>
   <path class="fil9" d="M207 72c0,0 1,1 1,1 1,0 1,-1 2,-1 0,-1 -1,-1 -2,-1 0,0 -1,0 -1,1z"/>
   <path class="fil9" d="M217 71c1,1 1,1 2,1 0,0 1,-1 1,-1 0,-1 -1,-1 -1,-1 -1,0 -2,1 -2,1z"/>
   <path class="fil7" d="M209 66c0,1 0,0 0,0 1,0 2,0 2,0 0,0 0,-1 0,-1 0,0 0,0 0,0 0,0 -1,0 -2,1 0,0 0,0 0,0 0,0 0,0 0,0z"/>
   <path class="fil7" d="M216 65c0,0 0,0 0,0 0,0 2,0 2,1 0,0 1,0 1,0 0,0 0,-1 0,-1 -1,0 -3,0 -3,0 0,0 0,0 0,0 0,0 0,0 0,0z"/>
   <path class="fil10" d="M210 69c0,1 0,1 0,1 1,0 1,0 1,-1 0,-1 0,-1 -1,-1 0,0 0,0 0,1z"/>
   <path class="fil10" d="M217 69c0,0 0,1 0,1 1,0 1,-1 1,-2 0,0 0,-1 -1,-1 0,0 0,1 0,2z"/>
   <path class="fil10" d="M216 75c0,0 -3,0 -5,0 0,0 2,2 3,2 2,-1 2,-2 2,-2z"/>
   <path class="fil10" d="M211 69c0,0 0,-2 -1,-2 0,0 -1,2 -1,2l-1 -1 1 0c0,0 1,-1 1,-1 1,0 1,2 1,2z"/>
   <path class="fil10" d="M216 68c0,0 1,-1 1,-1 1,0 1,1 1,1l1 0 -1 0c0,0 0,-1 -1,-1 -1,0 -1,1 -1,1z"/>
   <path class="fil9" d="M214 72c0,0 0,0 0,0l0 0c0,0 -1,0 -1,-1 0,0 1,0 1,0 0,0 0,0 0,0l0 0c0,-1 0,-1 -1,-1 0,0 0,1 0,1 0,1 0,1 1,1z"/>
   <path class="fil7" d="M214 61c0,0 2,0 3,2 1,5 2,13 5,17 3,3 4,2 4,2 0,0 1,-3 0,-6 -1,-3 0,-13 -4,-16 -3,-4 -9,-2 -9,-2 0,0 -4,-2 -7,0 -3,2 -3,10 0,14 0,0 0,-3 1,-4 1,-2 2,-8 7,-7z"/>
   <path class="fil1" d="M191 21c-1,4 2,6 0,8 -2,2 -4,0 -4,0 -1,-2 -3,-4 -4,-5 -1,-1 0,-2 0,-2 0,0 -1,0 -1,0 -1,0 -1,-1 0,-1 0,0 3,1 3,1 -3,-3 -4,-3 -3,-3 1,0 4,2 4,2 -2,-2 -3,-3 -2,-3 1,0 4,4 5,5 0,0 0,1 0,1 1,-3 2,-3 2,-3z"/>
   <path class="fil8" d="M189 23c0,0 0,1 0,1 0,0 -1,1 0,2 0,0 -1,-1 0,-3z"/>
   <path class="fil8" d="M185 24c0,0 -2,-1 -2,-2 0,0 -1,0 -1,0 1,0 3,2 3,2z"/>
   <path class="fil1" d="M191 29c0,0 -1,24 -2,29 0,0 4,16 11,21 0,0 1,4 -5,12 0,0 -11,-20 -13,-31l5 -31 4 0z"/>
   <path class="fil15" d="M205 81c1,2 1,9 8,13 7,3 14,-2 16,-8 0,0 1,-1 3,2 0,0 14,7 16,10 2,4 1,17 -5,18 -5,0 -12,-6 -14,-2 -2,4 -12,18 -34,7 0,0 -2,-4 -2,-7 0,-3 -2,-23 -2,-23 0,0 -8,-2 -6,-21 0,0 6,3 6,-7 0,0 4,-2 6,6 1,6 6,10 6,10 0,0 1,-1 2,2z"/>
   <path class="fil1" d="M251 105c5,-2 15,-10 19,-15l-2 -2c0,0 -12,8 -17,9 -5,2 -7,5 -7,8 1,3 6,1 7,0z"/>
   <path class="fil1" d="M274 83c-2,3 -5,1 -6,5 -1,2 2,2 2,2 2,0 5,0 7,1 1,0 1,-1 1,-1 0,0 0,0 0,0 1,1 2,1 2,0 -1,-1 -3,-2 -3,-2 4,1 4,2 4,1 0,-1 -4,-2 -4,-2 3,0 4,0 4,0 -1,-1 -5,-2 -7,-2 -1,0 -1,0 -1,0 2,-2 1,-2 1,-2z"/>
   <path class="fil8" d="M274 85c-1,0 -1,0 -1,0 0,0 0,2 -2,2 0,0 2,0 3,-2z"/>
   <path class="fil8" d="M275 89c0,0 2,1 3,1 0,0 0,0 0,0 0,-1 -3,-1 -3,-1z"/>
   <path class="fil1" d="M140 138c3,-11 9,-18 9,-18l9 1 0 0 1 0 0 0 0 0 9 2c0,0 4,7 7,18 3,11 -5,37 -5,37 0,0 4,13 -6,46l-5 0c0,0 2,-41 1,-46 -1,-4 -1,-18 -1,-29 -1,0 -1,0 -2,0l0 0c0,11 -1,26 -2,29 -1,5 0,46 0,46l-5 0c-9,-33 -5,-46 -5,-46 0,0 -8,-30 -5,-40z"/>
   <path class="fil4" d="M182 88c0,-5 -18,-3 -18,-3 0,0 -11,-8 -14,-5 -2,1 -2,6 -2,12 -2,3 -3,6 0,9 0,10 0,19 0,19 10,7 20,4 20,4 0,0 4,-9 8,-18 3,-2 3,-5 3,-7 2,-5 3,-9 3,-11z"/>
   <path class="fil6" d="M180 60c-5,-9 -18,-8 -22,-2 -5,7 -3,22 -3,22 0,0 12,-10 20,4 0,0 11,-15 5,-24z"/>
   <path class="fil4" d="M148 228c0,-2 -1,-4 0,-5 1,-1 1,1 1,1 1,-3 4,-3 5,-2 0,1 0,1 0,1 0,0 1,-1 1,-1 2,2 0,5 2,7 2,3 1,8 1,8l-12 0c-1,-7 1,-7 2,-9z"/>
   <path class="fil11" d="M155 227c0,0 -3,-1 -7,0l1 -1c0,0 3,-1 5,0l1 1z"/>
   <path class="fil11" d="M155 229c0,0 -4,-1 -7,1l0 -2c0,0 4,-1 7,0l0 1z"/>
   <path class="fil4" d="M166 228c0,-2 1,-4 0,-5 -1,-1 -2,1 -2,1 0,-3 -4,-3 -4,-2 0,1 0,1 0,1 -1,0 -1,-1 -2,-1 -2,2 1,5 -1,7 -2,3 -1,8 -1,8l12 0c1,-7 -2,-7 -2,-9z"/>
   <path class="fil11" d="M159 227c0,0 3,-1 6,0l0 -1c0,0 -3,-1 -6,0l0 1z"/>
   <path class="fil11" d="M159 229c0,0 3,-1 7,1l-1 -2c0,0 -3,-1 -6,0l0 1z"/>
   <path class="fil8" d="M164 73c0,0 0,6 -2,11 0,0 2,4 7,2 0,0 -1,-6 3,-12 2,-4 -8,-1 -8,-1z"/>
   <path class="fil1" d="M176 70c0,0 2,-2 2,1 0,3 -3,3 -3,2 -1,-1 1,-3 1,-3z"/>
   <path class="fil1" d="M160 67c0,0 -2,-3 -2,0 -1,3 1,5 2,4 1,-1 0,-4 0,-4z"/>
   <path class="fil1" d="M166 79c5,1 9,-2 10,-11 1,-5 -1,-9 -6,-10 -6,-1 -9,2 -9,7 -2,10 0,13 5,14z"/>
   <path class="fil9" d="M161 69c0,0 1,1 1,1 1,0 1,0 2,-1 0,0 0,-1 -1,-1 -1,0 -1,0 -2,1z"/>
   <path class="fil9" d="M172 71c0,0 0,1 1,1 0,0 1,0 1,-1 0,0 -1,-1 -1,-1 -1,0 -1,0 -1,1z"/>
   <path class="fil6" d="M165 64c0,0 0,0 0,0 1,-1 2,0 2,0 0,0 0,0 0,-1 0,0 0,0 0,0 0,0 -1,0 -2,1 -1,0 -1,0 0,0 0,0 0,0 0,0z"/>
   <path class="fil6" d="M172 65c0,0 0,0 0,0 0,0 1,0 2,1 0,0 0,0 0,0 0,0 0,-1 0,-1 0,-1 -2,-1 -2,-1 0,0 0,0 0,0 0,0 0,0 0,1z"/>
   <path class="fil10" d="M165 67c0,0 0,1 0,1 0,0 1,0 1,-1 0,-1 0,-1 -1,-1 0,0 0,0 0,1z"/>
   <path class="fil10" d="M171 68c0,1 0,1 1,1 0,0 0,0 1,-1 0,0 -1,-1 -1,-1 0,0 -1,0 -1,1z"/>
   <path class="fil10" d="M169 74c0,0 -3,0 -4,-2 0,0 0,3 2,3 2,0 2,-1 2,-1z"/>
   <path class="fil10" d="M166 67c0,0 0,-2 0,-2 -1,0 -2,1 -2,1l-1 0 1 0c0,0 1,-1 2,-1 0,0 0,2 0,2z"/>
   <path class="fil10" d="M171 68c0,0 1,-2 1,-1 1,0 1,1 1,1l1 0 -1 0c0,0 0,-2 -1,-2 0,0 -1,2 -1,2z"/>
   <path class="fil9" d="M167 71c1,0 1,0 1,0l0 -1c0,0 0,0 0,0 0,0 0,-1 0,-1 0,0 0,0 0,0l1 0c0,0 -1,0 -1,0 0,0 -1,0 -1,1 0,0 0,1 0,1z"/>
   <path class="fil6" d="M160 69c0,0 -2,-6 2,-11 3,-5 13,-1 15,2 2,4 -2,12 -2,12 0,0 3,-10 -2,-12 0,0 -1,3 -5,4 -5,2 -7,2 -7,2l-1 3z"/>
   <path class="fil8" d="M178 85c0,0 6,0 21,16 3,2 0,9 -6,4 -7,-4 -12,-9 -14,-7 0,0 -3,-9 -1,-13z"/>
   <path class="fil1" d="M200 100c0,-5 -4,-18 -7,-24l-3 2c0,0 3,14 3,19 -1,5 1,8 4,9 4,1 3,-5 3,-6z"/>
   <path class="fil1" d="M188 70c2,3 0,6 2,8 2,1 3,-1 3,-1 1,-2 2,-5 3,-7 1,-1 0,-1 0,-1 0,0 1,0 1,0 0,-1 1,-1 0,-1 -1,-1 -3,2 -3,2 2,-4 3,-4 3,-4 -2,-1 -4,3 -4,3 1,-3 2,-4 1,-4 -1,0 -3,5 -4,6 0,1 0,1 0,1 -1,-3 -2,-2 -2,-2z"/>
   <path class="fil8" d="M190 71c0,1 0,1 0,1 0,0 1,1 1,2 0,0 1,-1 -1,-3z"/>
   <path class="fil8" d="M194 72c0,-1 2,-2 2,-3 0,0 1,0 1,0 -1,0 -3,2 -3,3z"/>
   <path class="fil8" d="M152 79c0,0 -6,-1 -25,11 -2,2 -1,9 6,6 8,-3 14,-7 15,-5 0,0 5,-8 4,-12z"/>
   <path class="fil1" d="M127 89c1,-5 7,-17 12,-22l2 2c0,0 -6,14 -7,19 0,5 -2,8 -6,8 -3,0 -2,-6 -1,-7z"/>
   <path class="fil1" d="M145 62c-3,3 -1,6 -4,7 -2,1 -3,-1 -3,-1 0,-2 -1,-5 -2,-7 0,-1 1,-1 1,-1 0,0 0,0 -1,0 0,-1 -1,-2 0,-2 1,0 3,3 3,3 -2,-4 -3,-5 -2,-5 1,0 3,4 3,4 0,-3 -1,-4 0,-4 1,1 2,5 2,7 0,1 0,1 0,1 2,-3 3,-2 3,-2z"/>
   <path class="fil8" d="M142 63c0,1 0,1 0,1 0,0 -1,0 -1,2 0,0 -1,-2 1,-3z"/>
   <path class="fil8" d="M138 63c0,-1 -1,-3 -1,-3 0,0 0,0 -1,0 1,-1 2,2 2,3z"/>
   <path class="fil6" d="M148 118c0,0 -21,29 -15,60 0,0 8,6 13,4 6,-2 12,6 17,3 5,-2 9,-4 13,-3 3,2 9,-4 9,-4 0,0 -3,-34 -16,-57 0,0 -10,5 -21,-3z"/>
   <path class="fil17" d="M157 229c0,0 2,3 1,8l-2 0c0,0 0,-4 1,-8z"/>
   <path class="fil1" d="M88 151c0,0 4,12 13,28 0,0 -1,17 26,49l3 -2c0,0 -14,-32 -16,-42 -2,-9 -1,-22 -8,-42l-18 9z"/>
   <path class="fil18" d="M104 126c0,0 -12,-5 -12,-5 -2,7 -8,12 -8,23 1,5 4,11 4,11 15,0 20,-7 20,-7l-2 -10c0,0 -2,-7 -2,-12z"/>
   <path class="fil1" d="M74 142c0,0 0,13 3,32 0,0 -7,15 8,54l4 0c0,0 -2,-35 -1,-45 1,-10 6,-18 6,-42l-20 1z"/>
   <path class="fil7" d="M104 126l-5 9 -1 2 -2 4 -2 12 0 0 0 1c-13,-2 -20,2 -20,2l0 -1 0 0c0,0 0,-1 0,-1 -1,-3 -3,-13 -1,-19 3,-11 9,-10 14,-15 0,0 17,6 17,6z"/>
   <path class="fil3" d="M82 225c0,0 2,3 1,6 0,1 -2,3 0,6l10 0c0,0 1,-3 -2,-5 -1,-2 -2,-8 -2,-8 -1,0 -1,1 -1,1 0,0 0,-3 -2,-3 -3,1 -2,3 -2,3 0,0 -1,-1 -2,0z"/>
   <path class="fil3" d="M142 237l-17 0c0,0 0,-4 1,-5 1,-2 -3,-6 -3,-6 0,0 2,-2 4,-1 0,0 0,-3 3,-3 0,0 2,6 5,8 0,0 0,0 0,0 2,1 5,2 7,4 0,0 0,1 0,3z"/>
   <path class="fil18" d="M95 153l-1 0c0,0 0,0 0,0 -11,-3 -18,1 -20,2l0 0c0,0 0,-1 0,-1 1,0 3,-1 5,-2 0,-1 -1,-7 0,-15 1,-8 9,-13 9,-13l0 0c0,0 -5,4 -8,10 8,0 11,-10 11,-10l0 1c0,0 -3,9 -11,9l0 0c0,1 0,2 0,3 -1,7 0,14 0,15 3,-1 8,-1 14,1 0,0 0,0 1,0z"/>
   <path class="fil18" d="M100 128c0,1 -1,8 -4,13l0 1c4,-6 5,-13 5,-14l-1 0z"/>
   <path class="fil3" d="M123 125c0,0 -1,6 -3,6 -1,1 0,-3 0,-3 0,0 -9,-3 -13,-4 -4,0 2,-7 16,1z"/>
   <path class="fil3" d="M121 126c0,0 -9,-4 -16,-4 -7,1 9,-22 13,-20 4,3 5,21 3,24z"/>
   <path class="fil3" d="M97 83c0,0 1,-2 6,-3 5,0 9,5 8,8 -1,3 -14,-5 -14,-5z"/>
   <path class="fil4" d="M105 62c0,0 0,-6 -6,-7 -6,-1 -11,0 -9,9 2,8 1,11 -3,12 -4,0 -3,-4 -3,-4 0,0 -1,4 3,5 0,0 -4,1 -3,3 2,3 7,3 9,0 0,0 0,2 2,2 0,0 -1,-1 -1,-2 0,-1 7,1 9,-7 2,-8 -2,-9 -2,-9l4 -2z"/>
   <path class="fil1" d="M116 87c-3,0 -4,3 -2,7 2,3 19,19 22,16 1,-2 -2,-7 -2,-7 0,0 -5,-4 -11,-11 -3,-4 -5,-5 -7,-5z"/>
   <path class="fil1" d="M138 104c1,-5 0,-19 -2,-24l-3 0c0,0 0,15 -1,20 -2,5 -1,8 2,10 3,1 4,-5 4,-6z"/>
   <path class="fil1" d="M129 76c4,2 2,5 6,6 0,0 1,0 1,0 1,-1 1,-2 1,-3 0,-2 0,-4 0,-6 0,-1 0,-1 0,-1 0,0 0,0 0,0 0,-1 0,-2 0,-2 -1,0 -2,3 -2,3 0,-4 1,-5 0,-4 -1,0 -2,4 -2,4 0,-3 1,-4 0,-4 -1,1 -1,6 -1,7 0,1 0,1 0,1 -2,-2 -3,-1 -3,-1z"/>
   <path class="fil8" d="M132 76c0,1 0,1 0,1 0,0 1,0 2,2 0,0 0,-2 -2,-3z"/>
   <path class="fil8" d="M136 75c0,0 0,-2 1,-3 0,0 0,0 0,0 -1,0 -1,3 -1,3z"/>
   <path class="fil3" d="M111 87c0,0 5,-2 11,1 5,4 9,9 9,9 0,0 0,-10 2,-12 0,0 2,3 5,3 0,0 7,15 2,24 -4,9 -17,0 -17,0l-12 -25z"/>
   <path class="fil2" d="M87 120c0,0 3,-10 1,-15 -3,-9 -1,-17 2,-19 5,-3 16,1 16,1 0,0 11,-1 12,2 1,3 4,16 -1,23 -6,7 -13,18 -13,18 0,0 -15,-2 -17,-10z"/>
   <path class="fil3" d="M93 125c0,0 -2,5 -4,5 -2,0 -10,-5 -10,-6 0,0 2,-2 2,-2 0,0 -1,-4 0,-4 1,0 12,7 12,7z"/>
   <path class="fil15" d="M110 85c0,0 11,19 10,43 0,0 5,-1 6,-10 1,-9 -2,-26 -6,-31 0,0 -4,-3 -10,-2z"/>
   <path class="fil15" d="M100 84c0,0 9,30 -7,41 0,0 -7,0 -12,-5 -5,-6 2,-34 2,-34 0,0 8,-5 17,-2z"/>
   <path class="fil3" d="M102 93c0,0 0,-8 -1,-11 -1,-2 -4,1 -4,1 0,0 1,4 5,10z"/>
   <path class="fil3" d="M113 93c0,0 1,-9 -2,-11 -3,-1 -3,4 -3,4 0,0 3,0 5,7z"/>
   <path class="fil8" d="M105 75c0,0 0,6 -2,11 0,0 3,5 6,2 0,0 1,-6 4,-12 2,-4 -8,-1 -8,-1z"/>
   <path class="fil1" d="M100 75c0,0 -3,-2 -3,1 1,3 4,3 4,2 0,-1 -1,-3 -1,-3z"/>
   <path class="fil1" d="M115 72c0,0 2,-3 3,-1 1,3 -2,5 -2,4 -1,-1 -1,-3 -1,-3z"/>
   <path class="fil1" d="M110 84c-5,1 -9,-2 -11,-11 -1,-5 1,-9 6,-10 6,-1 9,1 10,6 2,11 0,14 -5,15z"/>
   <path class="fil9" d="M114 73c0,1 0,1 -1,1 0,1 -1,0 -1,0 0,0 0,-1 1,-1 0,-1 1,0 1,0z"/>
   <path class="fil9" d="M104 76c0,0 0,1 -1,1 -1,0 -1,-1 -1,-1 0,-1 0,-1 1,-1 0,0 1,0 1,1z"/>
   <path class="fil4" d="M111 69c0,0 0,0 -1,0 0,-1 -2,-1 -2,-1 0,0 0,0 0,0 0,0 0,0 0,0 0,0 2,0 3,0 0,0 0,0 0,1 0,0 0,0 0,0z"/>
   <path class="fil4" d="M101 71c0,0 0,0 0,0 0,0 0,-1 0,-1 1,-1 2,-1 2,-1 0,0 1,0 1,0 0,0 0,0 -1,0 0,0 -1,1 -1,2 0,0 0,0 -1,0z"/>
   <path class="fil10" d="M111 71c0,1 0,1 -1,2 0,0 0,-1 0,-1 -1,-1 0,-2 0,-2 0,0 1,1 1,1z"/>
   <path class="fil10" d="M104 73c0,0 0,1 0,1 -1,0 -1,0 -1,-1 0,0 0,-1 0,-1 1,0 1,0 1,1z"/>
   <path class="fil10" d="M106 78c0,0 3,0 5,-1 0,0 1,4 -2,4 -2,0 -3,-3 -3,-3z"/>
   <path class="fil10" d="M109 71c0,0 0,-1 1,-1 0,0 1,1 1,1l1 -1 -1 1c0,0 -1,-2 -1,-2 -1,1 -1,2 -1,2z"/>
   <path class="fil10" d="M104 73c0,0 0,-2 -1,-2 0,1 -1,2 -1,2l-1 0 1 0c0,0 0,-2 1,-2 1,0 1,2 1,2z"/>
   <path class="fil9" d="M108 76l0 -1c0,0 0,0 0,0 0,-1 0,-1 0,-1 -1,0 -1,0 -1,0l0 0c0,-1 0,-1 1,-1 0,0 0,1 0,1 1,1 0,1 0,2z"/>
   <path class="fil10" d="M100 77c0,0 -1,-3 -1,-5 0,-4 2,-7 6,-8 1,-1 2,-1 3,-1 3,0 5,2 5,4 1,2 2,4 3,6 0,0 0,-2 0,-7 -1,-4 -5,-8 -13,-6 -7,2 -10,10 -3,17z"/>
   <path class="fil10" d="M111 62c0,0 -1,7 -11,8 0,0 6,-2 6,-6 0,0 -2,5 -8,4 0,0 0,-8 13,-6z"/>
   <path class="fil1" d="M82 88c5,2 8,9 7,10 -1,1 -22,5 -22,5l13 18 -2 4c0,0 -21,-18 -21,-24 1,-6 25,-13 25,-13z"/>
   <path class="fil1" d="M80 121c0,0 3,0 4,1 2,0 4,1 5,1 0,0 -4,0 -4,0 0,0 3,1 3,2 0,0 -4,-1 -4,-1 0,0 3,2 2,2 0,1 -3,0 -3,0 0,0 1,1 1,2 0,0 0,0 -2,-1 -1,-1 -3,-1 -5,-2 -1,-2 1,-4 3,-4z"/>
   <path class="fil3" d="M83 86c0,0 8,1 8,13 0,11 -17,8 -17,8 0,0 4,5 3,10 0,0 -5,0 -5,3 0,0 -7,0 -15,-10 -7,-10 3,-21 26,-24z"/>
   <path class="fil3" d="M123 97c0,2 0,4 -1,4 -1,0 -2,-1 -3,-3 0,-1 0,-3 1,-3 1,0 2,1 3,2z"/>
   <path class="fil3" d="M100 99c0,2 -1,4 -3,4 -1,0 -3,-2 -3,-4 0,-2 2,-3 3,-3 2,0 3,1 3,3z"/>
   <path class="fil15" d="M74 95c-2,0 -4,-1 -4,-2 -1,-2 1,-4 3,-4 1,-1 3,0 4,2 0,2 -1,3 -3,4z"/>
   <path class="fil15" d="M83 233c0,0 3,-4 8,-1 0,0 1,3 -2,2 -3,0 -4,2 -6,-1z"/>
   <path class="fil15" d="M142 234c-4,1 -11,-3 -11,-3 1,0 3,0 4,-1 2,1 5,2 7,4z"/>
  </g>
 </g>
</svg>
