<?xml version="1.0" encoding="UTF-8"?>
<!DOCTYPE svg PUBLIC "-//W3C//DTD SVG 1.1//EN" "http://www.w3.org/Graphics/SVG/1.1/DTD/svg11.dtd">
<!-- Creator: CorelDRAW X8 -->
<svg xmlns="http://www.w3.org/2000/svg" xml:space="preserve" width="1.27in" height="0.846661in" version="1.1" style="shape-rendering:geometricPrecision; text-rendering:geometricPrecision; image-rendering:optimizeQuality; fill-rule:evenodd; clip-rule:evenodd"
viewBox="0 0 227 152"
 xmlns:xlink="http://www.w3.org/1999/xlink">
 <defs>
  <style type="text/css">
   <![CDATA[
    .fil0 {fill:#FEFEFE}
    .fil42 {fill:#FEEFE6}
    .fil35 {fill:#FDE5D4}
    .fil1 {fill:#FCD1C1}
    .fil11 {fill:#FEC23F}
    .fil32 {fill:#F9BBAB}
    .fil19 {fill:#FBB345}
    .fil28 {fill:#FAB28A}
    .fil34 {fill:#F79347}
    .fil9 {fill:#F1625B}
    .fil2 {fill:#F5B6A7}
    .fil33 {fill:#F0988D}
    .fil57 {fill:#F4EBE2}
    .fil36 {fill:#EC957B}
    .fil7 {fill:#EB8D77}
    .fil29 {fill:#EA836F}
    .fil59 {fill:#EEECEC}
    .fil5 {fill:#EFAE40}
    .fil24 {fill:#E37261}
    .fil51 {fill:#E38370}
    .fil39 {fill:#E07366}
    .fil15 {fill:#DB6257}
    .fil6 {fill:#E0923F}
    .fil25 {fill:#D75754}
    .fil20 {fill:#DC9771}
    .fil31 {fill:#D56D60}
    .fil30 {fill:#CB4E4B}
    .fil60 {fill:#D3CDCD}
    .fil46 {fill:#C86742}
    .fil16 {fill:#BD4644}
    .fil21 {fill:#C37659}
    .fil45 {fill:#BC5B39}
    .fil47 {fill:#AB5037}
    .fil13 {fill:#A45845}
    .fil44 {fill:#954336}
    .fil54 {fill:#BBD479}
    .fil63 {fill:#87534D}
    .fil61 {fill:#75443F}
    .fil62 {fill:#6C403B}
    .fil43 {fill:#5F3935}
    .fil50 {fill:#99D3BA}
    .fil55 {fill:#9EB463}
    .fil8 {fill:#694846}
    .fil14 {fill:#5A403E}
    .fil17 {fill:#859751}
    .fil40 {fill:#5E4E4C}
    .fil27 {fill:#544644}
    .fil58 {fill:#4E403E}
    .fil26 {fill:#4D3F3D}
    .fil12 {fill:#433634}
    .fil22 {fill:#524543}
    .fil49 {fill:#72BC9D}
    .fil18 {fill:#727E4B}
    .fil37 {fill:#453837}
    .fil65 {fill:#5C5050}
    .fil3 {fill:#679EB6}
    .fil53 {fill:#4A4444}
    .fil41 {fill:#3F3D3D}
    .fil4 {fill:#4F8399}
    .fil23 {fill:#FEFEFE;fill-rule:nonzero}
    .fil48 {fill:#BF6E5F;fill-rule:nonzero}
    .fil66 {fill:#5F3935;fill-rule:nonzero}
    .fil10 {fill:#694846;fill-rule:nonzero}
    .fil52 {fill:#433634;fill-rule:nonzero}
    .fil64 {fill:#524543;fill-rule:nonzero}
    .fil38 {fill:#453837;fill-rule:nonzero}
    .fil56 {fill:#3F3D3D;fill-rule:nonzero}
   ]]>
  </style>
 </defs>
 <g id="Layer_x0020_1">
  <metadata id="CorelCorpID_0Corel-Layer"/>
  <g id="_1216114542560">
   <polygon class="fil0" points="227,152 0,152 0,0 227,0 227,152 "/>
   <path class="fil1" d="M215 82c0,0 0,25 -3,29 -1,1 -2,1 -2,1 -1,0 -1,0 -1,-1 0,1 0,1 0,2 -5,2 -16,4 -27,6 -2,1 -2,-11 2,-11 2,-1 9,0 22,-2 1,0 1,0 1,0 0,-1 4,-24 4,-24l4 0z"/>
   <path class="fil1" d="M128 76c0,0 7,24 11,28 4,3 17,6 29,9 1,1 3,-11 -2,-12 -1,0 -8,0 -22,-2 0,0 -1,-1 -2,-2 -1,-1 -10,-22 -10,-22l-4 1z"/>
   <path class="fil2" d="M129 77c1,4 6,24 10,27 4,3 17,6 29,9 1,1 3,-11 -2,-12 0,0 -3,0 -6,0 -3,2 -6,4 -6,5 -1,0 -13,-3 -14,-3 -1,-1 -7,-13 -7,-16 -1,-3 -3,-8 -3,-9 0,0 0,0 0,-1 0,0 -1,0 -1,0l0 0z"/>
   <path class="fil3" d="M154 137l-3 2c0,0 -2,3 -5,9l30 -1c-2,-1 -2,-6 -4,-7 0,0 -2,-3 -2,-4l-16 1z"/>
   <path class="fil4" d="M154 137l-3 2c0,0 -1,2 -3,6 2,0 1,6 2,6l27 1c0,-5 -2,-10 -5,-12 0,0 -1,-2 -2,-3l-16 0z"/>
   <path class="fil5" d="M171 69c0,0 1,5 0,6 -2,0 -3,5 -9,10 0,0 0,0 0,0 0,1 2,1 3,1 2,9 10,17 17,16 5,-2 7,-4 8,-5 1,-3 0,-5 0,-5 0,0 2,2 3,1 1,-1 -1,-2 0,-8 0,-7 -1,-15 -11,-19l-11 3z"/>
   <path class="fil6" d="M170 70c-9,-1 -19,39 12,32 5,-2 7,-4 8,-5 1,-3 0,-5 0,-5 0,0 2,2 3,1 1,-1 -1,-2 0,-8 0,-1 0,-1 0,-1 -4,1 -10,1 -16,-4 -5,-6 -6,-8 -7,-10l0 0z"/>
   <path class="fil3" d="M178 104c-3,-1 -6,-1 -12,-3 -6,-1 -8,6 -12,10 -2,1 -2,4 -2,7l0 0c0,0 1,3 0,8 0,5 0,13 -1,14 0,0 11,7 22,0l0 0 -1 0 0 0 0 0 0 0 0 0 0 0 0 0 0 0 0 0 0 0 0 0 0 0 0 0 0 0c0,-1 0,-1 0,-2 0,-2 1,-4 2,-7l0 0c1,-2 4,-7 6,-10 2,-2 3,-4 3,-4l1 -8c0,0 0,-1 0,-1 -1,-1 -6,-4 -6,-4l0 0z"/>
   <path class="fil1" d="M165 101c-2,1 -4,13 0,12 3,-1 8,-2 11,-4 2,-1 5,-3 5,-3 -1,-1 -6,-4 -6,-5 1,0 2,-6 2,-6l0 -2c0,0 -9,-1 -8,1 0,1 0,6 -2,6 0,1 -1,1 -2,1l0 0z"/>
   <path class="fil2" d="M165 101c-2,1 -4,11 -1,12 0,0 1,1 0,-1 0,-1 0,-8 3,-9 2,0 4,0 9,-3l1 -5 0 -1c-1,-1 -1,-1 -2,-1 -3,0 -7,0 -6,1 0,1 0,6 -2,6 0,1 -1,1 -2,1l0 0z"/>
   <path class="fil4" d="M183 108c-1,2 -2,6 -5,10 -1,1 -3,3 -6,3 -2,1 -17,-5 -18,-6 -1,-1 -1,-1 -2,-2l0 0 0 0 0 0 0 0 0 0 0 0 0 0 0 0 0 0 0 0 0 0 0 0 0 0 0 1 0 0 0 0 0 0 0 0 0 0 0 0 0 0 0 0 0 0 0 0 0 0 0 0 0 0 0 0 0 0 0 0 0 0 0 0 0 0 0 0 0 0 0 0 0 1 0 0 0 0 0 0 0 0 0 0 0 0 0 0 0 0 0 0 0 0 0 0 0 0 0 0 0 0 0 0 0 1 0 0 0 0 0 0 0 0 0 0 0 0 0 1 0 0 0 0 0 0 0 0 0 0 0 0 0 0 0 0 0 0 0 0 0 0 0 0 0 0 0 0 0 0 0 0 0 1 0 0 0 0 0 0 0 0 0 0 0 0 0 0 0 0 0 0 0 0 0 0 0 0 0 0 0 0 0 0 0 0 0 0 0 0 0 0 0 0 0 0 0 1 0 0 0 0 0 0 0 0 0 0 0 0 0 0 0 0 0 0 0 0 0 0 0 0c0,0 0,0 0,1l0 0 0 0c0,0 0,0 0,0l0 0 0 0c0,0 0,0 0,1 1,-1 1,-1 1,-1 1,0 14,5 16,6 1,2 1,11 -1,14 -2,3 -3,2 -13,1 -1,0 -2,-1 -4,-1l0 0c0,0 0,0 0,0 0,0 11,7 22,0l0 0 -1 0 0 0 0 0 0 0 0 0 0 0 0 0 0 0 0 0 0 0 0 0 0 0 0 0 0 0c0,-1 0,-1 0,-2 0,-2 1,-4 2,-7l0 0c1,-2 4,-7 6,-10 2,-2 3,-4 3,-4l1 -8c0,0 -1,0 -1,-1l0 0z"/>
   <path class="fil7" d="M167 82c1,1 2,2 1,4 0,1 -1,2 -3,2 -1,-1 -2,-2 -2,-4 1,-1 2,-2 4,-2l0 0z"/>
   <path class="fil7" d="M185 87c1,1 2,2 2,4 -1,1 -2,2 -4,2 -1,-1 -2,-2 -2,-4 1,-1 2,-2 4,-2l0 0z"/>
   <path class="fil1" d="M179 71l0 0c5,2 8,7 6,12l-2 8c-1,5 -6,8 -12,7l0 0c-5,-2 -8,-7 -6,-12l2 -8c1,-5 7,-8 12,-7l0 0z"/>
   <path class="fil2" d="M185 77c1,2 1,4 0,6l-2 8c-1,5 -5,7 -10,7 2,0 7,-2 8,-5 1,-3 1,-6 -2,-7 -3,-2 -9,-7 -10,-8 -1,0 -1,0 -2,0l0 0c1,-2 2,-4 4,-5 2,-1 4,-1 5,-1 1,0 5,3 9,5l0 0z"/>
   <path class="fil8" d="M168 81l2 1c1,0 1,0 1,0l0 0c0,1 -1,1 -1,1l-2 -1c-1,0 -1,0 -1,-1l0 0c0,0 1,0 1,0l0 0z"/>
   <path class="fil8" d="M178 84l3 1c0,0 0,0 0,0l0 0c0,0 0,1 -1,1l-2 -1c0,0 -1,0 -1,-1l0 0c1,0 1,0 1,0l0 0z"/>
   <path class="fil8" d="M175 91c0,2 -2,3 -4,2 -1,0 -2,-2 -2,-4l0 0c0,0 1,0 1,0l5 1c0,0 0,1 0,1l0 0z"/>
   <path class="fil0" d="M170 89l5 1c-1,1 -1,1 -1,1 0,0 -4,-1 -4,-1 0,0 0,-1 0,-1l0 0z"/>
   <path class="fil9" d="M173 93c0,0 -1,0 -2,0 0,0 -1,-1 -1,-1 0,0 2,-1 3,1l0 0z"/>
   <path class="fil7" d="M167 87c1,0 1,1 1,2 0,0 -1,1 -2,1 0,-1 -1,-1 -1,-2 0,-1 1,-1 2,-1l0 0z"/>
   <path class="fil7" d="M178 90c1,0 2,1 1,2 0,1 -1,1 -1,1 -1,0 -2,-1 -1,-2 0,-1 1,-1 1,-1l0 0z"/>
   <path class="fil10" d="M177 88c0,0 0,0 -1,0 0,0 0,0 0,0 0,-1 1,-1 1,-1 0,0 1,0 1,0 1,0 1,0 1,1 0,0 1,0 0,1 0,0 0,0 0,0 0,0 0,0 0,0 0,-1 0,-1 0,-1 0,0 -1,-1 -1,-1 0,0 -1,0 -1,0 0,1 0,1 0,1l0 0z"/>
   <path class="fil10" d="M167 86c0,0 0,0 0,0 0,0 0,0 0,-1 0,0 0,0 1,-1 0,0 0,0 1,0 0,0 1,1 1,1 0,0 0,1 0,1 0,0 0,1 0,0 -1,0 -1,0 -1,0 0,0 0,0 0,-1 0,0 0,0 0,0 -1,0 -1,0 -1,0 0,0 0,0 -1,1l0 0z"/>
   <path class="fil5" d="M175 82c0,0 1,0 1,0 0,0 0,-1 0,-1 0,0 3,5 8,6l0 2c0,-2 2,-1 2,-1 0,0 4,-8 4,-11 1,-4 -6,-11 -10,-12 -4,-1 -10,2 -11,4 -3,6 3,12 6,13l0 0z"/>
   <path class="fil6" d="M175 82c0,0 1,0 1,0 0,0 0,-1 0,-1 0,0 3,5 8,6l0 2c0,-2 2,-1 2,-1 0,0 0,-2 1,-4 -3,0 -6,-1 -10,-4 -8,-9 -7,-12 -7,-12 0,0 -1,0 -1,1 -3,6 3,12 6,13l0 0z"/>
   <path class="fil11" d="M173 69c0,1 0,1 0,1l0 -1zm17 10c0,-1 -1,-1 -1,-1l0 0 0 0 -1 0 0 0 0 0 0 0 0 0 0 0 0 -1c0,0 0,0 0,0l-1 0c0,0 0,0 0,0l0 0c0,0 0,0 0,0l0 0 0 0 0 0c0,0 0,0 0,0l0 0c-1,0 -1,0 -1,-1l0 0c0,0 0,0 0,0l0 0c0,0 0,0 0,0l0 0c-1,0 -1,0 -1,0l0 0 0 0 0 0 0 0 0 0 0 -1 0 0 -1 0 0 0 0 0 0 0 0 0 0 0c0,0 0,0 0,0 0,0 0,0 0,0 0,0 -1,0 -1,0 0,-1 0,-1 0,-1 0,0 0,0 0,0l0 0c0,0 0,0 0,0 0,0 0,0 0,0 0,0 0,0 0,0 0,0 0,0 0,0 0,0 -1,0 -1,0l0 -1c0,0 0,0 0,0l0 0c0,0 0,0 0,0l0 0c0,0 0,0 0,0l0 0c0,0 0,0 0,0 0,0 0,0 -1,0l0 -1c0,0 0,0 0,0 0,0 0,0 0,0 0,0 0,0 0,0 0,0 0,0 0,0 0,0 0,0 0,0 0,0 0,0 0,0 0,0 0,0 0,0 0,-1 0,-1 -1,-1 0,0 0,0 0,0 0,0 0,0 0,0 0,0 0,0 0,0 0,0 0,0 0,0 0,0 0,0 0,0 0,0 0,-1 0,-1 0,0 0,0 0,0 0,0 0,0 0,0 0,0 0,0 0,0 0,0 0,0 0,0l0 0c0,0 0,0 0,0l-1 -1c0,0 0,0 0,0l0 0c0,0 0,0 0,0 0,0 0,0 0,0 0,0 0,0 0,0 0,0 0,0 0,0 0,0 0,-1 0,-1 0,0 0,0 0,0 0,0 0,0 0,0 0,0 0,0 0,0 0,0 0,0 0,-1 0,0 0,0 0,0 0,0 0,0 0,0l0 0c-1,-1 -1,-2 -1,-2 -2,0 -4,1 -6,2 0,0 0,0 0,0 0,0 1,1 1,2l0 0c0,0 0,0 0,0l0 0c0,0 0,0 0,0l0 0c0,0 0,0 0,0 0,1 0,1 0,1l1 0c0,0 0,0 0,0l0 0 0 0 0 1c0,0 0,0 0,0l0 0c0,0 0,0 0,0l0 0c0,0 0,0 1,0l0 0c0,0 0,0 0,1l0 0c0,0 0,0 0,0l0 0c0,0 0,0 0,0l0 0c0,0 0,0 0,0l0 0c0,0 0,1 0,1l1 0c0,0 0,0 0,0l0 0c0,0 0,0 0,0l0 0c0,0 0,0 0,0l0 0c0,1 0,1 0,1l0 0c0,0 1,0 1,0l0 0c0,0 0,0 0,0l0 0c0,0 0,0 0,0l0 1c0,0 0,0 0,0l0 0c0,0 0,0 1,0l0 0c0,0 0,0 0,0l0 0c0,0 0,0 0,1l0 0c0,0 0,0 0,0l0 0c0,0 1,0 1,0l0 0c0,0 0,0 0,0l0 0c0,0 0,0 0,1l0 0c0,0 0,0 0,0l0 0c1,0 1,0 1,0l0 0c0,0 0,0 0,0l0 0c0,0 0,0 0,0l0 0c0,1 1,1 1,1l0 0c0,0 0,0 0,0l0 0c0,0 0,0 0,0l0 0c0,0 0,0 1,0l0 0c3,2 6,4 11,4 0,-1 0,-2 0,-2 -1,-1 -2,-1 -3,-1l0 0z"/>
   <path class="fil0" d="M172 139c0,0 -12,3 -21,-1 0,0 0,0 0,0 0,0 -1,2 -1,2 0,1 0,1 0,1 1,0 12,6 23,0 0,0 1,0 1,0 0,0 -2,-2 -2,-2 0,0 0,0 0,0l0 0z"/>
   <path class="fil2" d="M215 82c0,0 0,25 -3,29 -1,1 -1,1 -3,2 -5,2 -16,4 -27,6 -2,1 -2,-11 2,-11 0,0 0,0 1,0 -2,7 0,9 5,8 6,0 13,-3 18,-5 2,-2 3,-3 3,-3 2,-5 3,-26 3,-26 0,0 0,0 0,0l1 0z"/>
   <path class="fil1" d="M209 80c-1,-1 -2,-2 -2,-2 -1,-1 1,-2 2,0 0,0 1,0 1,0 1,0 0,-7 0,-7 0,-1 1,-1 1,-1 0,0 0,1 1,2 0,2 0,3 0,3 0,0 1,0 1,-1 0,0 1,-4 1,-5 0,0 1,0 1,1 0,1 -1,5 -1,5 0,1 1,1 1,0 0,0 2,-4 2,-5 0,0 1,0 1,1 0,1 -2,5 -1,5 0,1 0,1 1,0 0,0 1,-2 2,-2 0,0 0,1 0,1 -1,1 -2,3 -2,3 -1,2 -1,4 -2,5 0,0 0,1 -1,1 -1,1 -2,1 -4,1 -2,-1 -2,-3 -2,-5l0 0z"/>
   <path class="fil2" d="M220 74c0,0 0,1 0,1 -1,1 -2,3 -2,3 -1,2 -1,4 -2,5 0,0 0,1 -1,1 0,0 0,0 -1,1 0,-1 0,-1 0,-1 0,0 0,0 0,0 0,0 2,-1 2,-1 0,-1 1,-4 1,-4 1,-1 2,-3 3,-4 0,0 0,-1 0,-1l0 0z"/>
   <path class="fil12" d="M52 101c0,0 1,0 1,-1 0,-1 0,-2 0,-2 1,0 2,-1 3,-2 0,-1 0,-2 0,-3 0,0 1,-1 1,-2 1,-2 0,-5 -2,-6 1,-1 2,-1 2,-2 0,-1 0,-3 -1,-4 0,-1 0,-1 0,-2 0,-2 -2,-4 -4,-4 3,-2 5,-5 4,-8 0,-4 -4,-8 -8,-8 -2,1 -3,1 -4,2 -2,-1 -3,-2 -5,-2 -2,0 -4,1 -5,3 0,-1 -1,-1 -2,-1 -2,1 -4,2 -5,5 -3,0 -5,2 -4,5 0,1 0,1 0,2 -2,1 -3,2 -3,4 1,2 1,3 2,4 -1,0 -2,2 -1,3 0,1 0,2 1,3 0,0 -1,1 -1,1 -1,3 1,6 3,7l0 0c0,0 0,0 0,1 -1,2 0,5 2,5 1,1 2,1 3,0 -1,2 0,4 2,5 0,0 0,0 0,0 1,2 2,5 5,6 4,1 8,-1 9,-4 0,-1 0,-1 0,-1 1,0 1,0 2,0 2,0 4,-1 5,-4l0 0z"/>
   <path class="fil12" d="M30 82c-1,0 -2,1 -2,2 0,1 1,2 2,2 2,0 3,-1 2,-2 0,-1 -1,-2 -2,-2l0 0z"/>
   <path class="fil12" d="M47 61c-3,0 -5,1 -6,3 -1,0 -2,0 -2,0 -3,0 -5,1 -5,3 -1,0 -1,0 -2,0 -3,0 -5,3 -5,5 0,1 0,1 0,1 -1,1 -3,2 -2,4 0,1 0,2 0,3 0,0 0,0 0,1 0,2 2,3 4,3 1,0 2,-2 2,-4 0,0 0,0 0,0 1,0 2,-2 2,-3 2,0 3,-1 4,-2 0,0 1,0 2,0 1,0 1,0 1,0 2,2 5,4 8,3 4,0 8,-4 8,-9 -1,-5 -5,-8 -9,-8l0 0z"/>
   <path class="fil13" d="M42 93l0 2c0,0 1,6 1,6 0,1 0,1 -1,2 -2,3 1,6 3,6 2,0 9,-4 10,-4 0,-1 -3,-3 -3,-4 0,0 0,0 0,0 -2,0 -3,-6 -2,-7 0,-1 -8,-1 -8,-1l0 0z"/>
   <path class="fil8" d="M50 106c-1,0 -4,0 -8,-3 -2,1 -6,4 -6,4 -2,1 -3,2 -3,4 0,4 0,7 2,10 4,6 6,20 8,31l28 0c-2,-8 -5,-20 -6,-30 0,-2 -1,-3 -1,-4 3,2 6,2 8,4 2,-2 3,-7 3,-8l0 0c-8,-5 -12,-13 -22,-13 0,0 0,0 0,0l0 0c0,0 0,1 0,1 -1,-3 0,3 -3,4l0 0z"/>
   <path class="fil14" d="M37 124c3,7 5,19 6,28l11 -1c-10,-11 -14,-30 -14,-31 0,-1 -1,0 -1,0 0,2 -1,3 -2,4l0 0z"/>
   <path class="fil15" d="M37 126c3,5 4,14 5,21 16,-7 23,-7 27,-5 -2,-7 -4,-14 -4,-20 0,-1 0,-2 -1,-2 -9,-5 -23,3 -27,6l0 0z"/>
   <path class="fil16" d="M37 126l0 0 0 0c1,0 1,0 1,1l0 0c0,0 0,0 0,0l0 0c0,0 0,1 0,1l0 0c0,0 0,0 0,0l0 0c0,0 0,1 0,1l0 0c1,0 1,0 1,0l0 1c0,0 0,0 0,0l0 0c0,0 0,1 0,1l0 0c0,0 0,0 0,1l0 0c0,0 0,0 0,0l0 0c0,0 0,0 0,0l0 0c0,1 1,1 1,1l0 0 0 0 0 0c0,0 0,1 0,1l0 0 0 0c0,0 0,0 0,0l0 0 0 0 0 1 0 0 0 0 0 0c0,0 0,0 0,0l0 1 0 0 0 0 0 0 0 0 0 1 0 0 0 0 0 0 0 0 1 0 0 1 0 0 0 0 0 0 0 0 0 1 0 0 0 0 0 0 0 0 0 0 0 1 0 0c0,0 0,0 0,0l0 0 0 1 0 0 0 0 0 0 0 0 0 0 0 1 0 0 0 0 0 0 0 0 0 0 0 1 0 0 0 0 1 0 0 1 0 0 0 0 0 0c0,1 0,1 0,2l0 0 0 0 0 0 0 0 0 1 0 0c3,-1 5,-2 7,-3 -5,-7 -7,-16 -8,-20 -2,0 -3,1 -4,2l0 0z"/>
   <path class="fil17" d="M40 136c1,3 2,7 2,11 16,-7 23,-7 27,-5 -1,-4 -2,-9 -3,-13 -7,-1 -20,4 -26,7l0 0z"/>
   <path class="fil18" d="M40 136l0 0 0 0 0 0 0 0 0 0 0 1 0 0 0 0 0 0 0 0c1,0 1,0 1,1l0 0 0 0 0 0 0 0 0 1 0 0 0 0 0 0 0 0 0 0 0 0 0 1 0 0 0 0 0 0 0 0 0 1 0 0 0 0 0 0 0 1 0 0 0 0 0 0 0 0 0 0 0 0 0 0 0 1 0 0 0 0 0 0 1 0 0 0 0 1 0 0 0 0 0 0 0 0 0 0 0 1 0 0 0 0 0 0 0 1 0 0 0 0 0 0 0 0 0 0 0 0 0 1 0 0 0 0 0 0c3,-1 5,-2 7,-3 -2,-3 -4,-7 -5,-10 -1,1 -3,1 -4,2l0 0z"/>
   <path class="fil19" d="M39 131c1,2 1,5 2,8 11,-7 21,-7 25,-6 0,-2 0,-5 -1,-7 -7,-4 -20,2 -26,5l0 0z"/>
   <path class="fil6" d="M39 131l0 0 0 0 0 0 0 0c0,0 0,0 0,0l0 1c0,0 0,0 0,0l0 0 0 0 0 0 1 1 0 0 0 0 0 0 0 0 0 1 0 0 0 0 0 0 0 0 0 0 0 1 0 0 0 0 0 0 0 0 0 0 0 1 0 0 0 0 0 0 0 0 0 0 0 0 0 1 0 0 0 0 0 0 0 0 0 0 1 0 0 1 0 0 0 0 0 0 0 0 0 0 0 0 0 1 0 0 0 0 0 0 0 0c1,-1 3,-2 4,-3 -1,-2 -2,-4 -3,-7 -1,1 -2,1 -3,2l0 0z"/>
   <path class="fil12" d="M52 75c0,0 1,1 1,2 1,1 -1,2 -2,2 -1,0 -20,7 -20,7 0,0 -1,0 -1,0 0,-1 1,-9 1,-9l21 -2z"/>
   <path class="fil13" d="M53 81c-2,0 -3,2 -2,4 0,1 2,2 4,2 2,-1 2,-2 2,-4 -1,-2 -2,-3 -4,-2l0 0z"/>
   <path class="fil13" d="M31 87c-1,1 -2,2 -2,4 1,2 3,3 4,2 2,0 3,-2 3,-4 -1,-1 -3,-2 -5,-2l0 0z"/>
   <path class="fil20" d="M38 68l0 0c-6,2 -9,8 -7,14l3 9c1,6 8,10 13,8l0 0c6,-2 10,-8 8,-14l-3 -10c-2,-6 -8,-9 -14,-7l0 0z"/>
   <path class="fil21" d="M50 98c-10,3 -14,-4 -16,-10 -2,-9 9,-9 17,-12 1,0 1,0 1,0l0 -1c0,0 0,0 0,0 0,-1 -2,-1 -3,-2 -5,-1 -11,-3 -14,-3l-1 0c-3,3 -5,7 -3,12l3 9c1,6 6,9 11,8 2,0 4,0 5,-1l0 0z"/>
   <path class="fil22" d="M32 81c0,0 0,2 1,3 0,1 0,2 -1,2 0,0 1,2 1,2 0,0 -1,-1 -2,-1l-1 -5c0,1 0,-2 2,-2 0,0 0,0 0,1l0 0z"/>
   <path class="fil12" d="M31 86c0,-2 4,-3 3,-7 1,1 4,-2 9,-3 4,-2 10,-1 10,1 -2,-18 -32,-9 -22,9l0 0z"/>
   <path class="fil23" d="M51 101c0,0 0,0 0,0l0 0c1,1 0,2 0,3 0,0 -1,1 -1,1 -1,0 -2,0 -4,0 -1,-1 -2,-1 -4,-3l0 0c0,0 0,0 0,0 0,1 -1,1 -1,1 0,0 0,0 0,0l0 0c2,2 3,3 5,3 2,1 3,1 4,1l0 0c1,-1 2,-1 2,-3 1,-1 1,-2 1,-3l0 0c0,0 0,0 0,0 -1,0 -1,0 -1,0 0,0 0,0 -1,0l0 0z"/>
   <path class="fil12" d="M49 69c-2,1 -3,2 -3,4 0,2 2,4 3,3 2,0 4,-1 4,-3 0,-2 -2,-4 -4,-4l0 0z"/>
   <path class="fil12" d="M44 72c-1,0 -3,1 -2,3 0,1 1,3 3,3 1,-1 2,-2 2,-4 0,-1 -1,-2 -3,-2l0 0z"/>
   <path class="fil12" d="M39 73c-2,0 -4,1 -4,3 0,2 2,4 4,4 2,0 4,-2 4,-4 -1,-2 -2,-4 -4,-3l0 0z"/>
   <path class="fil12" d="M34 76c-1,0 -2,2 -2,3 0,1 1,2 3,2 1,0 2,-1 2,-3 0,-1 -1,-2 -3,-2l0 0z"/>
   <path class="fil12" d="M50 83l0 0c-1,0 -1,1 -1,1l0 2c0,0 1,0 1,0l0 0c1,0 1,0 1,-1l0 -1c0,-1 -1,-1 -1,-1l0 0z"/>
   <path class="fil12" d="M39 86l0 0c0,0 -1,0 0,1l0 1c0,1 1,1 1,1l0 0c1,0 1,-1 1,-1l0 -2c-1,0 -1,0 -2,0l0 0z"/>
   <path class="fil12" d="M50 79l-3 1c0,0 0,1 0,1l0 0c0,0 0,0 1,0l2 -1c1,0 1,0 1,0l0 0c0,0 -1,-1 -1,-1l0 0z"/>
   <path class="fil12" d="M40 82l-3 1c0,0 0,0 0,0l0 0c0,1 0,1 0,1l3 -1c0,0 1,0 0,-1l0 0c0,0 0,0 0,0l0 0z"/>
   <path class="fil24" d="M51 87c-1,0 -1,1 -1,2 0,0 1,1 2,1 1,0 1,-1 1,-2 0,-1 -1,-1 -2,-1l0 0z"/>
   <path class="fil24" d="M40 90c-1,0 -2,1 -2,2 1,0 1,1 2,1 1,-1 2,-1 1,-2 0,-1 -1,-1 -1,-1l0 0z"/>
   <path class="fil12" d="M44 92c0,1 1,2 3,2 1,-1 2,-2 2,-4l0 0c0,0 0,0 -1,0l-4 1c0,0 0,0 0,1l0 0z"/>
   <path class="fil25" d="M45 94c1,0 1,0 2,0 0,0 1,-1 1,-1 0,-1 -1,-1 -2,-1 0,0 -1,1 -1,2l0 0z"/>
   <path class="fil0" d="M48 90l-4 1c0,1 1,1 1,1 0,0 3,-1 4,-1 0,0 0,-1 -1,-1l0 0z"/>
   <path class="fil20" d="M34 109c-3,2 -3,7 -5,10 0,1 -2,8 -3,6 -1,-2 -6,-16 -5,-19 -5,-1 -1,0 -5,0 0,1 -2,14 1,24 4,11 16,6 22,-9 2,-6 -2,-12 -5,-12l0 0z"/>
   <path class="fil20" d="M24 103c1,-2 3,-3 3,-3 1,0 0,-1 -1,-1 0,0 -1,0 -2,1 0,0 -1,1 -2,0 0,0 1,-7 1,-8 0,-1 -1,-1 -1,-1 0,0 0,1 -1,3 0,1 0,3 -1,3 0,0 0,0 0,-1 0,-1 -1,-6 -1,-6 0,0 -1,0 -1,1 -1,0 0,5 0,6l0 1c0,0 -1,0 -2,1 0,0 -1,0 -1,2 -1,1 -1,4 1,6 1,1 3,1 4,1 3,-1 3,-3 4,-5l0 0z"/>
   <path class="fil8" d="M42 107l-8 1c-2,1 -6,14 -6,14 5,-1 5,8 5,9 -1,0 -2,1 -1,1 1,1 2,2 3,1 1,-5 9,-14 7,-26l0 0z"/>
   <path class="fil26" d="M56 69c0,-1 0,-3 0,-4 0,-4 -4,-8 -8,-8 -2,1 -3,1 -4,2 -2,-1 -3,-2 -5,-2 -2,0 -4,1 -5,3 0,-1 -1,-1 -2,-1 -2,1 -4,2 -5,5 -3,0 -5,2 -4,5 0,1 0,1 0,2 -2,1 -3,2 -3,4 1,2 1,3 2,4 0,0 -1,1 -1,1 0,0 2,2 4,2 1,-1 3,-1 4,-2 0,-1 1,-1 1,-1 0,-1 1,-1 1,-1 0,-1 1,-1 1,-1 5,-4 8,-6 12,-5 0,0 0,0 0,0 0,0 0,0 0,0 1,0 1,0 1,0 1,0 1,0 1,0 2,0 3,0 4,0 1,0 1,0 1,0 1,-1 1,-1 1,-1 2,0 3,-1 4,-2l0 0z"/>
   <path class="fil27" d="M54 60c-1,-1 -3,-2 -5,-3 0,3 0,6 -4,7 -7,1 -12,3 -16,7 -2,2 -5,2 -8,1 0,1 0,1 0,2 1,1 3,1 6,0 6,-3 8,-7 17,-7 7,0 10,-4 10,-7l0 0z"/>
   <path class="fil21" d="M33 126c-2,5 -6,9 -11,6 -7,-3 -5,-24 -5,-24 0,0 0,0 -1,-1 0,0 0,0 0,0 0,0 0,0 0,0 0,2 -2,13 1,23 3,7 9,8 15,2 0,0 0,-1 1,-1 0,-1 0,-3 0,-5l0 0z"/>
   <path class="fil28" d="M138 76c1,-1 1,-2 2,-2 0,-1 -2,-2 -2,0 0,0 -1,0 -2,0 0,0 0,-6 0,-6 0,-1 -1,-1 -1,-1 0,0 0,1 0,2 0,1 0,3 0,3 0,0 -1,0 -1,-1 0,0 -1,-4 -1,-4 -1,0 -1,0 -1,1 0,0 1,4 1,4 0,1 -1,1 -1,0 0,0 -2,-4 -2,-4 0,0 -1,0 -1,1 0,0 2,4 2,4 0,1 0,1 -1,0 -1,0 -2,-1 -2,-1 0,0 -1,0 0,1 0,0 2,2 2,2 1,2 1,3 2,4 0,0 0,1 1,1 1,0 2,0 3,0 2,-1 2,-2 2,-4l0 0z"/>
   <path class="fil29" d="M128 72c0,0 0,0 0,1 0,0 2,2 2,2 1,2 1,3 2,4 0,0 0,1 1,1 0,0 0,0 1,0 0,0 0,0 0,-1 0,0 -1,0 -2,-1 -1,-1 -2,-3 -2,-3 -1,-1 -2,-3 -2,-3l0 0z"/>
   <path class="fil30" d="M122 33l0 0c7,-8 23,-4 21,10 -1,3 1,6 1,6l0 0c6,9 -2,19 -12,18 -6,0 -10,-1 -13,-3 4,1 8,2 9,1 0,-1 0,-5 0,-5l-4 -10c0,0 -4,0 -4,-4 -1,-5 2,-7 2,-7 -2,-3 0,-6 0,-6l0 0z"/>
   <path class="fil30" d="M121 40c1,0 2,-1 2,-2 0,0 10,12 20,4 0,0 0,1 0,1 -1,3 1,6 1,6l0 0c6,9 -2,19 -12,18 -6,0 -10,-1 -13,-3 4,1 8,2 9,1 0,-1 0,-5 0,-5l-4 -10c0,0 -4,0 -4,-4 0,-3 0,-5 1,-6l0 0z"/>
   <path class="fil16" d="M127 67c-2,-1 -4,-2 -5,-2 3,0 5,1 6,0 0,-1 0,-5 0,-5l-4 -10c0,0 -3,0 -4,-3 1,0 2,-1 3,-2l16 2c7,6 1,22 -12,20l0 0z"/>
   <path class="fil28" d="M128 56l0 0c2,0 3,2 3,4l0 4c-1,1 -2,3 -4,2l0 0c-2,0 -3,-1 -3,-3l1 -4c0,-2 1,-3 3,-3l0 0z"/>
   <path class="fil31" d="M132 56c0,0 -1,3 -1,4l0 4c0,0 0,0 0,0l-7 -4 1 -4c0,-1 0,1 1,1l6 -1z"/>
   <path class="fil32" d="M117 62c0,0 -5,1 -10,10 -5,9 -10,19 -10,22 -1,2 4,11 6,16l5 0c0,0 -6,-14 -6,-16 -1,-2 7,-11 12,-17 5,-7 3,-15 3,-15l0 0z"/>
   <path class="fil28" d="M97 95c1,3 4,11 6,15l5 0c0,0 0,-1 -1,-2 -1,0 -3,0 -4,-2 -3,-2 -6,-11 -6,-11l0 0zm20 -33c0,0 -1,0 -4,2 0,3 0,7 -3,12 -5,9 -9,15 -8,18 -1,-2 7,-11 12,-17 5,-7 3,-15 3,-15l0 0z"/>
   <path class="fil28" d="M138 65c0,0 4,1 7,11 3,10 6,21 6,24 -1,2 -7,10 -10,14l-5 -1c0,0 9,-12 10,-14 1,-2 -5,-12 -9,-20 -3,-7 1,-14 1,-14l0 0z"/>
   <path class="fil33" d="M150 101c-1,3 -7,10 -9,13l-5 -1c0,0 1,-1 2,-2 0,0 1,1 2,1 3,-1 10,-11 10,-11l0 0zm-12 -36c0,0 1,0 2,1 0,2 0,5 1,10 2,9 5,19 6,20 0,2 -2,4 -2,4l0 0c1,-1 1,-1 1,-1 1,-2 -5,-12 -9,-20 -3,-7 1,-14 1,-14l0 0z"/>
   <path class="fil19" d="M108 110c0,0 -1,-1 -1,-2 0,-1 2,-4 4,-9 2,-3 2,-7 2,-11 -3,-17 0,-12 4,-26 0,0 0,0 0,0 2,0 6,0 11,0 4,1 8,1 10,3 0,0 0,0 0,0 0,14 5,9 -2,26 -1,4 -2,8 -1,11 1,6 2,9 2,10 0,0 -1,1 -1,1l-28 -3z"/>
   <path class="fil34" d="M113 91c0,-1 0,-2 0,-3 -1,-1 -1,-3 -1,-4 6,5 23,4 24,3 1,-1 3,-6 3,-7 0,-2 -2,-10 -2,-10 0,-1 -3,-1 -3,-1l-1 1 1 -7c1,1 3,1 4,2 0,0 0,0 0,0 0,14 5,9 -2,26 -1,4 -2,8 -1,11 1,6 2,9 2,10 0,0 -1,1 -1,1l-5 0c1,-1 2,-2 2,-3 0,-2 0,-16 -2,-17 -1,-1 -18,-2 -18,-2l0 0z"/>
   <path class="fil28" d="M119 62c2,0 5,0 9,0 3,0 6,1 8,2 -1,10 -16,9 -17,-2l0 0z"/>
   <path class="fil31" d="M127 62l0 0 0 0 0 0 0 0 0 0 0 0 0 0c0,0 0,0 1,0l0 0c3,0 6,1 8,2 -1,4 -4,7 -8,7 0,0 0,0 0,0l0 0c4,-1 5,-3 5,-4 0,-1 -1,-2 -1,-2l-5 -3 0 0z"/>
   <path class="fil0" d="M120 62c0,1 1,3 3,5 3,4 11,2 12,-4 1,1 1,1 1,1 -1,10 -16,9 -17,-2 0,0 1,0 1,0l0 0z"/>
   <path class="fil35" d="M133 67c1,-1 2,-2 2,-4l0 0 0 1 0 0 0 0 0 0 0 0 0 0 0 0 0 0 0 0 0 0 0 0 0 0 0 0 0 0 0 0 0 0 0 0 0 0 1 0 0 0 0 0 0 0 0 0 0 0 0 0 0 0 0 0 0 0 0 0 0 0 0 0 0 0 0 0 0 0 0 0 0 0 0 0 0 0 0 0 0 0 0 0 0 0 0 0 0 0 0 0 0 0 0 0 0 0 0 0 0 0 0 0 0 0 0 0 0 0 0 0 0 0 0 0 0 0 0 0 0 0 0 0 0 0 0 0 0 0 0 0 0 0 0 0c0,0 0,0 0,0l0 0c0,0 0,1 0,1l0 0c0,0 0,0 0,0l0 0c0,0 0,0 0,1l0 0c0,0 0,0 0,0l0 0c0,0 -1,0 -1,0l0 0c0,0 0,1 0,1l0 0c0,0 0,0 0,0l0 0c0,0 0,0 0,0l0 0c0,1 0,1 0,1l0 0c0,0 -1,0 -1,0l0 0c0,0 0,0 0,0l0 0c0,0 0,1 0,1l0 0c0,0 0,0 0,0l0 0c-1,0 -1,0 -1,0l0 0c0,0 0,0 0,0l0 0c0,0 0,0 0,1l0 0c0,0 -1,0 -1,0l0 0c0,0 0,0 0,0l0 0c0,0 0,0 0,0l0 0c0,0 -1,0 -1,0l0 0c0,0 0,0 0,0l0 0c0,0 0,0 0,1l0 0c-1,0 -1,0 -1,0l0 0c0,0 0,0 0,0l0 0c0,0 0,0 0,0l-1 0c0,0 0,0 0,0l0 0c0,0 0,0 0,0l0 0c0,0 0,0 -1,0l0 0c0,0 0,0 0,0l0 0c4,-1 5,-3 5,-4l0 0z"/>
   <path class="fil31" d="M121 46c2,0 3,1 2,3 0,1 -1,2 -2,2 -2,0 -3,-2 -3,-3 0,-1 2,-3 3,-2l0 0z"/>
   <path class="fil31" d="M139 47c2,0 3,2 3,3 0,2 -2,3 -3,3 -2,0 -3,-2 -3,-3 1,-2 2,-3 3,-3l0 0z"/>
   <path class="fil28" d="M139 44l-1 7c0,5 -5,9 -10,9l0 0c-5,-1 -8,-5 -8,-11l1 -8c0,-1 1,-1 1,-2 1,-2 1,-4 3,-5 4,3 10,8 14,10l0 0z"/>
   <path class="fil36" d="M139 44l-1 7c0,5 -5,9 -10,9l0 0c0,0 0,-1 0,-1 5,0 7,-5 7,-6 0,-2 1,-4 1,-5 0,-1 -2,-1 -2,-1l-4 -4c0,0 -4,-2 -6,-2 -2,0 -3,3 -3,3l0 -1 0 -3c0,0 0,0 0,0 0,-1 1,-1 1,-1 -1,0 -1,0 -1,-1 1,-1 1,-2 2,-2 1,-1 1,-1 2,-2 0,0 0,0 0,0 4,3 10,8 14,10l0 0z"/>
   <path class="fil16" d="M140 47l-1 0 -2 -1c0,2 -1,4 1,5l1 -3c0,-1 1,-1 1,-1l0 0z"/>
   <path class="fil37" d="M125 46l0 0c0,1 1,1 1,1l0 1c0,1 -1,1 -1,1l0 0c-1,0 -1,0 -1,-1l0 -1c0,0 1,-1 1,-1l0 0z"/>
   <path class="fil37" d="M134 47l0 0c1,0 1,1 1,1l0 1c0,1 -1,1 -1,1l0 0c0,0 -1,0 -1,-1l0 -1c0,0 1,-1 1,-1l0 0z"/>
   <path class="fil31" d="M124 50c1,0 1,0 1,1 0,1 0,1 -1,1 -1,0 -1,0 -1,-1 0,-1 0,-1 1,-1l0 0z"/>
   <path class="fil31" d="M135 51c0,0 1,0 1,1 0,1 -1,1 -2,1 0,0 -1,-1 -1,-1 0,-1 1,-1 2,-1l0 0z"/>
   <path class="fil0" d="M132 53c0,1 -2,2 -3,2 -1,0 -2,-1 -2,-2l0 0c0,-1 0,-1 0,-1l4 1c1,0 1,0 1,0l0 0z"/>
   <path class="fil38" d="M126 45c0,0 0,0 0,0 0,0 0,0 0,0l-2 0c0,0 -1,0 -1,0 0,0 1,0 1,0l2 0z"/>
   <path class="fil38" d="M133 46c0,0 0,0 0,0 0,0 0,0 0,0l2 1c1,0 1,-1 1,-1 0,0 0,0 0,0l-3 0z"/>
   <path class="fil30" d="M120 45c0,0 2,-4 4,-6 1,3 8,8 15,8 0,0 1,0 2,-2 -5,-2 -8,-11 -12,-15 -1,0 -7,4 -8,6 0,0 0,0 0,0 0,1 0,2 1,3 0,0 -2,1 -2,4 0,1 1,2 0,2l0 0z"/>
   <path class="fil16" d="M120 45c0,0 3,-2 4,-6 3,5 14,11 19,7 0,-1 -1,-2 0,-3 0,0 0,0 0,0 -11,4 -20,-5 -20,-5 0,1 -1,2 -2,2l0 0 0 0 0 0 0 1 0 0 0 0 0 0 0 0 0 0 0 0 0 0 0 0 -1 0 0 0 0 0 0 0 0 0 0 0 0 0 0 0 0 0 0 0 0 0 0 0 0 1 0 0 0 0 0 0 0 0 0 0 0 0 0 0 0 0 0 0 0 0 0 0 0 0 0 0 0 0 0 1 0 0 0 0 0 0 0 0 0 0 0 0 0 0 0 0 0 0 0 0 0 0 0 0 0 0 0 0c0,1 0,1 0,1 0,1 0,1 0,2l0 0c0,0 0,0 0,0l0 0c0,0 0,-1 0,-1l0 0z"/>
   <path class="fil15" d="M122 33c2,-2 3,-3 5,-3 1,4 5,14 16,9 0,0 0,1 0,1 -2,1 -5,3 -8,2 -6,0 -12,-5 -13,-9l0 0z"/>
   <polygon class="fil22" points="78,60 95,58 98,93 82,94 "/>
   <path class="fil22" d="M92 57c0,0 -1,-2 -1,-2 0,0 -1,0 -2,0 -2,1 -3,1 -3,1 0,0 -1,0 -2,0 -2,0 -3,0 -3,0 0,0 0,2 0,2 0,2 6,2 6,2 0,0 5,-1 5,-3l0 0z"/>
   <path class="fil15" d="M89 61c0,0 -1,2 -1,2 -1,1 2,15 4,22 2,6 -1,14 -1,14 0,0 -5,-7 -4,-14 0,-6 -1,-21 -1,-22 0,0 -2,-1 -2,-1l3 -2 2 1z"/>
   <path class="fil25" d="M89 61c0,0 -1,2 -1,2 -1,1 2,15 4,22 2,6 -1,14 -1,14 0,0 -5,-7 -4,-14 0,-1 0,-2 0,-3 3,-3 1,-15 1,-17 -1,-1 -2,-1 -2,-1 0,0 0,0 0,-1 0,0 0,0 0,0 0,0 1,0 1,0 1,-1 0,-2 -1,-2 0,0 -1,1 -1,2 0,-1 0,-1 0,-1l0 -1 2 -1 2 1z"/>
   <path class="fil39" d="M89 47l0 2c0,0 1,6 1,6 0,1 0,1 1,2 -1,0 -2,1 -3,2l-3 1c-2,-1 -3,-2 -3,-2 0,-1 1,-2 1,-2 0,-1 -1,-6 -1,-6l0 -2c0,0 1,0 3,0 2,-1 4,-1 4,-1l0 0z"/>
   <path class="fil40" d="M91 55c0,0 -1,3 -4,4 0,0 -1,0 -1,1 0,0 3,2 3,3 0,1 4,-5 4,-6 0,0 -1,-2 -2,-2l0 0z"/>
   <path class="fil40" d="M81 56c0,0 1,3 5,3 0,0 1,0 1,1 0,0 -2,2 -2,3 0,2 -5,-3 -5,-5 0,0 0,-1 1,-2l0 0z"/>
   <path class="fil41" d="M98 141c1,2 1,4 2,7l12 -1c-2,-17 -4,-31 -4,-32 -1,-2 -9,-2 -17,-1 -7,1 -15,2 -15,4 -1,1 1,14 2,30l13 0c0,-3 0,-5 0,-6 1,-9 5,-6 7,-1l0 0z"/>
   <path class="fil0" d="M79 58c-2,1 -10,4 -10,10 0,7 8,15 9,33 0,13 -2,19 1,19 2,0 5,0 7,-1 7,-1 7,-9 6,-17 -2,-6 -6,-24 -8,-34 -1,-3 -3,-5 -2,-5l-1 -3c-1,0 -2,-1 -2,-2l0 0z"/>
   <path class="fil22" d="M72 77c1,3 3,7 4,12l0 0c-1,-4 -3,-17 -4,-14 0,1 0,1 0,2l0 0z"/>
   <path class="fil22" d="M71 76c1,1 1,2 2,4l0 0c0,0 0,-2 1,-5 1,-3 0,-5 -1,-6 -1,0 0,3 -2,6 0,1 0,1 0,1l0 0z"/>
   <path class="fil42" d="M76 59c5,5 4,15 4,20 0,2 2,1 3,1 1,0 -2,1 -2,2 -1,1 7,8 9,15 0,0 0,1 0,1 1,0 1,0 1,-1 -1,0 -5,-18 -6,-25 -2,-7 -3,-11 -5,-14 0,0 -1,0 -1,0 0,0 -2,1 -3,1l0 0z"/>
   <path class="fil0" d="M93 57c2,0 10,2 12,8 1,6 -5,15 -2,33 2,12 6,18 2,19 -1,1 -4,1 -6,1 -7,0 -9,-7 -9,-16 0,-6 1,-25 0,-35 0,-3 2,-5 1,-5l1 -3c0,-1 1,-2 1,-2l0 0z"/>
   <path class="fil42" d="M96 57c-4,6 -1,15 1,20 0,3 -3,1 -4,2 -1,0 3,0 3,1 1,1 -5,10 -6,17 0,0 0,1 0,1 0,0 0,0 0,-1 0,0 0,-18 0,-25 0,-8 0,-12 2,-15 0,0 0,-1 1,-1 0,0 3,1 3,1l0 0z"/>
   <path class="fil40" d="M99 59c0,0 -1,-1 3,1 2,2 8,13 11,20 4,6 3,6 0,14 -2,5 -5,11 -7,13 0,0 0,0 0,-1 -1,0 -1,-2 -2,-2 0,0 0,-1 1,-1 0,-1 4,-14 4,-17 1,-3 -8,-12 -9,-14 -1,-2 -5,-9 -1,-13l0 0z"/>
   <path class="fil22" d="M115 87c0,1 -1,3 -2,7 -2,5 -5,11 -7,13 0,0 0,0 0,-1 -1,0 -1,-2 -2,-2 0,0 0,-1 1,-1 0,0 0,-1 0,-1 1,2 3,0 5,-3 2,-4 5,-12 5,-12l0 0z"/>
   <path class="fil22" d="M70 87c1,-3 2,-7 4,-9 -1,-3 -2,-4 -2,-3 0,3 -2,9 -2,12l0 0zm-1 1l0 0 0 0z"/>
   <path class="fil22" d="M64 92c0,2 1,3 4,7 3,4 7,10 9,11 0,0 0,0 0,-1 0,0 0,-2 1,-2 0,-1 0,-1 -1,-2 0,0 0,0 0,0 -1,2 -3,1 -5,-2 -3,-3 -8,-11 -8,-11l0 0z"/>
   <path class="fil39" d="M75 41c2,-1 3,1 3,2 0,2 -1,3 -3,4 -1,0 -3,-1 -3,-3 0,-2 1,-3 3,-3l0 0z"/>
   <path class="fil39" d="M96 38c2,0 3,1 3,3 0,2 -1,3 -3,3 -1,1 -3,-1 -3,-2 0,-2 1,-3 3,-4l0 0z"/>
   <path class="fil28" d="M84 24l0 0c6,-1 11,4 11,9l1 10c1,6 -3,11 -9,11l0 0c-6,1 -11,-3 -12,-9l-1 -9c0,-6 4,-11 10,-12l0 0z"/>
   <path class="fil36" d="M87 54l0 0zm8 -23c0,1 0,2 0,2l1 10c1,6 -3,11 -9,11 11,-3 6,-17 2,-18 -3,-1 -11,0 -13,1 -1,0 -1,1 -1,2l-1 -3c0,-2 0,-3 1,-4 2,0 8,-3 12,-3 4,-1 6,2 8,2l0 0z"/>
   <path class="fil43" d="M79 39l0 0c1,0 1,0 2,1l0 1c0,1 -1,1 -1,1l0 0c-1,0 -1,0 -1,-1l0 -1c-1,0 0,-1 0,-1l0 0z"/>
   <path class="fil43" d="M91 38l0 0c1,0 1,0 1,1l0 1c0,1 0,1 -1,1l0 0c0,0 -1,0 -1,-1l0 -1c0,-1 1,-1 1,-1l0 0z"/>
   <path class="fil43" d="M78 37l3 -1c0,0 0,0 0,1l0 0c0,0 0,0 0,0l-3 1c0,0 -1,-1 -1,-1l0 0c0,0 0,0 1,0l0 0z"/>
   <path class="fil43" d="M89 35l3 0c1,0 1,0 1,1l0 0c0,0 0,0 -1,0l-2 0c-1,0 -1,0 -1,0l0 0c0,0 0,-1 0,-1l0 0z"/>
   <path class="fil39" d="M79 43c1,0 2,1 2,1 0,1 -1,2 -2,2 0,0 -1,0 -1,-1 0,-1 0,-2 1,-2l0 0z"/>
   <path class="fil39" d="M92 42c1,0 2,0 2,1 0,1 -1,2 -1,2 -1,0 -2,-1 -2,-2 0,0 0,-1 1,-1l0 0z"/>
   <path class="fil44" d="M75 35c0,1 1,8 0,8 0,0 0,-2 -1,-2l-1 -10 1 1 1 3z"/>
   <path class="fil44" d="M95 38c0,0 0,3 1,3 0,0 -1,-3 1,-3l-1 -9 -1 1c-3,-1 -3,5 0,8l0 0z"/>
   <path class="fil45" d="M96 35c1,-1 2,-9 -3,-8 -3,-13 -20,4 -20,-3 -3,3 -5,9 1,14 0,0 0,0 0,0 1,-4 8,-4 11,-4 4,-1 6,-3 6,-3 1,4 5,3 5,4l0 0z"/>
   <path class="fil46" d="M92 24c-1,0 -1,-1 -1,-1 -1,2 -2,6 -9,7 -6,0 -9,-2 -11,-5 0,2 -1,3 -1,4 1,2 4,3 8,3 9,0 13,-4 14,-8l0 0z"/>
   <path class="fil47" d="M96 35c1,-1 1,-2 1,-3 -4,1 -6,-2 -6,-2 -2,2 -8,3 -15,4 -5,0 -6,-2 -6,-3 0,3 1,5 4,7 0,0 0,0 0,0 1,-4 8,-4 11,-4 4,-1 6,-3 6,-3 1,4 5,3 5,4l0 0z"/>
   <path class="fil48" d="M85 45c0,0 -1,-1 -1,-1 0,0 0,1 0,1 0,0 0,1 1,1 0,1 1,1 1,1 1,0 1,-1 2,-1 0,0 0,-1 0,-2 0,0 0,0 0,0 -1,0 -1,0 -1,1 0,0 0,0 0,0 0,1 -1,1 -1,1 0,0 -1,0 -1,0 0,-1 0,-1 0,-1l0 0z"/>
   <path class="fil49" d="M88 99c0,0 6,1 11,13 5,11 4,17 3,19 -1,3 -6,11 -6,11l-2 -3c0,0 4,-7 4,-12 0,-4 -3,-14 -9,-18 -6,-5 -1,-10 -1,-10l0 0z"/>
   <path class="fil22" d="M70 152c1,-9 2,-16 4,-18 1,-1 3,-1 6,-2 -1,-4 -1,-6 -1,-6 0,0 6,-1 10,-1l5 7c0,0 3,5 4,16 0,1 0,2 0,4l-28 0z"/>
   <path class="fil12" d="M70 152c1,-9 2,-16 4,-18 1,-1 3,-1 6,-2 -1,-4 -1,-6 -1,-6 0,0 6,-1 10,-1l5 7c0,0 1,3 3,9 -2,-2 -5,-4 -6,-4 -4,1 -12,6 -14,7 0,0 -1,3 -2,8l-5 0z"/>
   <path class="fil50" d="M65 101c5,-4 10,-4 17,-5 5,0 8,2 9,7l0 0c2,5 8,7 3,15l0 0c0,5 0,9 0,12 1,7 -21,7 -21,4 1,-10 -1,-14 -4,-18l0 0c-5,-8 -4,-13 -4,-15l0 0z"/>
   <path class="fil49" d="M65 101c3,-3 6,-3 9,-4l4 1c0,0 -9,-1 -8,6 0,8 8,15 12,15 3,1 5,-4 9,-3 3,2 4,-1 4,-1 0,1 -1,2 -1,3l0 0c0,0 0,1 0,1 -6,0 -15,2 -14,8 1,5 5,7 9,8 -6,1 -16,1 -16,-1 2,-10 -1,-14 -4,-17 0,0 0,0 0,-1 -5,-8 -4,-14 -4,-15l0 0z"/>
   <path class="fil51" d="M73 87l1 2c0,0 0,5 0,6 0,1 0,3 -3,3 -1,0 5,3 9,2 4,-1 5,-4 3,-5 0,0 -1,0 -1,0 -1,-1 -1,-6 -1,-7 1,-1 -8,-1 -8,-1l0 0z"/>
   <path class="fil50" d="M91 101c0,0 0,1 0,2l0 0c3,5 8,7 3,15l0 0c0,2 0,3 0,5 -2,1 -4,-1 -7,-1 -2,0 -4,-2 -5,-4 -1,-2 -2,-7 -2,-8 0,-2 5,-9 5,-9l6 0z"/>
   <path class="fil49" d="M77 117c4,2 18,-2 18,-2 0,1 -1,2 -1,3l0 0c0,0 0,1 0,1 -3,0 -7,1 -10,2 0,0 -7,-1 -7,-4l0 0z"/>
   <path class="fil22" d="M87 73c-1,-6 -4,-13 -12,-13 -7,-1 -15,3 -17,13 -1,7 1,16 2,23 0,6 -3,11 3,15 -1,-8 2,-10 3,-11 1,0 2,1 3,2 9,19 26,14 21,-2 0,-1 0,-2 0,-2 -1,-4 -1,-4 -2,-16 -1,-2 -1,-5 -1,-9l0 0z"/>
   <path class="fil12" d="M86 76c0,0 0,-1 0,-1 -1,0 -1,-1 -1,-1 0,-1 0,-1 0,-2 0,-1 -2,-5 -7,-6 -5,-1 -10,3 -12,8 -2,4 -1,6 -2,7 0,0 -2,-4 1,-10 0,0 0,-1 0,-1 -1,0 -4,4 -4,13 0,9 6,15 15,15 10,1 12,-7 11,-15l-8 -5 7 -2z"/>
   <path class="fil28" d="M66 82l1 4c0,5 6,9 11,8l0 0c6,-1 9,-6 9,-11l-2 -8 0 0c0,0 0,-6 -6,-7 -5,-1 -14,6 -13,14l0 0z"/>
   <path class="fil36" d="M66 82l1 4c0,5 6,9 11,8l0 0c-8,1 -16,-15 -2,-23l-2 0c0,0 -1,0 -2,0 -4,2 -7,7 -6,11l0 0z"/>
   <path class="fil0" d="M85 73c-1,-2 -2,-4 -6,-5 -3,-1 -10,3 -12,9 10,-10 15,-7 18,-4l0 0z"/>
   <path class="fil51" d="M84 83c-1,0 -1,1 -1,1 0,1 1,2 2,2 0,0 1,-1 1,-2 0,-1 -1,-1 -2,-1l0 0z"/>
   <path class="fil51" d="M72 85c-1,0 -2,0 -2,1 1,1 1,2 2,1 1,0 1,0 1,-1 0,-1 -1,-2 -1,-1l0 0z"/>
   <path class="fil12" d="M76 87c0,2 1,3 3,2 1,0 2,-1 2,-2l0 0c0,-1 0,-1 0,-1l-5 1c0,0 0,0 0,0l0 0z"/>
   <path class="fil25" d="M77 89c1,0 1,1 2,0 0,0 1,0 1,0 0,-1 -1,-1 -1,-1 -1,0 -2,1 -2,1l0 0z"/>
   <path class="fil0" d="M81 86l-4 1c0,0 0,1 0,1 1,0 4,-1 4,-1 0,0 0,-1 0,-1l0 0z"/>
   <path class="fil52" d="M73 78c1,0 1,0 1,0 0,0 -1,0 -1,0 0,0 -1,0 -2,1 -1,0 -1,0 -1,-1 0,0 0,0 0,0 2,-1 3,0 3,0l0 0z"/>
   <path class="fil52" d="M81 76c0,0 0,1 0,1 0,0 0,0 0,0 0,0 1,-1 3,0 0,0 0,0 0,-1 0,0 0,0 0,0 -2,-1 -3,0 -3,0l0 0z"/>
   <path class="fil12" d="M86 102c-3,5 -9,1 -13,-1 -1,-1 -1,0 0,1 4,6 13,8 13,0l0 0z"/>
   <path class="fil50" d="M66 100c0,0 -4,2 -6,13 -2,11 -3,19 -1,22 3,4 12,13 12,13l0 -3 0 -1c0,0 -7,-9 -8,-13 -1,-3 6,-17 7,-21 0,-4 -1,-10 -4,-10l0 0z"/>
   <path class="fil49" d="M59 135c0,0 0,0 0,0 3,4 12,13 12,13l0 -3 0 -1c0,0 -1,-1 -1,-2 -1,0 -2,1 -3,0 -2,0 -8,-7 -8,-7l0 0zm7 -35c0,0 -2,1 -3,4 1,0 1,0 2,1 2,2 2,7 0,13 -2,6 -3,12 -2,14l0 0c0,0 0,0 0,-1 -1,-3 6,-17 7,-21 0,-4 -1,-10 -4,-10l0 0z"/>
   <path class="fil28" d="M69 147c-1,-2 1,-3 2,-5 0,-1 0,-1 0,0 1,1 0,1 0,2 0,0 2,0 2,2 0,1 -1,5 -2,4 -1,0 -2,-2 -2,-3l0 0z"/>
   <path class="fil52" d="M74 83c0,0 0,0 0,0 0,0 1,0 1,0 0,-1 -1,-2 -1,-2 -1,0 -1,0 -2,0 0,0 -1,0 -1,1 0,0 -1,1 -1,1 1,0 1,1 1,1 0,0 0,-1 0,-1 0,0 0,-1 1,-1 0,0 0,0 0,0 1,0 1,0 1,0 1,0 1,0 1,1l0 0z"/>
   <path class="fil52" d="M84 81c0,0 0,0 1,0 0,0 0,0 0,0 0,-1 0,-1 -1,-2 0,0 -1,0 -1,0 -1,0 -1,0 -2,1 0,0 0,1 0,1 0,1 0,1 0,1 1,0 1,0 1,-1 0,0 0,0 0,-1 0,0 0,0 1,0 0,0 0,0 1,0 0,0 0,1 0,1l0 0z"/>
   <path class="fil41" d="M133 113l2 -11c-15,-1 -46,44 -15,38l2 0c0,0 11,-26 11,-27l0 0z"/>
   <path class="fil53" d="M134 102c0,0 2,-3 8,-3 4,-1 6,0 8,0 4,1 6,5 3,8 -3,4 -18,-2 -19,-5l0 0z"/>
   <path class="fil13" d="M148 91l0 3c0,0 0,6 0,6 0,1 0,1 0,2 1,1 -1,2 -3,2 -1,0 -1,1 -2,1 -3,1 -5,5 -5,5 0,0 -1,-8 -1,-9 1,0 1,0 2,0 2,-2 2,-6 1,-8 -1,-1 8,-2 8,-2l0 0z"/>
   <path class="fil54" d="M138 101c-1,3 0,4 0,5 0,1 0,4 0,4 1,0 1,-2 3,-3 2,-2 6,-4 7,-5 4,1 9,4 11,6 3,3 3,8 0,15 -1,2 -3,5 -3,7 -3,8 -4,16 -3,22l-31 0c4,-14 -1,-32 7,-45 2,-5 4,-5 9,-6l0 0z"/>
   <path class="fil55" d="M124 126c0,-3 1,-5 1,-8l11 13 3 0 -1 17 -7 1 2 -18 -9 -5z"/>
   <path class="fil17" d="M156 129c0,0 0,1 0,1 -3,8 -4,16 -3,22l-9 0c2,-3 4,-7 6,-15 2,-15 -1,-19 2,-24 0,0 1,-1 1,0 0,0 -2,5 1,10 1,2 1,4 2,6l0 0z"/>
   <path class="fil56" d="M140 108c0,0 0,0 0,0 0,0 0,0 0,0 -3,5 -1,10 0,14 1,5 2,9 -1,12 0,0 0,0 0,0 0,0 0,0 0,0 3,-3 2,-7 1,-12 -2,-4 -3,-9 0,-14l0 0z"/>
   <path class="fil56" d="M137 107c0,0 0,0 0,0 1,0 1,0 1,1 0,0 -3,7 -4,11 -1,1 -2,3 -2,4 0,2 0,4 1,5 0,0 0,0 0,0 0,0 0,0 -1,0 0,-1 0,-3 0,-5 0,-1 0,-3 1,-4 2,-4 4,-12 4,-12l0 0z"/>
   <path class="fil57" d="M133 127l0 0c0,0 0,1 0,1l-1 0c0,0 0,0 0,0l0 0c0,-1 0,-1 0,-1l1 0c0,-1 0,0 0,0l0 0z"/>
   <path class="fil53" d="M140 134l0 0c0,0 0,0 0,0l-1 0c0,-1 0,-1 0,-1l0 0c0,-1 1,-1 1,0l0 0c1,0 1,1 0,1l0 0z"/>
   <path class="fil53" d="M160 110c1,1 2,5 3,12 2,9 3,17 1,20 -1,3 -9,8 -10,10l-7 0c2,-2 8,-9 10,-14 0,-1 -2,-8 -5,-15 -4,-10 5,-20 8,-13l0 0z"/>
   <path class="fil41" d="M165 137c0,2 0,4 -1,5 -1,3 -9,8 -10,10l-5 0c6,-2 12,-8 14,-10 2,-1 2,-4 2,-5l0 0z"/>
   <path class="fil53" d="M120 152c1,-1 1,-2 1,-2 0,0 1,-2 1,-4 1,-2 1,-3 2,-3 1,0 8,2 14,2 1,-1 3,-1 4,2 0,0 0,3 1,5l-23 0z"/>
   <path class="fil41" d="M129 152c2,-1 6,-1 8,-2 4,-1 4,-3 5,-4 0,0 0,0 0,1 0,0 0,3 1,5l-14 0zm-9 0c1,-1 1,-2 1,-2 1,1 2,1 4,2l-5 0z"/>
   <path class="fil41" d="M150 99c0,0 3,2 0,3 0,0 -1,1 -1,1 0,0 -3,0 -3,0 2,-1 1,-2 2,-4 0,0 1,0 2,0l0 0z"/>
   <path class="fil53" d="M152 100l-2 -1c0,0 4,2 0,3 -3,1 -10,2 -12,8 0,0 0,1 0,1 1,-1 5,-9 17,-6 0,0 -1,-1 -1,-1l0 -1 -2 -3z"/>
   <path class="fil53" d="M137 100l1 1c0,0 -1,1 0,3 0,3 0,5 0,6 0,0 0,0 0,0 0,0 0,-1 -1,-3 -2,-1 -3,-3 -2,-5l2 -2z"/>
   <path class="fil41" d="M155 132c0,-1 0,-2 0,-2 -1,-2 -2,-5 -3,-7 -1,-4 -1,-8 0,-10 0,0 1,-1 1,0 0,0 -2,5 1,10 0,1 1,2 1,3 0,1 1,2 1,3 2,4 2,8 0,11 1,-1 1,-1 1,-2 0,0 -1,-3 -2,-6l0 0z"/>
   <path class="fil17" d="M143 147c0,2 0,5 2,3 0,1 0,1 0,1 0,0 -1,0 -1,1l-1 0c-1,-2 -1,-5 -1,-5 0,-1 0,-1 -1,-2 0,0 2,0 2,2l0 0z"/>
   <path class="fil58" d="M133 120c0,0 2,1 2,1 0,0 -1,4 -7,6l-1 -5 6 -2z"/>
   <path class="fil58" d="M79 120c0,0 -2,1 -2,1 0,0 1,4 7,6l1 -5 -6 -2z"/>
   <path class="fil28" d="M78 119c-2,3 -3,5 -4,8 -1,3 -1,8 0,11 1,2 3,10 5,13l5 0c-2,-4 -4,-17 -4,-19 0,-2 2,-5 4,-7l0 0c0,0 -2,-5 -6,-6l0 0z"/>
   <path class="fil36" d="M81 139c-1,-3 -1,-6 -1,-7 0,-2 2,-5 4,-7l0 0c0,0 -1,-2 -3,-3 0,0 1,2 0,5 -1,2 -1,2 -2,3 0,1 2,9 2,9l0 0zm-8 -3c1,3 5,14 6,15l5 0c-1,0 -1,-1 -1,-1 -1,0 -6,-4 -10,-14l0 0z"/>
   <path class="fil40" d="M93 99c0,0 -3,1 -7,8 -3,3 -7,9 -9,14 4,0 7,6 7,6l0 0c2,-3 6,-6 8,-8 3,-4 4,-17 1,-20l0 0z"/>
   <path class="fil22" d="M93 99c0,0 -1,1 -4,3 1,4 0,10 -2,16 -1,3 -3,5 -6,6 2,1 3,3 3,3l0 0c2,-3 5,-5 8,-8 2,-3 4,-17 1,-20l0 0z"/>
   <path class="fil28" d="M134 119c1,3 3,5 4,8 1,3 1,8 0,11 -1,2 -3,10 -5,13l-5 0c2,-4 3,-17 3,-19 0,-2 -2,-5 -3,-7l0 0c0,0 2,-5 6,-6l0 0z"/>
   <path class="fil36" d="M131 139c0,-3 0,-6 0,-7 0,-2 -2,-5 -3,-7l0 0c0,0 1,-3 3,-4 0,0 -1,3 0,5 1,3 1,2 1,3 0,2 -1,10 -1,10l0 0zm7 -2c-1,3 -4,13 -5,14l-5 0c0,0 0,-1 1,-1 3,0 6,-7 9,-13l0 0z"/>
   <path class="fil40" d="M118 99c0,0 3,1 8,8 3,3 6,9 9,14 -4,0 -7,6 -7,6l0 0c-3,-3 -6,-6 -8,-8 -3,-4 -4,-17 -2,-20l0 0z"/>
   <path class="fil22" d="M118 99c0,0 2,1 4,3 0,4 0,10 2,16 2,3 4,5 6,6 -1,1 -2,3 -2,3l0 0c-3,-3 -6,-6 -8,-8 -3,-4 -4,-17 -2,-20l0 0z"/>
   <path class="fil59" d="M114 98l0 0 0 0c1,0 2,0 4,1 1,1 6,5 4,25 -1,2 -1,4 -1,7 -1,8 -1,13 0,20l-31 0c1,-7 1,-12 1,-20 0,-3 -1,-5 -1,-7 0,-1 0,-2 0,-3 -1,-17 2,-21 3,-22 2,-1 4,-1 4,-1l0 0 1 0 0 0c1,-1 3,-1 3,-1l5 1 0 0 0 0 5 -1c0,0 1,0 3,1l0 0z"/>
   <path class="fil22" d="M90 121c-2,-18 2,-21 3,-22 2,-1 4,-1 4,-2l0 0 1 0 0 0c0,0 1,0 2,0l0 2c0,0 -11,5 -10,22l0 0z"/>
   <path class="fil60" d="M114 98l0 0 0 0c1,0 2,0 4,1 1,1 6,5 4,25 -1,2 -1,4 -1,7 -1,8 -1,13 0,20l-8 0c3,-6 4,-11 4,-26 0,-16 -5,-26 -8,-28l2 0c0,0 1,0 3,1l0 0z"/>
   <path class="fil22" d="M114 97l0 0 0 0c1,1 3,1 4,2 1,1 4,3 4,9 0,4 1,9 0,13 1,-18 -10,-22 -10,-22l-1 -2c1,0 2,0 3,0l0 0z"/>
   <path class="fil40" d="M98 97c2,0 3,0 3,0l5 1 5 -1c0,0 1,0 2,0l-1 1c-4,5 -8,5 -12,0l-2 -1z"/>
   <path class="fil22" d="M109 97l2 0 0 0 0 0 0 0 0 0 0 0 0 0 0 0 0 0 0 0 0 0 0 0 0 0 0 0 0 0 0 0 0 0 0 0 0 0 0 0 0 0 0 0 0 0 1 0 0 0 0 0 0 0 0 0 0 0 0 0 0 0 0 0 0 0 0 0 0 0 0 0 0 0 0 0 0 0 0 0 0 0 0 0 0 0 0 0 0 0 0 0 0 0 0 0 0 0 1 0 0 0 0 0 0 0 0 0 0 0 0 0 0 0 0 0 0 0 0 0 0 0 0 0 0 0 0 0 0 0 0 0 0 0 -1 1c0,1 -1,1 -1,1 -1,-1 -1,-1 -2,-2l0 0z"/>
   <path class="fil36" d="M110 87l0 2c0,0 0,6 0,6 0,1 0,1 1,2 -4,4 -7,4 -10,0 1,-1 1,-1 1,-2 0,0 0,-6 0,-6l0 -2c0,0 2,0 4,0 2,0 4,0 4,0l0 0z"/>
   <path class="fil51" d="M94 77c2,0 3,2 3,3 0,2 -1,4 -3,4 -2,0 -4,-2 -4,-4 0,-1 2,-3 4,-3l0 0z"/>
   <path class="fil51" d="M118 77c2,0 3,2 3,3 0,2 -1,4 -3,4 -2,0 -4,-2 -4,-4 0,-1 2,-3 4,-3l0 0z"/>
   <path class="fil28" d="M106 60l0 0c6,0 12,5 12,11l0 11c0,7 -6,12 -12,12l0 0c-7,0 -12,-5 -12,-12l0 -11c0,-6 5,-11 12,-11l0 0z"/>
   <path class="fil36" d="M109 86c0,2 -1,4 -3,4 -2,0 -4,-2 -4,-4l0 0c0,0 1,0 1,0l6 0c0,0 0,0 0,0l0 0z"/>
   <path class="fil36" d="M106 94l0 0zm11 -25c1,1 1,1 1,2l0 11c0,7 -6,12 -12,12 12,-3 8,-19 5,-20 -4,-1 -13,-2 -15,-1 -2,0 -2,1 -2,2l0 -4c0,-1 0,-2 1,-3 2,-1 8,0 14,0 3,0 6,0 8,1l0 0z"/>
   <path class="fil43" d="M99 77l0 0c1,0 1,1 1,1l0 2c0,1 0,1 -1,1l0 0c0,0 -1,0 -1,-1l0 -2c0,0 1,-1 1,-1l0 0z"/>
   <path class="fil43" d="M112 77l0 0c1,0 2,1 2,1l0 2c0,1 -1,1 -2,1l0 0c0,0 -1,0 -1,-1l0 -2c0,0 1,-1 1,-1l0 0z"/>
   <path class="fil51" d="M98 83c1,0 2,0 2,1 0,1 -1,2 -2,2 0,0 -1,-1 -1,-2 0,-1 1,-1 1,-1l0 0z"/>
   <path class="fil51" d="M113 83c1,0 2,0 2,1 0,1 -1,2 -2,2 -1,0 -2,-1 -2,-2 0,-1 1,-1 2,-1l0 0z"/>
   <path class="fil43" d="M97 69c0,0 0,4 -2,4 0,0 0,3 0,4 0,0 0,2 -1,3 0,0 0,-3 -1,-3l0 -11 1 1 3 2z"/>
   <path class="fil43" d="M114 69c0,0 1,4 2,4 0,0 0,3 1,4 0,0 0,2 0,3 0,0 0,-3 1,-3l1 -11 -1 1 -4 2z"/>
   <path class="fil61" d="M119 72c0,0 -2,-3 -10,-2 -7,1 -14,2 -16,-2 -7,-9 7,-20 13,-14 5,4 6,4 11,6 5,2 4,10 2,12l0 0z"/>
   <path class="fil62" d="M119 73c-1,-1 -2,-4 -10,-3 -7,1 -14,2 -16,-2 -1,0 -1,-1 -1,-1 15,6 26,-6 26,-6 4,3 3,9 1,12l0 0z"/>
   <path class="fil63" d="M94 56c2,13 16,10 21,3 1,0 1,1 2,1 0,0 0,0 0,0 -7,8 -19,10 -26,4 0,-3 1,-7 3,-8l0 0z"/>
   <path class="fil62" d="M119 82l0 0c0,0 0,0 0,1l0 1c0,0 0,1 0,1l0 0c0,0 -1,-1 -1,-1l0 -1c0,-1 1,-1 1,-1l0 0z"/>
   <path class="fil22" d="M103 77l0 0c0,0 0,0 0,0l0 0c0,2 1,6 -2,6l-4 0 0 0c0,0 -1,-1 -1,-1l0 -5c0,0 0,0 0,0l0 0c0,-1 0,-1 1,-1l6 0c0,0 1,0 0,1l0 0zm12 6l-4 0c-1,0 -1,0 -2,-1 -1,-1 -1,-3 -1,-5l0 0c0,0 0,0 0,0l0 0c0,-1 0,-1 1,-1l7 0c0,0 0,0 0,1l0 0 0 0c0,0 0,0 0,0l0 5c0,0 0,1 -1,1l0 0zm-18 0l4 0c3,0 3,-2 3,-5l0 0 3 0 0 0c0,3 1,5 4,5l4 0 0 0c1,0 2,0 2,-1l0 -4 0 0 0 -1 0 0c0,-1 -1,-2 -1,-2l-7 0c-1,0 -2,1 -2,2l0 0 0 0 -3 0 0 0c0,-1 0,-2 -1,-2l-6 0c-1,0 -2,1 -2,2l0 0 0 5c0,1 1,1 2,1l0 0z"/>
   <path class="fil64" d="M96 77c0,0 0,0 0,0 0,0 0,0 0,0l-3 0c0,0 0,0 0,0 0,0 0,0 0,0l3 0z"/>
   <path class="fil64" d="M119 77c0,0 0,0 0,0 0,0 0,0 0,0l-3 0c0,0 0,0 0,0 0,0 0,0 0,0l3 0z"/>
   <path class="fil43" d="M109 86c0,2 -1,4 -3,4 -2,0 -3,-2 -3,-4l0 0c0,0 0,0 0,0l5 0c1,0 1,0 1,0l0 0zm-15 -8c0,0 0,5 0,7 0,1 1,10 12,10 10,0 12,-9 12,-10 0,-2 0,-7 0,-7l-1 1c0,0 0,2 -1,5 -1,4 -5,3 -6,2 0,-2 -2,-3 -3,-3 -1,0 -2,0 -3,0 -1,0 -2,1 -3,3 0,1 -4,2 -6,-2 -1,-3 0,-5 0,-5l-1 -1z"/>
   <path class="fil0" d="M108 87c0,1 -1,2 -2,2 -1,0 -2,-1 -2,-2l0 0c0,0 0,0 0,0l3 0c1,0 1,0 1,0l0 0z"/>
   <polygon class="fil41" points="135,74 138,72 136,81 134,81 "/>
   <path class="fil13" d="M135 80c2,1 3,2 3,4 0,2 -2,3 -4,3 -1,-1 -3,-2 -2,-4 0,-2 2,-3 3,-3l0 0z"/>
   <path class="fil13" d="M157 84c2,0 3,2 3,4 -1,1 -2,3 -4,2 -2,0 -3,-2 -3,-3 1,-2 2,-3 4,-3l0 0z"/>
   <path class="fil20" d="M148 66l0 0c6,1 10,7 9,13l-2 10c0,5 -6,10 -12,9l0 0c-6,-1 -10,-7 -9,-13l1 -8 0 -2c1,-6 7,-10 13,-9l0 0z"/>
   <path class="fil21" d="M152 68c4,2 6,6 5,11l-2 10c0,5 -6,10 -12,9l0 0c-1,-1 -3,-1 -4,-2 11,2 13,-5 14,-11 2,-13 -15,-13 -18,-10 0,0 0,-4 4,-6 2,-2 8,-1 11,-1 1,0 2,0 2,0l0 0z"/>
   <path class="fil41" d="M137 79l3 1c1,0 1,0 1,0l0 0c0,1 -1,1 -1,1l-3 -1c0,0 0,0 0,0l0 0c0,-1 0,-1 0,-1l0 0z"/>
   <path class="fil41" d="M149 81l3 0c0,0 0,1 0,1l0 0c0,0 0,1 -1,1l-3 -1c0,0 0,0 0,-1l0 0c0,0 0,0 1,0l0 0z"/>
   <path class="fil0" d="M146 90c0,1 -2,2 -4,2 -1,0 -2,-2 -2,-3l0 0c0,-1 0,-1 1,-1l5 1c0,0 0,0 0,1l0 0z"/>
   <path class="fil15" d="M137 86c1,0 1,1 1,2 0,1 -1,1 -2,1 0,0 -1,-1 -1,-2 0,-1 1,-1 2,-1l0 0z"/>
   <path class="fil15" d="M150 88c1,0 2,1 2,2 0,1 -1,1 -2,1 -1,0 -1,-1 -1,-1 0,-1 1,-2 1,-2l0 0z"/>
   <path class="fil56" d="M148 86c0,0 0,0 0,0 -1,0 -1,0 -1,0 0,-1 1,-2 1,-2 1,0 1,0 2,0 0,0 1,0 1,1 0,0 1,1 0,1 0,0 0,1 0,1 0,0 0,-1 0,-1 0,0 0,-1 -1,-1 0,0 0,0 0,0 -1,0 -1,0 -1,0 -1,0 -1,0 -1,1l0 0z"/>
   <path class="fil56" d="M136 84c0,0 0,0 0,0 0,0 -1,0 -1,0 1,-1 1,-1 1,-2 1,0 1,0 2,0 0,0 1,0 1,1 1,0 1,1 1,1 0,0 -1,1 -1,1 0,0 0,-1 0,-1 0,0 0,-1 0,-1 -1,0 -1,0 -1,0 -1,0 -1,0 -1,0 0,0 -1,0 -1,1l0 0z"/>
   <path class="fil41" d="M155 81c0,1 0,2 1,3 0,0 -1,1 0,1 0,0 0,-1 1,-1l0 0c0,0 4,-6 1,-12 -1,0 -3,1 -4,3 2,0 1,3 1,6l0 0z"/>
   <path class="fil53" d="M158 72c0,-10 -16,-13 -22,-5 -1,2 -3,7 -1,8 1,-7 20,-2 20,4l3 -7z"/>
   <path class="fil65" d="M156 66c-1,0 -1,0 -1,-1 -10,3 -15,1 -16,0 -1,1 -2,1 -3,2 0,0 0,1 0,1 6,4 16,0 20,-2l0 0z"/>
   <path class="fil41" d="M158 72c0,0 0,-1 0,-1 -1,2 -3,5 -6,2 -5,-3 -11,-3 -15,-2 -1,0 -2,0 -2,0 -1,2 -1,4 0,4 1,-7 20,-2 20,4l3 -7z"/>
   <path class="fil66" d="M124 61c0,0 -1,1 -1,1 0,1 0,5 0,9 1,5 1,11 2,13 0,0 0,0 0,0 0,-1 3,-8 4,-13 2,-4 3,-7 3,-8 0,0 -1,-1 -1,-1l0 0c0,0 1,0 1,1 0,1 -1,4 -2,8 -2,6 -5,12 -5,13 0,1 -1,0 -1,0 0,0 0,0 0,0 0,-2 -1,-8 -1,-13 0,-4 0,-8 0,-9 0,-1 1,-1 1,-1l0 0z"/>
   <path class="fil0" d="M126 83c1,0 1,1 2,1 0,0 -1,0 -1,0 -1,0 -2,1 -2,2 0,2 1,3 2,3 0,0 1,-1 1,-1 -1,1 -1,1 -2,1 -2,0 -3,-1 -3,-3 0,-1 1,-3 3,-3l0 0z"/>
  </g>
 </g>
</svg>
